SplineFontDB: 3.0
FontName: Oxygen-Bold
FullName: Oxygen Bold
FamilyName: Oxygen
Weight: Bold
Copyright: Copyright (c) 2011 by vernon adams. All rights reserved.
Version: 001.001
ItalicAngle: 0
UnderlinePosition: -119
UnderlineWidth: 119
Ascent: 1638
Descent: 410
sfntRevision: 0x00010000
LayerCount: 2
Layer: 0 0 "Back"  1
Layer: 1 0 "Fore"  0
XUID: [1021 14 500265001 7648098]
FSType: 0
OS2Version: 0
OS2_WeightWidthSlopeOnly: 0
OS2_UseTypoMetrics: 1
CreationTime: 1325757060
ModificationTime: 1326387755
PfmFamily: 17
TTFWeight: 700
TTFWidth: 5
LineGap: 0
VLineGap: 0
Panose: 2 0 8 3 0 0 0 9 0 4
OS2TypoAscent: 1567
OS2TypoAOffset: 0
OS2TypoDescent: -492
OS2TypoDOffset: 0
OS2TypoLinegap: 132
OS2WinAscent: 1901
OS2WinAOffset: 0
OS2WinDescent: 483
OS2WinDOffset: 0
HheadAscent: 1959
HheadAOffset: 0
HheadDescent: -672
HheadDOffset: 0
OS2SubXSize: 1434
OS2SubYSize: 1331
OS2SubXOff: 0
OS2SubYOff: 286
OS2SupXSize: 1434
OS2SupYSize: 1331
OS2SupXOff: 0
OS2SupYOff: 976
OS2StrikeYSize: 102
OS2StrikeYPos: 498
OS2Vendor: 'newt'
OS2CodePages: 20000007.00000000
MarkAttachClasses: 1
DEI: 91125
LangName: 1033 "Copyright (c) 2012 by vernon adams. All rights reserved." "" "" "vernonadams: Oxygen Bold: 2012" "Oxygen-Bold" "Version 1.000" "" "Oxygen Bold is a trademark of vernon adams." "vernon adams" "vernon adams" "Copyright (c) 2011 by vernon adams. All rights reserved." 
GaspTable: 1 65535 3 0
Encoding: ISO8859-1
Compacted: 1
UnicodeInterp: none
NameList: Adobe Glyph List
DisplaySize: -48
AntiAlias: 1
FitToEm: 1
WidthSeparation: 307
WinInfo: 0 33 8
BeginPrivate: 9
BlueValues 27 [-20 6 1055 1103 1420 2067]
OtherBlues 11 [-427 -318]
BlueScale 8 0.039625
BlueShift 1 7
StdHW 5 [238]
StdVW 5 [271]
StemSnapH 24 [21 209 221 228 238 245]
StemSnapV 29 [237 255 263 271 279 298 305]
ForceBold 4 true
EndPrivate
Grid
-2048 -9.16667 m 0
 4096 -9.16667 l 0
435 2662 m 0
 435 -1434 l 0
-2048 1478 m 0
 4096 1478 l 0
-2048 1454.98 m 0
 4096 1454.98 l 0
-2048 -19.9167 m 0
 4096 -19.9167 l 0
-2048 910 m 0

StartChar: exclam
Encoding: 33 33 2
Width: 750
Flags: W
HStem: -33 286<233 507> 1445 20G<233 507>
VStem: 233 274<-33 253 1002.81 1465> 306 136<313 486.824>
LayerCount: 2
Fore
SplineSet
507 -33 m 1xe0
 233 -33 l 1
 233 253 l 1
 507 253 l 1
 507 -33 l 1xe0
233 1465 m 1
 507 1465 l 1
 507 1198 l 1xe0
 442 313 l 1
 306 313 l 1xd0
 242 1089 l 2
 239 1124 236 1160 233 1198 c 1
 233 1465 l 1
235 1172 m 1
 273 709 352 -238 242 1089 c 1
 235 1172 l 1
235 1172 m 2
 233 1198 l 1
 208 1506 217 1395 235 1172 c 2
EndSplineSet
EndChar

StartChar: quotedbl
Encoding: 34 34 3
Width: 706
Flags: W
HStem: 927 536<106 305 409 607>
VStem: 66 239<1270.9 1463> 106 199<927 1119.1> 374 233<1243.45 1463> 409 198<927 1146.55>
LayerCount: 2
Fore
SplineSet
305 927 m 1xa0
 106 927 l 1xa0
 66 1463 l 1
 305 1463 l 1xc0
 305 927 l 1xa0
607 927 m 1x88
 409 927 l 1x88
 374 1463 l 1
 607 1463 l 1x90
 607 927 l 1x88
EndSplineSet
EndChar

StartChar: numbersign
Encoding: 35 35 4
Width: 1066
Flags: W
HStem: 370 206<42 205 455 552 803 939> 885 205<125 296 551 648 902 1023> 1445 20G<402.893 622 753.213 975>
LayerCount: 2
Fore
SplineSet
591 576 m 1
 648 887 l 1
 512 887 l 1
 455 576 l 1
 591 576 l 1
902 1090 m 1
 1046 1090 l 1
 1023 887 l 1
 863 887 l 1
 803 576 l 1
 960 576 l 1
 939 370 l 1
 770 370 l 1
 692 -33 l 1
 477 -33 l 1
 552 370 l 1
 421 370 l 1
 343 -33 l 1
 126 -33 l 1
 205 370 l 1
 25 370 l 1
 42 576 l 1
 242 576 l 1
 296 885 l 1
 108 885 l 1
 125 1090 l 1
 330 1090 l 1
 407 1465 l 1
 622 1465 l 1
 551 1090 l 1
 686 1090 l 1
 757 1465 l 1
 975 1465 l 1
 902 1090 l 1
EndSplineSet
EndChar

StartChar: dollar
Encoding: 36 36 5
Width: 1336
Flags: W
HStem: -17 249<392.825 641 784 889.188> 1251 246<485.953 658 801 1023.62> 1619 20G<662.718 802>
VStem: 139 270<990.801 1183.08> 645 139<-196 -17 237 618> 650 139<541.242 618 912 1251 1495.06 1639> 972 274<304.898 549.696>
LayerCount: 2
Fore
SplineSet
658 1251 m 1xf2
 504 1240 409 1186 409 1081 c 0
 409 975.461 517.221 949.303 654 912 c 1
 658 1251 l 1xf2
641 -17 m 1
 429 -11 272 41 152 113 c 1
 123 131 l 1
 219 373 l 1
 260 342 l 1
 345 281 478 239 645 232 c 1xfa
 650 654 l 1xf6
 534 683 l 1
 327 736 139 837 139 1077 c 0
 139 1344 353 1480 661 1497 c 1
 663 1639 l 1
 802 1639 l 1
 801 1497 l 1
 974 1488 1118 1448 1218 1380 c 1
 1245 1361 l 1
 1157 1156 l 2
 1155 1151 1152 1145 1150 1140 c 1
 1136.41 1148.16 1123.22 1156.54 1110 1165 c 0
 1043 1209 927 1242 797 1251 c 1
 792 876 l 1
 853 860 l 1
 1075 797 1292 699 1246 422 c 1
 1246 152 1048 12 781 -14 c 1
 778 -196 l 1
 639 -196 l 1
 641 -17 l 1
784 237 m 1
 905 255 972 314 972 423 c 0
 972 537 913 582 789 618 c 1xf6
 784 237 l 1
EndSplineSet
EndChar

StartChar: percent
Encoding: 37 37 6
Width: 2010
Flags: W
HStem: -27 193<1371.15 1574.58> 587 193<1357.12 1572.85> 650 193<423.152 632.069> 1259 193<426.326 632.265>
VStem: 160 217<891.609 1208.48> 684 229<894.993 1209.84> 1089 231<216.844 553.47> 1625 216<218.261 536.123>
LayerCount: 2
Fore
SplineSet
684 1052 m 0xbf
 684 1176 636 1259 530 1259 c 0
 424 1259 377 1174 377 1050 c 0
 377 926 422 843 529 843 c 0
 635 843 684 930 684 1052 c 0xbf
1580 1450 m 1
 1575 1442 1570 1435 1565 1427 c 2
 642 -41 l 1
 388 -41 l 1
 1319 1443 l 2
 1321 1445 1321 1448 1323 1450 c 1
 1580 1450 l 1
160 1049 m 0
 160 1272 298 1452 531 1452 c 0
 776 1452 913 1277 913 1053 c 2
 913 1051 l 2
 913 829 764 650 526 650 c 0
 291 650 160 827 160 1049 c 0
1089 373 m 1
 1052 607 1207 780 1460 780 c 0xdf
 1714 780 1841 603 1841 378 c 0
 1841 156 1702 -27 1471 -27 c 0
 1230 -27 1089 151 1089 373 c 1
1625 379 m 0
 1625 504 1578 587 1459 587 c 0
 1339 587 1320 501 1320 373 c 0
 1320 248 1367 166 1474 166 c 0
 1580 166 1625 254 1625 379 c 0
EndSplineSet
EndChar

StartChar: ampersand
Encoding: 38 38 7
Width: 1616
Flags: W
HStem: -33 237<457.122 819.876> 1273 220<546.992 764.695>
VStem: 96 269<291.597 580.616> 271 246<1000.04 1242.46> 793 267<1025.82 1246.42>
LayerCount: 2
Fore
SplineSet
658 1273 m 0xd8
 574 1273 517 1233 517 1136 c 0
 517 1051 562 989 616 930 c 1
 703 979 793 1033 793 1142 c 0
 793 1233 738 1273 658 1273 c 0xd8
632 204 m 0
 725 204 816 236 899 293 c 1
 547 701 l 1
 445 641 365 566 365 433 c 0xe8
 365 260 489 204 632 204 c 0
1413 528 m 1
 1366 436 1311 350 1244 274 c 1
 1456 50 l 1
 1205 -28 l 1
 1159 20 1113 68 1067 116 c 1
 930 15 777 -33 625 -33 c 0
 375 -33 96 80 96 407 c 0xe8
 96 626 243 753 408 843 c 1
 332 930 271 1016 271 1145 c 0xd8
 271 1390 463 1493 656 1493 c 0
 840 1493 1060 1401 1060 1163 c 0
 1060 969 903 859 760 786 c 1
 1077 447 l 1
 1133 511 1176 584 1215 660 c 1
 1413 528 l 1
EndSplineSet
EndChar

StartChar: quoteright
Encoding: 257 8217 8
Width: 575
Flags: W
HStem: 973 520<232 318>
VStem: 114 377
LayerCount: 2
Fore
SplineSet
318 973 m 1
 114 973 l 1
 232 1493 l 1
 491 1493 l 1
 318 973 l 1
EndSplineSet
EndChar

StartChar: parenleft
Encoding: 40 40 9
Width: 645
Flags: W
HStem: 1490 20G<323.5 663>
VStem: 118 259<287.5 980.816>
LayerCount: 2
Fore
SplineSet
398 -231 m 1
 257 -8 118 271 118 630 c 2
 118 631 l 2
 118 1004 252 1276 395 1510 c 1
 663 1510 l 1
 616 1459 l 1
 478 1231 377 966 377 634 c 0
 377 305 488 31 617 -180 c 1
 664 -231 l 1
 398 -231 l 1
EndSplineSet
EndChar

StartChar: parenright
Encoding: 41 41 10
Width: 645
Flags: W
HStem: 1490 20G<72 411.5>
VStem: 358 258<288.574 981.683>
LayerCount: 2
Fore
SplineSet
616 631 m 0
 616 271 477 -8 336 -231 c 1
 70 -231 l 1
 120 -177 l 1
 251 38 358 306 358 633 c 0
 358 965 254 1235 119 1459 c 1
 72 1510 l 1
 340 1510 l 1
 483 1275 616 1004 616 631 c 0
EndSplineSet
EndChar

StartChar: asterisk
Encoding: 42 42 11
Width: 1067
Flags: W
LayerCount: 2
Fore
SplineSet
1034 991 m 0
 1038.13 978.616 1045.29 967.412 1051 956 c 1
 703 835 l 1
 777 746 848 659 921 578 c 1
 956 548 l 1
 910 519 l 1
 909 519 l 1
 858 488 814 463 768 433 c 1
 736 413 l 1
 543 712 l 1
 354 413 l 1
 136 545 l 1
 386 835 l 1
 39 957 l 1
 153 1164 l 1
 450 1019 l 1
 424 1359 l 1
 666 1359 l 1
 643 1019 l 1
 933 1161 l 1
 954 1140 l 1
 956 1136 958 1133 960 1129 c 0
EndSplineSet
EndChar

StartChar: plus
Encoding: 43 43 12
Width: 1445
Flags: W
HStem: 450 219<172 593 834 1257> 1047 20G<596 834>
VStem: 593 239<52 450 669 1067>
LayerCount: 2
Fore
SplineSet
172 450 m 1
 171 669 l 1
 596 669 l 1
 596 1067 l 1
 834 1067 l 1
 834 669 l 1
 1257 669 l 1
 1257 450 l 1
 832 450 l 1
 832 52 l 1
 593 52 l 1
 593 450 l 1
 172 450 l 1
EndSplineSet
EndChar

StartChar: comma
Encoding: 44 44 13
Width: 559
Flags: W
HStem: -316 550<174 256>
VStem: 55 381
LayerCount: 2
Fore
SplineSet
174 234 m 1
 436 234 l 1
 256 -316 l 1
 55 -316 l 1
 174 234 l 1
EndSplineSet
EndChar

StartChar: hyphen
Encoding: 45 45 14
Width: 883
Flags: W
HStem: 423 214<153 731>
VStem: 153 578<423 637>
LayerCount: 2
Fore
SplineSet
731 423 m 1
 153 423 l 1
 153 637 l 1
 731 637 l 1
 731 423 l 1
EndSplineSet
EndChar

StartChar: period
Encoding: 46 46 15
Width: 559
Flags: W
HStem: -61 309<126 432>
VStem: 126 306<-61 248>
LayerCount: 2
Fore
SplineSet
432 -61 m 1
 126 -61 l 1
 126 248 l 1
 432 248 l 1
 432 -61 l 1
EndSplineSet
EndChar

StartChar: slash
Encoding: 47 47 16
Width: 737
Flags: W
HStem: 1451 20G<569.429 822>
LayerCount: 2
Fore
SplineSet
822 1471 m 1
 175 -225 l 1
 -65 -225 l 1
 577 1471 l 1
 822 1471 l 1
EndSplineSet
EndChar

StartChar: zero
Encoding: 48 48 17
Width: 1205
Flags: W
HStem: -18 245<497.977 741.417> 1254 245<487.2 743.996>
VStem: 66 289<412.207 1063.72> 877 287<415.833 1064.77>
LayerCount: 2
Fore
SplineSet
877 745 m 0
 877 997 824 1254 615 1254 c 0
 411 1254 355 1004 353 760 c 1
 355 760 l 1
 355 745 l 2
 355 490 406 227 616 227 c 0
 825 227 877 492 877 745 c 0
1164 737 m 0
 1164 363 1042 -18 615 -18 c 0
 188 -18 66 363 66 737 c 0
 66 1112 190 1499 615 1499 c 0
 1040 1499 1164 1111 1164 737 c 0
EndSplineSet
EndChar

StartChar: one
Encoding: 49 49 18
Width: 1236
Flags: W
HStem: -15 21G<527 825> 1065 21G<272 293> 1437 20G<521.5 825>
VStem: 527 298<-15 1185>
LayerCount: 2
Fore
SplineSet
272 1298 m 1
 284 1304 471 1399 572 1457 c 1
 825 1457 l 1
 825 -15 l 1
 527 -15 l 1
 527 1185 l 1
 434 1136 294 1074 293 1074 c 2
 272 1065 l 1
 272 1298 l 1
EndSplineSet
EndChar

StartChar: two
Encoding: 50 50 19
Width: 1234
Flags: W
HStem: -15 232<495 1084> 1090 21G<205.983 230> 1243 246<364.584 734.206>
VStem: 809 287<889.861 1169.77>
LayerCount: 2
Fore
SplineSet
119 1327 m 1
 238 1425 371 1489 573 1489 c 0
 871 1489 1096 1338 1096 1057 c 0
 1096 813 936 661 804 537 c 1
 495 217 l 1
 1084 217 l 1
 1084 -15 l 1
 124 -15 l 1
 124 220 l 1
 614 711 l 1
 707 806 809 905 809 1032 c 0
 809 1171 728 1243 567 1243 c 0
 432 1243 329 1194 230 1105 c 1
 214 1090 l 1
 119 1327 l 1
EndSplineSet
EndChar

StartChar: three
Encoding: 51 51 20
Width: 1223
Flags: W
HStem: -18 245<333.911 754.245> 628 245<341 686.476> 1243 244<336.442 733.102>
VStem: 781 296<952.063 1196.35> 834 286<304.828 543.134>
LayerCount: 2
Fore
SplineSet
96 1350 m 1xf0
 229 1441 383 1487 589 1487 c 0
 852 1487 1077 1347 1077 1096 c 0xf0
 1077 935 998 825 888 762 c 1
 1027 706 1126 590 1120 418 c 1
 1120 130 852 -18 552 -18 c 0
 370 -18 210 27 97 126 c 1
 190 354 l 1
 294 279 404 227 551 227 c 0
 727 227 834 287 834 418 c 1xe8
 840 606 648 624 382 628 c 1
 341 628 l 1
 341 873 l 1
 382 873 l 2
 627 873 781 900 781 1074 c 0
 781 1199 715 1243 554 1243 c 0
 407 1243 296 1193 191 1116 c 1
 96 1350 l 1xf0
EndSplineSet
EndChar

StartChar: four
Encoding: 52 52 21
Width: 1376
Flags: W
HStem: -10 21G<814 1086> 331 236<422 800 1086 1270> 1467 20G<787.397 1086>
VStem: 800 286<-10 331 567 1118>
LayerCount: 2
Fore
SplineSet
800 566 m 1
 800 1118 l 1
 674 930 545 748 422 567 c 1
 800 566 l 1
1086 1487 m 1
 1086 567 l 1
 1270 567 l 1
 1270 331 l 1
 1086 331 l 1
 1086 -10 l 1
 814 -10 l 1
 814 331 l 1
 104 331 l 1
 104 531 l 1
 802 1487 l 1
 1086 1487 l 1
EndSplineSet
EndChar

StartChar: five
Encoding: 53 53 22
Width: 1274
Flags: W
HStem: -18 238<408.394 783.178> 735 233<479.763 810.311> 1217 240<505 1111>
VStem: 902 273<330.944 644.178>
LayerCount: 2
Fore
SplineSet
642 735 m 0
 539 735 472 702 416 656 c 1
 215 681 l 1
 280 1457 l 1
 1111 1457 l 1
 1111 1217 l 1
 505 1217 l 1
 478 936 l 1
 539 956 602 968 676 968 c 0
 982 968 1175 776 1175 494 c 0
 1175 179 941 -18 604 -18 c 0
 410 -18 258 46 155 135 c 1
 129 156 l 1
 251 344 l 1
 282 327 l 1
 380 277 468 220 608 220 c 0
 798 220 902 324 902 492 c 0
 902 646 814 735 642 735 c 0
EndSplineSet
EndChar

StartChar: six
Encoding: 54 54 23
Width: 1216
Flags: W
HStem: -18 236<434.511 767.417> 705 228<558.746 778.827> 1437 20G<618.5 1045>
VStem: 70 264<311.126 609.161> 876 276<322.001 606.707>
LayerCount: 2
Fore
SplineSet
876 461 m 0
 876 615 781 705 606 705 c 0
 431 705 334 611 334 457 c 0
 334 308 431 218 600 218 c 0
 771 218 876 314 876 461 c 0
1045 1457 m 1
 557 922 l 1
 592 930 623 933 660 933 c 0
 957 933 1152 746 1152 468 c 0
 1152 170 922 -18 608 -18 c 0
 283 -18 70 166 70 468 c 0
 70 653 139 775 220 888 c 1
 364 1085 533 1254 704 1457 c 1
 1045 1457 l 1
EndSplineSet
EndChar

StartChar: seven
Encoding: 55 55 24
Width: 1231
Flags: W
HStem: -15 21G<247 554.62> 1221 236<94 782>
LayerCount: 2
Fore
SplineSet
1105 1457 m 1
 1105 1282 l 1
 546 -15 l 1
 247 -15 l 1
 782 1221 l 1
 94 1221 l 1
 94 1457 l 1
 1105 1457 l 1
EndSplineSet
EndChar

StartChar: eight
Encoding: 56 56 25
Width: 1241
Flags: W
HStem: -18 245<455.97 785.375> 1243 255<453.856 782.583>
VStem: 97 287<299.058 572.234> 124 267<943.335 1180.44> 850 268<941.528 1180.33> 857 287<301.266 568.695>
LayerCount: 2
Fore
SplineSet
621 1243 m 0xd8
 485 1243 391 1183 391 1076 c 0
 391 939 481 881 621 849 c 1
 766 883 850 940 850 1076 c 0
 850 1183 757 1243 621 1243 c 0xd8
621 227 m 0
 774 227 857 296 857 431 c 0
 858 576 755 645 621 681 c 1
 482 644 384 575 384 431 c 0xe4
 384 296 468 227 621 227 c 0
1144 399 m 1
 1144 121 903 -18 621 -18 c 0
 337 -18 97 123 97 400 c 0xe4
 97 581 193 702 326 770 c 1
 207 834 124 944 124 1108 c 0
 124 1372 353 1498 621 1498 c 0
 891 1498 1118 1371 1118 1108 c 0xd8
 1118 946 1039 835 929 770 c 1
 1060 699 1145 577 1144 399 c 1
EndSplineSet
EndChar

StartChar: nine
Encoding: 57 57 26
Width: 1164
Flags: W
HStem: -10 21G<105 532.5> 530 228<370.02 590.289> 1254 234<383.97 714.379>
VStem: -2 274<858.607 1147.09> 816 263<859.141 1158.13>
LayerCount: 2
Fore
SplineSet
543 758 m 0
 718 758 816 855 816 1011 c 0
 816 1163 718 1254 548 1254 c 0
 378 1253 272 1156 272 1007 c 0
 272 850 368 758 543 758 c 0
105 -10 m 1
 592 541 l 1
 558 534 525 530 489 530 c 0
 192 530 -2 718 -2 999 c 0
 -2 1300 227 1488 541 1488 c 0
 865 1488 1079 1304 1079 998 c 0
 1079 811 1012 684 930 571 c 1
 787 369 619 195 446 -10 c 1
 105 -10 l 1
EndSplineSet
EndChar

StartChar: colon
Encoding: 58 58 27
Width: 551
Flags: W
HStem: -32 284<134.672 415.328> 779 284<134.672 415.344>
VStem: 134 291<0.462189 252 779 1030.58>
LayerCount: 2
Fore
SplineSet
416 764 m 1
 374 769 l 1
 305 774 235 779 165 779 c 2
 122 779 l 1
 125 840 l 1
 131 914 134 984 134 1053 c 2
 134 1076 l 1
 177 1073 l 1
 246 1067 313 1063 385 1063 c 2
 439 1063 l 1
 425 1034 l 1
 419 961 416 893 416 828 c 2
 416 764 l 1
416 -45 m 1
 373 -42 l 1
 304 -36 237 -32 165 -32 c 2
 111 -32 l 1
 125 -3 l 1
 131 71 134 136 134 202 c 2
 134 265 l 1
 177 262 l 1
 246 256 313 252 385 252 c 2
 428 252 l 1
 425 191 l 1
 419 117 416 47 416 -22 c 2
 416 -45 l 1
EndSplineSet
EndChar

StartChar: semicolon
Encoding: 59 59 28
Width: 559
Flags: W
HStem: 770 284<142.672 422.328>
VStem: 142 281<770 1054>
LayerCount: 2
Fore
SplineSet
196 254 m 1
 459 254 l 1
 278 -296 l 1
 77 -296 l 1
 196 254 l 1
423 799 m 2
 423 757 l 1
 380 760 l 1
 311 766 244 770 172 770 c 2
 129 770 l 1
 132 813 l 1
 138 884 142 950 142 1024 c 2
 142 1067 l 1
 185 1064 l 1
 254 1058 320 1054 392 1054 c 2
 435 1054 l 1
 432 1011 l 2
 426 936 423 866 423 799 c 2
EndSplineSet
EndChar

StartChar: less
Encoding: 60 60 29
Width: 1426
Flags: W
LayerCount: 2
Fore
SplineSet
534 557 m 1
 1219 254 l 1
 1219 13 l 1
 194 487 l 1
 194 625 l 1
 1222 1112 l 1
 1222 870 l 1
 534 557 l 1
EndSplineSet
EndChar

StartChar: equal
Encoding: 61 61 30
Width: 1422
Flags: W
HStem: 273 217<172 1235> 629 218<171 1234>
LayerCount: 2
Fore
SplineSet
171 629 m 1
 171 847 l 1
 1234 847 l 1
 1234 629 l 1
 171 629 l 1
172 273 m 1
 172 490 l 1
 1235 490 l 1
 1235 273 l 1
 172 273 l 1
EndSplineSet
EndChar

StartChar: greater
Encoding: 62 62 31
Width: 1426
Flags: W
LayerCount: 2
Fore
SplineSet
880 562 m 1
 195 884 l 1
 195 1126 l 1
 1221 625 l 1
 1221 484 l 1
 190 24 l 1
 190 266 l 1
 880 562 l 1
EndSplineSet
EndChar

StartChar: question
Encoding: 63 63 32
Width: 1065
Flags: W
LayerCount: 2
Fore
SplineSet
656 667 m 0
 631 642 611 618 602 593 c 1
 602 591 l 1
 594 572 593 558 593 520 c 2
 593 372 l 1
 345 372 l 1
 342 409 l 2
 337 463 331 523 331 585 c 0
 331 681 391 744 444 789 c 0
 564 890 709 963 709 1112 c 0
 709 1219 628 1275 480 1275 c 0
 361 1275 297 1237 226 1196 c 2
 185 1172 l 1
 113 1370 l 1
 138 1386 l 1
 226 1448 343 1498 501 1498 c 0
 756 1498 954 1371 954 1118 c 0
 954 1009 913 928 861 864 c 0
559 191 m 1
 383 191 l 1
 383 42 l 1
 559 42 l 1
 559 191 l 1
EndSplineSet
EndChar

StartChar: at
Encoding: 64 64 33
Width: 1801
Flags: W
HStem: -240 199<692.166 1208.1> 112 199<1189.72 1343.21> 129 205<734.628 917.875> 827 193<850.736 1070> 1179 200<686.969 1167.61>
VStem: 120 217<316.882 757.446> 477 231<351.73 664.637> 1448 215<445.897 904.719>
LayerCount: 2
Fore
SplineSet
820 334 m 1xbf
 985 343 1035 607 1072 821 c 1
 1041 826 1009 827 977 827 c 0
 819 827 708 657 708 472 c 0
 708 381 741 334 811 334 c 2
 820 334 l 1xbf
924 1179 m 1
 839.855 1284.18 529.142 1033.06 501 1006 c 1
 468 1041 337 663 337 571 c 0
 337 195 571 -41 951 -41 c 0
 1133 -41 1276 16 1379 99 c 2
 1406 121 l 1
 1530 -21 l 1
 1499 -48 l 1
 1368 -165 1180 -240 949 -240 c 0
 705 -240 490 -149 358 -18 c 1
 219 116 120 314 120 571 c 0
 120 818 226 1013 357 1144 c 1
 483 1275 691 1379 931 1379 c 0
 1143 1379 1317 1299 1436 1188 c 1
 1564 1075 1663 903 1663 674 c 0
 1663 432 1547 245 1386 157 c 0
 1333 127 1276 112 1217 112 c 0xdf
 1122 112 1051 153 1016 228 c 1
 959 168 887 129 789 129 c 0xbf
 587 129 477 289 477 481 c 0
 477 772 698 1020 977 1020 c 0
 1092 1020 1187 988 1270 960 c 2
 1303 949 l 1
 1296 914 l 1
 1263 762 1223 603 1197 454 c 0
 1191 417 1188 389 1188 374 c 0
 1188 320 1198 311 1241 311 c 0xdf
 1374 311 1448 496 1448 677 c 0
 1448 997 1246 1179 930 1179 c 2
 924 1179 l 1
EndSplineSet
EndChar

StartChar: A
Encoding: 65 65 34
Width: 1354
Flags: W
HStem: 0 21G<18 305.143 1084.81 1374> 434 225<534 856> 1435 20G<564.385 827.615>
LayerCount: 2
Fore
SplineSet
856 659 m 1
 698 1149 l 1
 534 659 l 1
 856 659 l 1
936 434 m 1
 453 434 l 1
 298 0 l 1
 18 0 l 1
 572 1455 l 1
 820 1455 l 1
 1374 0 l 1
 1092 0 l 1
 936 434 l 1
EndSplineSet
EndChar

StartChar: B
Encoding: 66 66 35
Width: 1406
Flags: W
HStem: 0 222<471 944.481> 664 218<472 924.39> 1232 223<472 896.859>
VStem: 172 299<222 664 882 1232> 974 289<931.626 1169.94> 1035 276<307.138 591.284>
LayerCount: 2
Fore
SplineSet
743 664 m 2xf4
 471 664 l 1
 471 222 l 5
 693 222 l 6
 917 222 1035 269.075 1035 441 c 0
 1035 612 948 664 743 664 c 2xf4
613 1232 m 2
 472 1232 l 1
 472 882 l 1
 721 883 l 2
 886 883 974 918 974 1039 c 0xf8
 974 1216.52 847 1232 613 1232 c 2
1311 430 m 0xf4
 1311 117.365 1062 0 723 0 c 6
 172 0 l 5
 172 1455 l 1
 642 1455 l 2
 952 1455 1263 1383.92 1263 1059 c 0xf8
 1263 934 1194 842 1091 788 c 1
 1239 722 1311 594 1311 430 c 0xf4
EndSplineSet
EndChar

StartChar: C
Encoding: 67 67 36
Width: 1417
Flags: W
HStem: -20 245<661.587 1062.7> 1096 21G<1157.5 1225.05> 1233 245<665.868 1052.55>
VStem: 96 307<497.212 953.054>
LayerCount: 2
Fore
SplineSet
1311 119 m 5
 1146 27 976 -20 824 -20 c 4
 436 -20 96 278.794 96 733 c 0
 96 1194 450 1478 831 1478 c 0
 985 1478 1154 1431 1312 1332 c 1
 1217 1096 l 1
 1098 1183 968 1233 847 1233 c 0
 612 1233 403 1040 403 732 c 0
 403 396.677 610 225 850 225 c 4
 969 225 1099 273 1216 352 c 5
 1311 119 l 5
EndSplineSet
EndChar

StartChar: D
Encoding: 68 68 37
Width: 1587
Flags: W
HStem: 0 242<470 912.645> 1210 245<470 913.576>
VStem: 172 298<242 1210> 1178 307<496.732 967.824>
LayerCount: 2
Fore
SplineSet
586 1210 m 2
 470 1210 l 1
 470 242 l 5
 672 242 l 6
 999 242 1178 410.762 1178 721 c 0
 1178 1089.77 987 1210 586 1210 c 2
654 0 m 6
 172 0 l 5
 172 1455 l 1
 564 1455 l 2
 1109 1455 1485 1258.66 1485 725 c 0
 1485 249.722 1144 0 654 0 c 6
EndSplineSet
EndChar

StartChar: E
Encoding: 69 69 38
Width: 1268
Flags: W
HStem: 0 238<473 1148> 641 238<473 1091> 1217 238<473 1118>
VStem: 172 301<238 641 879 1217>
LayerCount: 2
Fore
SplineSet
1118 1217 m 1
 473 1217 l 1
 473 879 l 1
 1091 879 l 1
 1091 641 l 1
 473 641 l 1
 473 238 l 5
 1168 238 l 5
 1148 0 l 5
 172 0 l 5
 172 1455 l 1
 1138 1455 l 1
 1118 1217 l 1
EndSplineSet
EndChar

StartChar: F
Encoding: 70 70 39
Width: 1168
Flags: W
HStem: 0 21G<172 443> 626 237<443 1074> 1217 238<442 1093>
VStem: 172 271<0 626 863 1217>
LayerCount: 2
Fore
SplineSet
1093 1217 m 1
 442 1217 l 1
 442 863 l 1
 1074 863 l 1
 1074 626 l 1
 443 626 l 1
 443 0 l 5
 172 0 l 5
 172 1455 l 1
 1116 1455 l 1
 1093 1217 l 1
EndSplineSet
EndChar

StartChar: G
Encoding: 71 71 40
Width: 1541
Flags: W
HStem: -20 245<638.699 1072.79> 573 228<771 1108> 1092 21G<1207 1231.48> 1233 245<655.785 1081.22>
VStem: 100 307<484.542 978.052> 1108 245<264.77 573>
LayerCount: 2
Fore
SplineSet
1353 144 m 1
 1204 55.9259 1052 -20 833 -20 c 4
 395 -20 100 303.86 100 733 c 0
 100 1158 406 1478 853 1478 c 0
 1042 1478 1196 1423 1318 1316 c 1
 1223 1092 l 1
 1207 1106 l 2
 1114 1187 1007 1233 878 1233 c 0
 555 1233 407 1027 407 732 c 0
 407 434.828 547 225 840 225 c 4
 945 225 1041 251.929 1108 283 c 1
 1108 573 l 1
 771 573 l 1
 771 801 l 1
 1353 801 l 1
 1353 144 l 1
EndSplineSet
EndChar

StartChar: H
Encoding: 72 72 41
Width: 1562
Flags: W
HStem: 0 21G<174 472 1088 1386> 635 230<472 1088> 1435 20G<174 472 1088 1386>
VStem: 174 298<0 635 865 1455> 1088 298<0 635 865 1455>
LayerCount: 2
Fore
SplineSet
1386 1455 m 1
 1386 0 l 5
 1088 0 l 5
 1088 635 l 1
 472 635 l 1
 472 0 l 1
 174 0 l 1
 174 1455 l 1
 472 1455 l 1
 472 865 l 1
 1088 865 l 1
 1088 1455 l 1
 1386 1455 l 1
EndSplineSet
EndChar

StartChar: I
Encoding: 73 73 42
Width: 638
Flags: W
HStem: 0 21G<170 468> 1435 20G<170 468>
VStem: 170 298<0 1455>
LayerCount: 2
Fore
SplineSet
468 0 m 5
 170 0 l 5
 170 1455 l 1
 468 1455 l 1
 468 0 l 5
EndSplineSet
EndChar

StartChar: J
Encoding: 74 74 43
Width: 755
Flags: W
HStem: -20 221<55 273.452> 1435 20G<311 582>
VStem: 311 271<227.036 1455>
LayerCount: 2
Fore
SplineSet
144 201 m 2
 289.5 201 311 243.862 311 400 c 2
 311 1455 l 1
 582 1455 l 1
 582 449 l 2
 582 122.608 480 -20 125 -20 c 2
 55 -20 l 1
 55 201 l 1
 144 201 l 2
EndSplineSet
EndChar

StartChar: K
Encoding: 75 75 44
Width: 1313
Flags: W
HStem: 0 21G<172 443 1034.6 1398> 1435 20G<172 443 894 1325>
VStem: 172 271<0 603 831 1455>
LayerCount: 2
Fore
SplineSet
443 0 m 5
 172 0 l 5
 172 1455 l 1
 443 1455 l 1
 443 831 l 1
 623 1038.66 804 1246.33 984 1455 c 1
 1325 1455 l 1
 701 773 l 1
 1398 0 l 1
 1051 0 l 1
 508 662 l 1
 443 603 l 1
 443 0 l 5
EndSplineSet
EndChar

StartChar: L
Encoding: 76 76 45
Width: 1149
Flags: W
HStem: 0 238<442 1108> 1435 20G<172 442>
VStem: 172 270<238 1455>
LayerCount: 2
Fore
SplineSet
1108 238 m 5
 1108 0 l 5
 172 0 l 5
 172 1455 l 1
 442 1455 l 1
 442 238 l 5
 1108 238 l 5
EndSplineSet
EndChar

StartChar: M
Encoding: 77 77 46
Width: 1814
Flags: W
HStem: 0 21G<172 432 1381 1643> 1435 20G<172 465.014 1356.08 1643>
VStem: 172 260<0 978> 1381 262<0 969>
LayerCount: 2
Fore
SplineSet
1381 969 m 1
 1025 166 l 1
 797 166 l 1
 432 978 l 1
 432 0 l 5
 172 0 l 5
 172 1455 l 1
 456 1455 l 1
 913 441 l 1
 1365 1455 l 1
 1643 1455 l 1
 1643 0 l 5
 1381 0 l 5
 1381 969 l 1
EndSplineSet
EndChar

StartChar: N
Encoding: 78 78 47
Width: 1569
Flags: W
HStem: 0 21G<167 422 1110.85 1393> 1435 20G<167 443.051 1136 1392.01>
VStem: 167 255<0 1068> 1136 257<370 1455>
LayerCount: 2
Fore
SplineSet
422 1068 m 5
 422 0 l 5
 167 0 l 5
 167 1455 l 5
 430 1455 l 5
 1123 393 l 5
 1136 370 l 5
 1136 1455 l 5
 1392 1455 l 5
 1393 0 l 5
 1124 0 l 5
 422 1068 l 5
EndSplineSet
EndChar

StartChar: O
Encoding: 79 79 48
Width: 1662
Flags: W
HStem: -20 245<644.053 1018.06> 1233 245<643.675 1018.44>
VStem: 96 307<495.36 955.933> 1260 307<495.36 955.933>
LayerCount: 2
Fore
SplineSet
831 1478 m 0
 1251 1478 1567 1161 1567 727 c 0
 1567 296.848 1250 -20 831 -20 c 0
 412 -20 96 296.848 96 727 c 0
 96 1161 411 1478 831 1478 c 0
831 1233 m 0
 548 1233 403 979 403 722 c 0
 403 463.962 549 225 831 225 c 0
 1113 225 1260 463.962 1260 722 c 0
 1260 979 1114 1233 831 1233 c 0
EndSplineSet
EndChar

StartChar: P
Encoding: 80 80 49
Width: 1320
Flags: W
HStem: 0 21G<172 442> 553 232<443 904.671> 1217 238<442 916.109>
VStem: 172 270<0 553 785 1217> 1018 263<882.788 1123.04>
LayerCount: 2
Fore
SplineSet
1018 1003 m 0
 1018 1152.49 891 1217 678 1217 c 2
 442 1217 l 1
 443 785 l 1
 703 785 l 2
 896 785 1018 865 1018 1003 c 0
442 0 m 5
 172 0 l 5
 172 1455 l 1
 657 1455 l 2
 1007 1455 1281 1329.6 1281 1006 c 0
 1281 705 1018 553 684 553 c 2
 442 553 l 1
 442 0 l 5
EndSplineSet
EndChar

StartChar: Q
Encoding: 81 81 50
Width: 1659
Flags: W
HStem: -19 247<625.855 914.539> 1233 244<625.903 1032.83>
VStem: 100 287<481.517 980.394> 1273 285<487.436 978.356>
LayerCount: 2
Fore
SplineSet
830 228 m 0
 1132 228 1273 436 1273 735 c 0
 1273 1031 1129 1233 830 1233 c 0
 529 1233 387 1031 387 735 c 0
 387 436 528 228 830 228 c 0
1358 -245 m 2
 1362 -248 1365 -252 1369 -255 c 1
 1208 -434 l 1
 1179 -405 l 1
 1076 -296 977 -162 907 -14 c 1
 880 -17.3333 856 -19 829 -19 c 4
 372 -19 100 288.824 100 728 c 0
 100 1169.82 371 1477 829 1477 c 0
 1288 1477 1558 1165.83 1558 723 c 0
 1558 392 1406 136 1135 28 c 1
 1190 -73 1259 -155 1340 -228 c 1
 1358 -245 l 2
EndSplineSet
EndChar

StartChar: R
Encoding: 82 82 51
Width: 1421
Flags: W
HStem: -20 41G<172 444 1084.09 1379> 605 235<445 755.128> 1218 237<445 948.159>
VStem: 172 272<0 605 840 1218> 1016 279<915.169 1151.25>
LayerCount: 2
Fore
SplineSet
730 1218 m 2
 445 1218 l 1
 445 840 l 1
 689 840 l 2
 899 840 1016 888 1016 1037 c 0
 1016 1169.11 923 1218 730 1218 c 2
444 0 m 1
 172 0 l 1
 172 1455 l 1
 649 1455 l 2
 986 1455 1295 1388.88 1295 1043 c 0
 1295 847 1184 725 1017 671 c 1
 1063 628 1105 584 1134 525 c 1
 1379 -20 l 1
 1094 -20 l 1
 869 434 l 1
 837 500 798 555 757 598 c 1
 717 603 681 605 635 605 c 2
 444 605 l 1
 444 0 l 1
EndSplineSet
EndChar

StartChar: S
Encoding: 83 83 52
Width: 1292
Flags: W
HStem: -20 249<395.708 857.407> 1233 244<478.109 938.036>
VStem: 139 270<968.541 1173.17> 933 274<299.91 531.151>
LayerCount: 2
Fore
SplineSet
674 1233 m 0
 511 1233 409 1183 409 1064 c 0
 409 965 489 935 600 901 c 1
 787 846 l 1
 990 784 1208 688 1207 416 c 1
 1207 118.636 960 -20 655 -20 c 4
 444 -20 280 34.8244 152 113 c 1
 123 131 l 1
 219 373 l 1
 260 342 l 1
 354 273.793 491 229 663 229 c 4
 833 229 933 286.603 933 420 c 0
 933 543 827 584 690 623 c 1
 510 676 l 1
 327 728 139 827 139 1064 c 0
 139 1343.65 384 1477 674 1477 c 0
 859 1477 1020 1436.69 1134 1360 c 1
 1161 1341 l 1
 1073 1136 l 2
 1071 1131 1068 1125 1066 1120 c 1
 1052.41 1128.16 1039.22 1136.54 1026 1145 c 0
 948 1197 815 1233 674 1233 c 0
EndSplineSet
EndChar

StartChar: T
Encoding: 84 84 53
Width: 1221
Flags: W
HStem: 0 21G<462 771> 1217 238<35 462 771 1199>
VStem: 462 309<0 1217>
LayerCount: 2
Fore
SplineSet
771 0 m 1
 462 0 l 1
 462 1217 l 1
 35 1217 l 1
 35 1455 l 1
 1199 1455 l 1
 1199 1217 l 1
 771 1217 l 1
 771 5 l 1
 771 0 l 1
EndSplineSet
EndChar

StartChar: U
Encoding: 85 85 54
Width: 1502
Flags: W
HStem: -20 245<548.205 955.61> 1435 20G<164 435 1069 1340>
VStem: 164 271<345.475 1455> 1069 271<345.863 1455>
LayerCount: 2
Fore
SplineSet
752 225 m 4
 994 225 1069 327.607 1069 563 c 2
 1069 1455 l 1
 1340 1455 l 1
 1340 548 l 2
 1340 182.714 1146 -20 752 -20 c 4
 357 -20 164 181.71 164 548 c 2
 164 1455 l 1
 435 1455 l 1
 435 563 l 2
 435 327.607 510 225 752 225 c 4
EndSplineSet
EndChar

StartChar: V
Encoding: 86 86 55
Width: 1333
Flags: W
HStem: 0 21G<542.33 835.354> 1435 20G<-8 349.5 1019 1363>
LayerCount: 2
Fore
SplineSet
550 0 m 5
 -8 1455 l 1
 281 1455 l 1
 418 1067.33 554 678.659 692 293 c 1
 822 680.668 954 1067.33 1084 1455 c 1
 1363 1455 l 1
 828 0 l 5
 550 0 l 5
EndSplineSet
EndChar

StartChar: W
Encoding: 87 87 56
Width: 2152
Flags: W
HStem: 0 21G<439.158 733.432 1391.36 1689.53> 1420 35G<20 307.341 968.02 1213.04 1871.88 2158>
LayerCount: 2
Fore
SplineSet
596 354 m 1
 975 1440 l 5
 1207 1440 l 5
 1538 344 l 1
 1878 1455 l 1
 2158 1455 l 1
 1683 0 l 1
 1397 0 l 1
 1084 1110 l 1
 727 0 l 1
 445 0 l 1
 20 1455 l 1
 302 1455 l 1
 596 354 l 1
EndSplineSet
EndChar

StartChar: X
Encoding: 88 88 57
Width: 1313
Flags: W
HStem: 0 21G<-6 317.026 1048.15 1380> 1435 20G<32 360.649 1055.67 1373>
LayerCount: 2
Fore
SplineSet
1061 0 m 1
 685 585 l 1
 304 0 l 1
 -6 0 l 1
 534 742 l 1
 32 1455 l 5
 348 1455 l 5
 699 900 l 1
 1069 1455 l 5
 1373 1455 l 5
 854 742 l 1
 1380 0 l 1
 1061 0 l 1
EndSplineSet
EndChar

StartChar: Y
Encoding: 89 89 58
Width: 1278
Flags: W
HStem: 0 21G<528 825> 1435 20G<-6 298.157 1033.66 1343>
VStem: 528 297<0 575>
LayerCount: 2
Fore
SplineSet
287 1455 m 1
 663 781 l 1
 1045 1455 l 1
 1343 1455 l 1
 825 575 l 1
 825 0 l 5
 528 0 l 5
 528 575 l 1
 -6 1455 l 1
 287 1455 l 1
EndSplineSet
EndChar

StartChar: Z
Encoding: 90 90 59
Width: 1246
Flags: W
HStem: 0 238<399 1179> 1217 238<76 815>
LayerCount: 2
Fore
SplineSet
815 1217 m 1
 76 1217 l 1
 76 1455 l 1
 1187 1455 l 1
 1187 1284 l 1
 399 238 l 1
 1179 238 l 1
 1179 0 l 1
 43 0 l 1
 43 186 l 1
 815 1217 l 1
EndSplineSet
EndChar

StartChar: bracketleft
Encoding: 91 91 60
Width: 645
Flags: W
HStem: -269 202<434 589> 1307 202<434 589>
VStem: 163 426<-269 -67 1307 1509> 163 271<-67 1307>
LayerCount: 2
Fore
SplineSet
434 -67 m 1xd0
 589 -67 l 1
 589 -269 l 1
 163 -269 l 1
 163 1509 l 1
 589 1509 l 1
 589 1307 l 1xe0
 434 1307 l 1
 434 -67 l 1xd0
EndSplineSet
EndChar

StartChar: backslash
Encoding: 92 92 61
Width: 722
Flags: W
HStem: 1451 20G<-91 164.6>
LayerCount: 2
Fore
SplineSet
156 1471 m 1
 844 -129 l 1
 599 -129 l 1
 -91 1471 l 1
 156 1471 l 1
EndSplineSet
EndChar

StartChar: bracketright
Encoding: 93 93 62
Width: 645
Flags: W
HStem: -269 202<163 318> 1307 202<163 318>
VStem: 163 426<-269 -67 1307 1509> 318 271<-67 1307>
LayerCount: 2
Fore
SplineSet
589 -269 m 1xe0
 163 -269 l 1
 163 -67 l 1xe0
 318 -67 l 1
 318 1307 l 1xd0
 163 1307 l 1
 163 1509 l 1
 589 1509 l 1
 589 -269 l 1xe0
EndSplineSet
EndChar

StartChar: asciicircum
Encoding: 94 94 63
Width: 1415
Flags: W
HStem: 1432 20G<631.167 791.965>
LayerCount: 2
Fore
SplineSet
148 540 m 1
 642 1452 l 1
 781 1452 l 1
 1281 540 l 1
 1043 540 l 1
 710 1170 l 1
 388 540 l 1
 148 540 l 1
EndSplineSet
EndChar

StartChar: underscore
Encoding: 95 95 64
Width: 990
Flags: W
HStem: -333 208<-19 1006>
LayerCount: 2
Fore
SplineSet
-19 -125 m 1
 1006 -125 l 1
 1006 -333 l 1
 -19 -333 l 1
 -19 -125 l 1
EndSplineSet
EndChar

StartChar: quoteleft
Encoding: 258 8216 65
Width: 575
Flags: W
HStem: 973 520<285 371>
VStem: 112 377
LayerCount: 2
Fore
SplineSet
489 973 m 1
 285 973 l 1
 112 1493 l 1
 371 1493 l 1
 489 973 l 1
EndSplineSet
EndChar

StartChar: a
Encoding: 97 97 66
Width: 1238
Flags: W
HStem: -20 205.906<402.572 677.198> 0 21G<868.52 1108> 463 174<443.422 803> 885 218<359.789 778.236>
VStem: 92 282<217.895 403.705> 803 305<240.009 463 637 858.191>
LayerCount: 2
Back
SplineSet
1135 0 m 5
 830 0 l 5
 830 1118 l 5
 1135 1118 l 5
 1135 0 l 5
EndSplineSet
Fore
SplineSet
706 463 m 2xbc
 512.414 463 374 441 374 310 c 0
 374 231.629 420.306 185.906 538.811 185.906 c 0
 649.706 185.906 722.323 220.244 803 263 c 1
 803 463 l 1
 706 463 l 2xbc
155 996 m 1
 274 1056 427 1103 635 1103 c 0
 903.863 1103 1108 1018 1108 774 c 2
 1108 0 l 1
 873 0 l 1x7c
 845 125 l 1
 738.484 45.9092 624.495 -20 475 -20 c 0
 253 -20 92 91.7158 92 292 c 0
 92 581 310 637 707 637 c 2
 803 637 l 1
 803 743 l 2
 803 849 761.604 885 640 885 c 0
 448 885 321 836 217 776 c 1
 155 996 l 1
EndSplineSet
EndChar

StartChar: b
Encoding: 98 98 67
Width: 1254
Flags: W
HStem: -20 218<525.133 766.576> 0 21G<79 382.704> 885 218<519.312 765.592> 1458 20G<82 387>
VStem: 82 320<329.191 750.625> 82 305<0 142 944 1478> 890.5 307.5<333.128 743.667>
LayerCount: 2
Back
SplineSet
709.501 885 m 0
 836.459 885 965.5 772 965.5 538 c 0
 965.5 308 837.5 198 709.501 198 c 0
 581.501 198 453.501 308 453.501 538 c 0
 453.501 772 582.542 885 709.501 885 c 0
709.501 -20 m 0
 1089.2 -20 1276.5 258 1276.5 538 c 0
 1276.5 817 1089.2 1103 709.501 1103 c 0
 329.804 1103 142.501 817 142.501 538 c 0
 142.501 258 329.804 -20 709.501 -20 c 0
EndSplineSet
Fore
SplineSet
890.5 538 m 0xba
 890.5 772 765.943 885 644 885 c 0
 524.282 885 402 772 402 538 c 0
 402 307.645 523.427 198 644 198 c 0
 766.814 198 890.5 307.645 890.5 538 c 0xba
79 0 m 1x76
 82 308 l 2
 82 1478 l 1
 387 1478 l 1
 387 944 l 1
 465.5 1043 568.531 1103 701 1103 c 0
 1028.81 1103 1198 803 1198 551 c 0
 1198 269.013 1038.42 -20 701 -20 c 0xb6
 564.9 -20 461.854 46.8252 387 142 c 1
 382 0 l 1
 79 0 l 1x76
EndSplineSet
EndChar

StartChar: c
Encoding: 99 99 68
Width: 1135
Flags: W
HStem: -20.0596 218.06<512.81 809.826> 885.161 218.062<517.264 815.789>
VStem: 81 311<338.409 742.707>
LayerCount: 2
Back
SplineSet
649.001 885 m 0
 771 885 895 772 895 538 c 0
 895 308 772 198 649.001 198 c 0
 526.001 198 403.001 308 403.001 538 c 0
 403.001 772 527.001 885 649.001 885 c 0
649.001 -20 m 0
 1022 -20 1206 258 1206 538 c 0
 1206 817 1022 1103 649.001 1103 c 0
 276.001 1103 92.001 817 92.001 538 c 0
 92.001 258 276.001 -20 649.001 -20 c 0
EndSplineSet
Fore
SplineSet
646 198 m 0
 751.87 198 857.577 253.322 932 347 c 1
 1074 157 l 1
 934.128 31.0273 786.995 -20.0596 630.474 -20.0596 c 0
 345.708 -20.0596 81 178.32 81 542 c 1
 81 896.297 343.976 1103.22 624.084 1103.22 c 0
 782.457 1103.22 939.094 1059.44 1066 919 c 1
 935 739 l 1
 866.868 830.488 761.001 885.161 645.545 885.161 c 4
 517.528 885.161 392 773.939 392 544 c 0
 392 303.61 515.473 198 646 198 c 0
EndSplineSet
EndChar

StartChar: d
Encoding: 100 100 69
Width: 1254
Flags: W
HStem: -20 218<488.844 717.367> 885 218<489.807 722.963>
VStem: 56 310<339.437 743.667> 846 306<329.348 750.625>
LayerCount: 2
Fore
SplineSet
366 538 m 0
 366 772 491 885 613 885 c 0
 728.181 885 846 772 846 538 c 0
 846 308 729.06 198 613 198 c 0
 490 198 366 308 366 538 c 0
1152 0 m 1
 1152 492.667 1152 985.333 1152 1478 c 1
 846 1478 l 1
 846 944 l 1
 773.217 1043 676.172 1103 553 1103 c 0
 225 1103 56 803 56 551 c 0
 56 269 216 -20 553 -20 c 0
 679.905 -20 776.016 47 846 142 c 1
 851 0 l 1
 1152 0 l 1
EndSplineSet
EndChar

StartChar: e
Encoding: 101 101 70
Width: 1219
Flags: W
HStem: -20 218<514.455 854.962> 467 174<400 823> 891 212<505.807 744.819>
VStem: 81 315<332.679 467 641 765.451>
LayerCount: 2
Back
SplineSet
659.001 885 m 4
 781 885 905 772 905 538 c 4
 905 308 782 198 659.001 198 c 4
 536.001 198 413.001 308 413.001 538 c 4
 413.001 772 537.001 885 659.001 885 c 4
659.001 -20 m 4
 1032 -20 1216 258 1216 538 c 4
 1216 817 1032 1103 659.001 1103 c 4
 286.001 1103 102.001 817 102.001 538 c 4
 102.001 258 286.001 -20 659.001 -20 c 4
EndSplineSet
Fore
SplineSet
400 641 m 1
 823 641 l 5
 805.652 795 748.652 891 633 891 c 4
 501.454 891 424.934 791 400 641 c 1
1093 141 m 1
 984.351 40.7549 852.212 -20 631 -20 c 0
 273.5 -20 81 254.98 81 541 c 0
 81 844 291.158 1103 628 1103 c 0
 956.34 1103 1121 858 1121 561 c 0
 1121 535 1120 508 1120 482 c 2
 1120 467 l 1
 396 467 l 1
 421.387 304.794 494.047 198 656 198 c 0
 810.715 198 903.928 258.916 976 331 c 1
 1093 141 l 1
EndSplineSet
EndChar

StartChar: f
Encoding: 102 102 71
Width: 888
Flags: W
HStem: 0 21G<261 566> 897 185<90 261 566 804> 1300 229<583.662 803>
VStem: 261 305<0 897 1082 1279.65>
LayerCount: 2
Back
SplineSet
513 0 m 1
 208 0 l 1
 208 1118 l 1
 513 1118 l 1
 513 0 l 1
EndSplineSet
Fore
SplineSet
683 1529 m 2
 803 1529 l 1
 803 1300 l 1
 683 1300 l 2
 565 1300 566 1247.34 566 1106 c 2
 566 1082 l 1
 804 1082 l 1
 804 897 l 1
 566 897 l 1
 566 0 l 1
 261 0 l 1
 261 897 l 1
 90 897 l 1
 90 1082 l 1
 261 1082 l 1
 261 1360.74 298.102 1529 683 1529 c 2
EndSplineSet
EndChar

StartChar: g
Encoding: 103 103 72
Width: 1338
Flags: W
HStem: -427 218<360 793.446> 0 216<489.52 778.47> 885 218<483.068 775.911> 1062 20G<909 1188>
VStem: 71 274<367.495 736.493> 909 279<-94.0532 144 350.789 749.844 952 1082>
LayerCount: 2
Back
SplineSet
632 1121 m 4
 1013 1121 1191 836.496 1191 556 c 4
 1191 276 1013 0 632 0 c 4
 251 0 73 276 73 556 c 4
 73 836.496 251 1121 632 1121 c 4
316 556 m 4
 316 309.995 474 188 632 188 c 4
 790 188 948 309.995 948 556 c 4
 948 806.66 790 933 632 933 c 4
 474 933 316 806.66 316 556 c 4
EndSplineSet
Fore
SplineSet
345 551 m 0xec
 345 326.651 490 216 632 216 c 4
 772 216 912 321.576 912 551 c 0
 912 778 771 885 631 885 c 0
 490 885 345 775 345 551 c 0xec
909 952 m 1
 909 1082 l 1
 1188 1082 l 1xdc
 1188 136 l 2
 1188 -266 972 -427 542 -427 c 2
 360 -427 l 1
 360 -209 l 1
 547 -209 l 2
 806 -209 909 -146.053 909 90 c 6
 909 144 l 5
 850 60 726 0 607 0 c 4
 243 0 71 282.518 71 561 c 0
 71 808 246 1103 588 1103 c 0
 721 1103 836 1055 909 952 c 1
EndSplineSet
EndChar

StartChar: h
Encoding: 104 104 73
Width: 1297
Flags: W
HStem: 0 21G<146 451 866 1172> 893.154 209.846<596.715 810.474> 1458.04 20G<146 451>
VStem: 146 305<0 764.657 937.559 1478> 866 306<0 841.922>
LayerCount: 2
Back
SplineSet
149 1478.04 m 5xd8
 454 1478 l 5xb8
 454 937.559 l 4
 537.181 1041.39 645.968 1103 796 1103 c 4
 1067.51 1103 1175 901 1175 637 c 6
 1175 0 l 5
 869 0 l 5
 869 610 l 6
 869.989 776.077 852.851 893.154 702.557 893.154 c 4
 577.611 893.154 479.125 776.349 454 657 c 5
 454 0 l 5
 149 0 l 5
 149 1478.04 l 5xd8
EndSplineSet
Fore
SplineSet
146 1478.04 m 1
 451 1478 l 1
 451 937.559 l 0
 534.181 1041.39 642.968 1103 793 1103 c 0
 1064.51 1103 1172 901 1172 637 c 2
 1172 0 l 1
 866 0 l 1
 866 610 l 2
 866.989 776.077 849.851 893.154 699.557 893.154 c 0
 574.611 893.154 476.125 776.349 451 657 c 1
 451 0 l 1
 146 0 l 1
 146 1478.04 l 1
EndSplineSet
EndChar

StartChar: i
Encoding: 105 105 74
Width: 607
Flags: W
HStem: 0 21G<154 459> 1062 20G<154 459> 1226 252<154 460>
VStem: 154 305<0 1082 1226 1478>
LayerCount: 2
Back
SplineSet
459 0 m 5
 154 0 l 5
 154 1118 l 5
 459 1118 l 5
 459 0 l 5
EndSplineSet
Fore
SplineSet
460 1226 m 5
 154 1226 l 5
 154 1478 l 5
 460 1478 l 5
 460 1226 l 5
459 0 m 5
 154 0 l 5
 154 1082 l 5
 459 1082 l 5
 459 0 l 5
EndSplineSet
EndChar

StartChar: j
Encoding: 106 106 75
AltUni2: 000458.ffffffff.0
Width: 602
Flags: W
HStem: -318 218<-54 119.825> 1062 20G<148 453> 1226 252<148 453>
VStem: 148 305<-72.2135 1082 1226 1478>
LayerCount: 2
Back
SplineSet
453 1226 m 5
 147 1226 l 5
 147 1478 l 5
 453 1478 l 5
 453 1226 l 5
452 0 m 1
 147 0 l 1
 147 1082 l 1
 452 1082 l 1
 452 0 l 1
EndSplineSet
Fore
SplineSet
453 1226 m 1
 148 1226 l 1
 148 1478 l 1
 453 1478 l 1
 453 1226 l 1
453 175 m 2
 453 -149 368.219 -318 -8 -318 c 2
 -54 -318 l 1
 -54 -100 l 1
 -15 -100 l 2
 133 -100 148 -62 148 102 c 2
 148 1082 l 1
 453 1082 l 1
 453 175 l 2
EndSplineSet
EndChar

StartChar: k
Encoding: 107 107 76
Width: 1273
Flags: W
HStem: 0 21G<154 432 868.717 1218> 1062 20G<858.974 1242> 1458 20G<154 433>
VStem: 154 279<0 467 692 1478>
LayerCount: 2
Fore
SplineSet
433 1478 m 5
 433 692 l 1
 882 1082 l 1
 1242 1082 l 1
 1238 1079 1235 1076 1231 1073 c 2
 705 631 l 1
 1218 0 l 1
 884 0 l 1
 492 513 l 1
 432 467 l 1
 432 0 l 1
 154 0 l 1
 154 1478 l 5
 433 1478 l 5
EndSplineSet
EndChar

StartChar: l
Encoding: 108 108 77
Width: 738
Flags: W
HStem: -9 218<481.545 708> 1458 20G<144 449>
VStem: 144 305<245.83 1478>
LayerCount: 2
Back
SplineSet
452 0 m 5
 147 0 l 5
 147 1082 l 5
 452 1082 l 5
 452 0 l 5
EndSplineSet
Fore
SplineSet
449 435 m 2
 449 270.731 449 209 646 209 c 6
 708 209 l 1
 708 -9 l 1
 626 -9 l 2
 195 -9 144 171 144 466 c 2
 144 1478 l 1
 449 1478 l 1
 449 435 l 2
EndSplineSet
EndChar

StartChar: m
Encoding: 109 109 78
Width: 1878
Flags: W
HStem: 0 21G<82 387 796 1101 1510 1815> 885 218<509.384 743.753 1219.38 1458.68> 1062 20G<79 372.361>
VStem: 82 305<0 762.021> 796 305<0 758.635> 1510 305<0 831.198>
CounterMasks: 1 1c
LayerCount: 2
Back
SplineSet
872 793 m 2xdc
 872 889.68 869 1063.29 869 1082 c 1
 1160 1082 l 1xbc
 1177 938 l 1
 1248.4 1042.91 1339.19 1103 1467 1103 c 0
 1630 1103 1742 1031 1803 919 c 1
 1894 1034 2012 1103 2180 1103 c 0
 2466 1103 2579 900 2579 637 c 2
 2579 0 l 1
 2300 0 l 1
 2300 532 l 2
 2300 749 2297 885 2137 885 c 0
 2014.91 885 1916.51 771.351 1891 665 c 1
 1891 0 l 1
 1586 0 l 1
 1586 532 l 1
 1588 732 1589 885 1423 885 c 0
 1300.9 885 1202.14 770.833 1177 662 c 1
 1177 0 l 1
 872 0 l 1
 872 793 l 2xdc
EndSplineSet
Fore
SplineSet
82 793 m 2xdc
 82 890 79 1063 79 1082 c 1
 370 1082 l 1xbc
 387 938 l 1
 458 1043 549 1103 677 1103 c 0
 840 1103 952 1031 1013 919 c 1
 1104 1034 1222 1103 1390 1103 c 0
 1695 1103 1815 900 1815 637 c 2
 1815 0 l 1
 1510 0 l 1
 1510 532 l 2
 1510 749 1507 885 1347 885 c 0
 1225 885 1127 771 1101 665 c 1
 1101 0 l 1
 796 0 l 1
 796 532 l 1
 798 732 799 885 633 885 c 0
 511 885 412 771 387 662 c 1
 387 0 l 1
 82 0 l 1
 82 793 l 2xdc
EndSplineSet
EndChar

StartChar: n
Encoding: 110 110 79
Width: 1171
Flags: W
HStem: 0 21G<82 387 802 1108> 893.154 209.846<532.715 746.474> 1062 20G<79 372.354>
VStem: 82 305<0 764.657> 802 306<0 841.922>
LayerCount: 2
Back
SplineSet
461 0 m 5
 156 0 l 5
 156 1082 l 5
 461 1082 l 5
 461 0 l 5
EndSplineSet
Fore
SplineSet
82 793 m 6xd8
 79 1082 l 5
 370 1082 l 5xb8
 387 937.559 l 4
 470.181 1041.39 578.968 1103 729 1103 c 4
 1000.51 1103 1108 901 1108 637 c 6
 1108 0 l 5
 802 0 l 5
 802 610 l 6
 802.989 776.077 785.851 893.154 635.557 893.154 c 4
 510.611 893.154 412.125 776.349 387 657 c 5
 387 0 l 5
 82 0 l 5
 82 793 l 6xd8
EndSplineSet
EndChar

StartChar: o
Encoding: 111 111 80
Width: 1206
Flags: W
HStem: -20 218<485.36 720.64> 885 218<485.572 720.428>
VStem: 56 311<331.018 747.305> 839 311<331.018 747.305>
LayerCount: 2
Back
SplineSet
496.5 548.55 m 0
 496.5 437.216 512.167 353.383 543.5 297.05 c 0
 574.834 240.716 625.834 212.55 696.5 212.55 c 0
 766.5 212.55 817.167 240.883 848.5 297.55 c 0
 879.833 354.216 895.5 437.883 895.5 548.55 c 0
 895.5 659.883 879.833 743.05 848.5 798.05 c 0
 817.166 853.05 765.833 880.55 694.5 880.55 c 0
 624.5 880.55 574 853.05 543 798.05 c 0
 512 743.05 496.5 659.883 496.5 548.55 c 0
1206.5 548.55 m 0
 1206.5 455.216 1194.67 372.55 1171 300.55 c 0
 1147.33 228.55 1113.33 167.883 1069 118.55 c 0
 1024.67 69.2165 970.667 31.7165 907 6.0498 c 0
 843.333 -19.6169 771.833 -32.4502 692.5 -32.4502 c 0
 618.5 -32.4502 550.5 -19.6169 488.5 6.0498 c 0
 426.5 31.7165 373 69.2165 328 118.55 c 0
 283 167.883 247.833 228.55 222.5 300.55 c 0
 197.167 372.55 184.5 455.216 184.5 548.55 c 0
 184.5 641.216 196.333 723.55 220 795.55 c 0
 243.667 867.55 277.667 928.05 322 977.05 c 0
 366.333 1026.05 420.167 1063.22 483.5 1088.55 c 0
 546.833 1113.88 618.5 1126.55 698.5 1126.55 c 0
 772.5 1126.55 840.5 1113.88 902.5 1088.55 c 0
 964.5 1063.22 1018 1026.05 1063 977.05 c 0
 1108 928.05 1143.17 867.55 1168.5 795.55 c 0
 1193.83 723.55 1206.5 641.216 1206.5 548.55 c 0
EndSplineSet
Fore
SplineSet
603 885 m 0
 720.041 885 839 772 839 538 c 0
 839 308 721 198 603 198 c 0
 485 198 367 308 367 538 c 0
 367 772 485.959 885 603 885 c 0
603 -20 m 0
 969.303 -20 1150 258 1150 538 c 0
 1150 817 969.303 1103 603 1103 c 0
 236.697 1103 56 817 56 538 c 0
 56 258 236.697 -20 603 -20 c 0
EndSplineSet
EndChar

StartChar: p
Encoding: 112 112 81
Width: 1254
Flags: W
HStem: -19.916 218<509.839 764.046> 885.084 218<514.708 765.009>
VStem: 82 305<325.778 760.28> 887 311<339.417 749.88>
LayerCount: 2
Fore
SplineSet
887 545.084 m 0
 887 311.084 763 198.084 641 198.084 c 0
 510 198.084 376 311.084 376 545.084 c 0
 376 775.084 509 885.084 641 885.084 c 0
 764 885.084 887 775.084 887 545.084 c 0
79 1083.08 m 1
 82 775.084 l 2
 82 -349.916 l 1
 387 -349.916 l 1
 387 139.084 l 1
 453 28.084 569 -19.916 701 -19.916 c 0
 1029 -19.916 1198 280.084 1198 532.084 c 0
 1198 814.084 1038 1103.08 701 1103.08 c 0
 565 1103.08 456 1044.08 387 941.084 c 1
 382 1083.08 l 1
 79 1083.08 l 1
EndSplineSet
EndChar

StartChar: q
Encoding: 113 113 82
Width: 1344
Flags: W
HStem: -350 21G<885 1190> -20 218<507.954 751.82> 885 218<506.991 745.643> 1063 20G<889.296 1193>
VStem: 74 311<339.333 749.796> 885 305<-350 139 325.694 760.196 941 1083>
LayerCount: 2
Fore
SplineSet
385 545 m 0xec
 385 311 509 198 631 198 c 0
 762 198 896 311 896 545 c 0
 896 775 763 885 631 885 c 0
 508 885 385 775 385 545 c 0xec
1193 1083 m 1xdc
 1190 775 l 2
 1190 -350 l 1
 885 -350 l 1
 885 139 l 1
 807 40 703 -20 571 -20 c 0
 243 -20 74 280 74 532 c 0
 74 814 234 1103 571 1103 c 0xec
 707 1103 810 1036 885 941 c 1
 890 1083 l 1
 1193 1083 l 1xdc
EndSplineSet
EndChar

StartChar: r
Encoding: 114 114 83
Width: 875
Flags: W
HStem: 0 21G<155 460> 844 259<584.951 784> 1062 20G<152 445.345>
VStem: 155 305<0 762.821>
LayerCount: 2
Back
SplineSet
158 793 m 6xd8
 155 1082 l 5
 446 1082 l 5xb8
 463 937.559 l 4
 546.181 1041.39 654.968 1103 805 1103 c 4
 1076.51 1103 1184 901 1184 637 c 6
 1184 0 l 5
 878 0 l 5
 878 610 l 6
 878.989 776.077 861.851 893.154 711.557 893.154 c 4
 586.611 893.154 488.125 776.349 463 657 c 5
 463 0 l 5
 158 0 l 5
 158 793 l 6xd8
EndSplineSet
Fore
SplineSet
741 1103 m 2xd0
 784 1103 l 1
 784 844 l 5
 713 844 l 6xd0
 517.59 844 460 745.702 460 592 c 2
 460 0 l 1
 155 0 l 1
 155 823 l 2
 155 903.635 152 987.412 152 1067 c 2
 152 1082 l 1
 443 1082 l 1xb0
 460 937 l 1
 525.992 1036.37 617.53 1103 741 1103 c 2xd0
EndSplineSet
EndChar

StartChar: s
Encoding: 115 115 84
Width: 1105
Flags: W
HStem: -20 240<325.344 716.518> 863 240<403.926 787.164>
VStem: 114 270<703.748 837.136> 734 274<245.586 388.758>
LayerCount: 2
Fore
SplineSet
881 769 m 5
 800 819 712 863 563 863 c 4
 445 863 384 834 384 775 c 4
 384 707 431 694 533 671 c 6
 676 640 l 6
 842 603 1008 531 1008 322 c 4
 1008 87.6299 812 -20 561 -20 c 4
 352 -20 201 36.7422 92 133 c 5
 176 366 l 5
 193 351 l 6
 274 278.899 373 220 545 220 c 4
 685 220 734 246.505 734 325 c 4
 734 380 676 407 569 435 c 6
 448 466 l 5
 285 505 114 578 114 785 c 4
 114 1006 319 1103 558 1103 c 4
 733 1103 856 1060 962 987 c 5
 881 769 l 5
EndSplineSet
EndChar

StartChar: t
Encoding: 116 116 85
Width: 909
Flags: W
HStem: -9 218<609.105 805> 891 191<89 253 558 806> 1434.98 20G<495.745 558>
VStem: 253 305<253.519 891 1082 1357>
LayerCount: 2
Back
SplineSet
512 0 m 5
 207 0 l 5
 207 1082 l 5
 512 1082 l 5
 512 0 l 5
EndSplineSet
Fore
SplineSet
558 471 m 2
 558 280.68 558 209 759 209 c 2
 805 209 l 1
 805 -9 l 1
 739 -9 l 2
 302.057 -9 253 175.863 253 481 c 2
 253 891 l 1
 89 891 l 1
 89 1082 l 1
 253 1082 l 1
 253 1357 l 1
 558 1454.98 l 1
 558 1082 l 1
 806 1082 l 1
 806 891 l 1
 558 891 l 1
 558 471 l 2
EndSplineSet
EndChar

StartChar: u
Encoding: 117 117 86
Width: 1252
Flags: W
HStem: -21 221<521.719 736.079>
VStem: 143 306<271.898 432> 803 306<271.898 432>
LayerCount: 2
Back
SplineSet
72.5 290.083 m 6xd8
 69.5 1.08301 l 5
 360.5 1.08301 l 5xb8
 377.5 145.083 l 4
 460.5 41.083 569.5 -19.917 719.5 -19.917 c 4
 991.5 -19.917 1098.5 182.083 1098.5 446.083 c 6
 1098.5 1083.08 l 5
 792.5 1083.08 l 5
 792.5 473.083 l 6
 793.5 307.083 776.5 190.083 626.5 190.083 c 4
 501.5 190.083 402.5 307.083 377.5 426.083 c 5
 377.5 1083.08 l 5
 72.5 1083.08 l 5
 72.5 290.083 l 6xd8
EndSplineSet
Fore
SplineSet
631 -21 m 0
 916.459 -21 1109 154 1109 424 c 2
 1109 1082 l 1
 803 1082 l 1
 803 432 l 2
 803 292 737.052 200 631 200 c 0
 518.782 200 449 292 449 432 c 2
 449 1082 l 1
 143 1082 l 1
 143 424 l 2
 143 154 339.569 -21 631 -21 c 0
EndSplineSet
EndChar

StartChar: v
Encoding: 118 118 87
Width: 1261
Flags: W
HStem: 1 21G<492.878 786.697> 1062 20G<62 357.639 903.187 1195>
LayerCount: 2
Fore
SplineSet
910 1082 m 1
 1195 1082 l 1
 779 1 l 1
 501 1 l 1
 62 1082 l 1
 350 1082 l 1
 646 307 l 1
 910 1082 l 1
EndSplineSet
EndChar

StartChar: w
Encoding: 119 119 88
Width: 1922
Flags: W
HStem: 0 21G<437.087 690.564 1157.64 1409.5> 1062 20G<70 359.919 854.189 1087.72 1572.15 1861>
LayerCount: 2
Fore
SplineSet
1580 1082 m 1
 1861 1082 l 1
 1401 0 l 1
 1163 0 l 1
 964 743 l 1
 683 0 l 1
 444 0 l 1
 70 1082 l 1
 354 1082 l 1
 573 342 l 1
 862 1082 l 1
 1082 1082 l 1
 1292 348 l 1
 1580 1082 l 1
EndSplineSet
EndChar

StartChar: x
Encoding: 120 120 89
Width: 1255
Flags: W
HStem: 0 21G<61 384.866 885.649 1212> 1062 20G<81 406.713 887.512 1199>
LayerCount: 2
Fore
SplineSet
899 0 m 5
 640 388 l 1
 371 0 l 5
 61 0 l 5
 470 539 l 1
 81 1082 l 1
 394 1082 l 1
 640 695 l 1
 901 1082 l 1
 1199 1082 l 1
 810 543 l 1
 1212 0 l 5
 899 0 l 5
EndSplineSet
EndChar

StartChar: y
Encoding: 121 121 90
Width: 1249
Flags: W
HStem: -383 217<158 406.899> 1062 20G<57 350.09 894.447 1188>
LayerCount: 2
Back
SplineSet
121 -200.3 m 5
 121 -388.3 l 5
 228 -388.3 l 6
 572 -388.3 609 -218.3 609 80.7002 c 6
 609 1140.7 l 5
 360 1140.7 l 5
 360 35.7002 l 6
 360 -121.3 359 -200.3 228 -200.3 c 6
 121 -200.3 l 5
EndSplineSet
Fore
SplineSet
496 48 m 1
 57 1082 l 5
 343 1082 l 5
 633 264 l 1
 901 1082 l 5
 1188 1082 l 5
 764 13 l 1
 709 -256 534 -383 195 -383 c 2
 158 -383 l 1
 158 -166 l 1
 215 -166 l 2
 398 -166 484 -111 496 48 c 1
EndSplineSet
EndChar

StartChar: z
Encoding: 122 122 91
Width: 1135
Flags: W
HStem: 0 209<508 1037> 875 207<142 632>
LayerCount: 2
Fore
SplineSet
1037 0 m 1
 116 0 l 1
 116 174 l 1
 632 875 l 1
 142 875 l 1
 142 1082 l 1
 1021 1082 l 1
 1021 916 l 1
 508 209 l 1
 1037 209 l 1
 1037 0 l 1
EndSplineSet
EndChar

StartChar: braceleft
Encoding: 123 123 92
Width: 733
Flags: W
HStem: -231 206<534.644 681> 537 216<71 246.88> 1315 206<534.644 681>
VStem: 268 254<-8.68164 519.66 769.423 1298.68>
CounterMasks: 1 e0
LayerCount: 2
Fore
SplineSet
681 1521 m 1
 681 1315 l 1
 641 1315 l 2
 514 1315 522 1281 522 1123 c 2
 522 913 l 2
 522 796 480 702 405 645 c 1
 484 586 522 493 522 378 c 2
 522 130 l 2
 522 6 522 -25 641 -25 c 2
 681 -25 l 1
 681 -231 l 1
 641 -231 l 2
 423 -231 268 -159 268 70 c 2
 268 325 l 2
 268 458 257 537 175 537 c 2
 71 537 l 1
 71 753 l 1
 175 753 l 2
 257 753 268 832 268 965 c 2
 268 1220 l 2
 268 1449 423 1521 641 1521 c 2
 681 1521 l 1
EndSplineSet
EndChar

StartChar: bar
Encoding: 124 124 93
Width: 516
Flags: W
HStem: 1489 20G<137 381>
VStem: 137 244<-290 1509>
LayerCount: 2
Fore
SplineSet
381 -290 m 1
 137 -290 l 1
 137 1509 l 1
 381 1509 l 1
 381 -290 l 1
EndSplineSet
EndChar

StartChar: braceright
Encoding: 125 125 94
Width: 733
Flags: W
HStem: -231 206<53 199.356> 537 216<487.12 663> 1315 206<53 199.356>
VStem: 212 254<-8.68164 520.577 770.34 1298.68>
CounterMasks: 1 e0
LayerCount: 2
Fore
SplineSet
53 -231 m 1
 53 -25 l 1
 93 -25 l 2
 220 -25 212 9 212 167 c 2
 212 377 l 2
 212 494 254 588 329 645 c 1
 250 704 212 797 212 912 c 2
 212 1160 l 2
 212 1284 212 1315 93 1315 c 2
 53 1315 l 1
 53 1521 l 1
 93 1521 l 2
 311 1521 466 1449 466 1220 c 2
 466 965 l 2
 466 832 477 753 559 753 c 2
 663 753 l 1
 663 537 l 1
 559 537 l 2
 477 537 466 458 466 325 c 2
 466 70 l 2
 466 -159 311 -231 93 -231 c 2
 53 -231 l 1
EndSplineSet
EndChar

StartChar: asciitilde
Encoding: 126 126 95
Width: 1419
Flags: W
HStem: 375 214<801.797 1006.35> 515 214<394.351 498 499 638.465>
LayerCount: 2
Fore
SplineSet
355 405 m 1x40
 345 356 l 1
 161 437 l 1
 167 466 l 1
 196 600 306 729 490 729 c 0x40
 654 729 778 633 883 597 c 0
 901 591 916 589 924 589 c 0
 989 589 1030 650 1047 713 c 1
 1055 749 l 2
 1055 751 1057 752 1057 754 c 1
 1252 694 l 1
 1243 660 l 1
 1210 520 1115 375 922 375 c 0x80
 734 375 638 512 499 516 c 1
 498 515 l 1
 492 515 l 2
 414 515 371 462 355 405 c 1x40
EndSplineSet
EndChar

StartChar: exclamdown
Encoding: 161 161 96
Width: 750
Flags: W
HStem: -394 21G<281 508> 824 286<233 516>
VStem: 233 283<824 1110> 281 227<-394 764>
LayerCount: 2
Fore
SplineSet
281 764 m 1xd0
 508 764 l 1
 508 -394 l 1
 281 -394 l 1
 281 764 l 1xd0
516 824 m 1xe0
 233 824 l 1
 233 1110 l 1
 516 1110 l 1
 516 824 l 1xe0
EndSplineSet
EndChar

StartChar: cent
Encoding: 162 162 97
Width: 1181
Flags: W
VStem: 147 246<295.555 721.89>
LayerCount: 2
Fore
SplineSet
591 865 m 1
 460 819 393 689 393 513 c 0
 393 344 447 232 551 182 c 1
 591 865 l 1
725 -265 m 1
 522 -266 l 1
 537 -27 l 1
 286 27 147 232 147 507 c 0
 147 807 313 1041 604 1074 c 1
 618 1281 l 1
 821 1281 l 1
 807 1064 l 1
 908 1041 990 995 1043 923 c 1
 1059 900 l 1
 941 729 l 1
 908 772 l 1
 879 808 838 836 793 852 c 1
 751 170 l 1
 824 183 887 214 948 268 c 2
 994 309 l 1
 1065 93 l 1
 1044 76 l 1
 962 11 862 -27 739 -37 c 1
 725 -265 l 1
EndSplineSet
EndChar

StartChar: sterling
Encoding: 163 163 98
Width: 1188
Flags: W
HStem: -10 229<482 1134> 621 212<87 273 542 920> 1260 230<620.474 903.711>
VStem: 273 269<260.233 620 833 1176.03>
LayerCount: 2
Fore
SplineSet
128 -10 m 1
 93 173 l 1
 122 186 l 1
 231 233 273 288 273 445 c 2
 273 620 l 1
 87 620 l 1
 87 832 l 1
 273 832 l 1
 273 906 l 2
 273 1238 378 1490 756 1490 c 0
 936 1490 1060 1412 1138 1301 c 1
 1155 1275 l 1
 1016 1120 l 1
 945.321 1190.68 879.422 1260 755 1260 c 0
 598 1260 541 1158 541 988 c 2
 541 833 l 1
 920 833 l 1
 920 621 l 1
 542 621 l 1
 542 503 l 2
 542 395 528 295 482 219 c 1
 699.333 219 916.667 219 1134 219 c 1
 1134 -10 l 1
 128 -10 l 1
EndSplineSet
EndChar

StartChar: fraction
Encoding: 259 8260 99
Width: 382
Flags: W
HStem: -10 21G<-346 -96.8718> 1436 20G<532.844 780>
LayerCount: 2
Fore
SplineSet
-346 -10 m 1
 545 1456 l 1
 780 1456 l 1
 -109 -10 l 1
 -346 -10 l 1
EndSplineSet
EndChar

StartChar: yen
Encoding: 165 165 100
Width: 1152
Flags: W
HStem: -10 21G<508 752> 248 220<111 500 752 1148> 539 222<102 415 765 1071> 1420 20G<-2 294.524 910.091 1192>
VStem: 508 244<-10 248 468 505.698>
LayerCount: 2
Fore
SplineSet
295 1419 m 1
 397 1233 504 1044 603 857 c 1
 921 1440 l 1
 1192 1440 l 1
 765 761 l 1
 1071 761 l 1
 1096 539 l 1
 734 539 l 1
 745 468 l 1
 1148 468 l 1
 1148 248 l 1
 752 248 l 1
 752 -10 l 1
 508 -10 l 1
 508 248 l 1
 111 248 l 1
 95 468 l 1
 500 468 l 1
 481 539 l 1
 102 539 l 1
 102 761 l 1
 415 761 l 1
 -2 1440 l 1
 285 1440 l 1
 295 1419 l 1
EndSplineSet
EndChar

StartChar: florin
Encoding: 260 402 101
Width: 1236
Flags: W
HStem: -329 219<85.1406 274.663> 744 210<331 466 761 934> 1216 225<813.577 1056.09>
LayerCount: 2
Fore
SplineSet
891 1441 m 0
 944 1441 994 1432 1037 1421 c 2
 1069 1413 l 1
 1054 1176 l 1
 1002 1197 l 2
 973 1209 948 1216 914 1216 c 0
 826 1216 803 1181 788 1094 c 1
 761 954 l 1
 950 954 l 1
 934 744 l 1
 722 744 l 1
 599 129 l 2
 559 -67 502 -329 210 -329 c 0
 177 -329 141 -322 100 -311 c 2
 68 -302 l 1
 88 -78 l 1
 138 -97 l 2
 162 -106 181 -110 197 -110 c 0
 269 -110 297 -39 320 50 c 1
 380 271 419 516 466 750 c 1
 315 750 l 1
 331 958 l 1
 505 958 l 1
 521 1067 l 2
 549 1262 641 1441 891 1441 c 0
EndSplineSet
EndChar

StartChar: section
Encoding: 167 167 102
Width: 1109
Flags: W
VStem: 407 289<662.286 798.56>
LayerCount: 2
Fore
SplineSet
406 434 m 0
 291 483 159 568 159 734 c 0
 159 852 233 927 305 974 c 1
 241 1025 193 1096 193 1205 c 0
 193 1426 394 1510 609 1510 c 0
 707 1510 771 1490 842 1467 c 1
 870 1459 l 1
 873 1218 l 1
 815 1245 l 2
 762 1270 692 1294 615 1294 c 0
 497 1294 434 1266 434 1204 c 0
 434 1150 468 1126 529 1095 c 0
 656 1029 946 970 946 737 c 0
 946 619 872 542 804 492 c 1
 871 446 925 378 925 270 c 0
 925 43 710 -58 485 -58 c 0
 379 -58 285 -37 209 -3 c 1
 185 7 l 1
 184 250 l 1
 241 215 l 1
 316 179 384 156 478 156 c 0
 603 156 680 196 680 266 c 0
 680 333 592 359 492 398 c 1
 407 433 l 1
 411 442 l 1
 444 429 l 1
696 725 m 0
 696 802 600 823 498 868 c 1
 441 835 407 800 407 743 c 0
 407 666 492 631 591 593 c 1
 653 632 696 670 696 725 c 0
EndSplineSet
EndChar

StartChar: currency
Encoding: 164 164 103
Width: 1224
Flags: W
HStem: 260 130<460.757 699.149> 944 153<423.242 671.081>
VStem: 163 169<482.652 851.955> 784 170<482.015 853.647>
LayerCount: 2
Fore
SplineSet
784 655 m 1
 784 665 l 2
 784 834 718 944 556 944 c 0
 401 944 332 828 332 665 c 0
 332 501 402 390 560 390 c 0
 714 390 781 498 784 655 c 1
275 64 m 1
 360 300 l 1
 238 366 163 494 163 664 c 0
 163 819 225 941 325 1012 c 1
 179 1287 l 1
 291 1332 l 1
 423 1078 l 1
 467 1092 510 1097 561 1097 c 0
 595 1097 631 1092 663 1086 c 1
 757 1333 l 1
 793 1318 830 1305 867 1290 c 1
 770 1029 l 1
 887 959 954 833 954 669 c 0
 954 528 898 412 815 343 c 1
 961 67 l 1
 856 18 l 1
 721 290 l 1
 673 270 622 260 556 260 c 0
 525 260 492 262 468 266 c 1
 377 17 l 1
 275 64 l 1
EndSplineSet
EndChar

StartChar: quotesingle
Encoding: 39 39 104
Width: 573
Flags: W
HStem: 927 536<191 390>
VStem: 152 238<1265.97 1463> 191 199<927 1124.03>
LayerCount: 2
Fore
SplineSet
390 927 m 1xa0
 191 927 l 1xa0
 152 1463 l 1
 390 1463 l 1xc0
 390 927 l 1xa0
EndSplineSet
EndChar

StartChar: quotedblleft
Encoding: 261 8220 105
Width: 1005
Flags: W
HStem: 973 520<395 482 686 776>
VStem: 176 671
LayerCount: 2
Fore
SplineSet
847 973 m 1
 641 973 l 1
 482 1493 l 1
 731 1493 l 1
 847 973 l 1
543 973 m 1
 350 973 l 1
 176 1493 l 1
 437 1493 l 1
 543 973 l 1
EndSplineSet
EndChar

StartChar: guillemotleft
Encoding: 171 171 106
Width: 1154
Flags: W
LayerCount: 2
Fore
SplineSet
863 934 m 1
 1111 934 l 1
 833 546 l 1
 1103 161 l 1
 858 161 l 1
 570 546 l 1
 863 934 l 1
505 934 m 1
 759 934 l 1
 475 546 l 1
 749 161 l 1
 499 161 l 1
 214 546 l 1
 505 934 l 1
EndSplineSet
EndChar

StartChar: guilsinglleft
Encoding: 262 8249 107
Width: 659
Flags: W
VStem: 81 536
LayerCount: 2
Fore
SplineSet
370 934 m 1
 617 934 l 1
 339 546 l 1
 610 161 l 1
 364 161 l 1
 81 546 l 1
 370 934 l 1
EndSplineSet
EndChar

StartChar: guilsinglright
Encoding: 263 8250 108
Width: 659
Flags: W
VStem: 69 538
LayerCount: 2
Fore
SplineSet
314 161 m 1
 69 161 l 1
 346 547 l 1
 77 934 l 1
 321 934 l 1
 607 547 l 1
 314 161 l 1
EndSplineSet
EndChar

StartChar: fi
Encoding: 264 64257 109
Width: 1261
Flags: W
HStem: 5 21G<234 470 862 1098> 851 182<43 234> 874 160<470 862> 1232 235<869 1095> 1304 215<490.15 750.43>
VStem: 234 236<5 851 1034 1278.67> 862 236<5 874 1232 1467>
LayerCount: 2
Fore
SplineSet
1095 1467 m 1x96
 1095 1232 l 1
 869 1232 l 1
 869 1467 l 1
 1095 1467 l 1x96
718 1497 m 2
 751 1490 l 1
 754 1270 l 1
 696 1292 l 2
 677 1299 633 1304 597 1304 c 0
 485 1304 471 1257 471 1127 c 1
 470 1034 l 1
 1098 1034 l 1
 1098 5 l 1
 862 5 l 1
 862 874 l 1
 470 874 l 1xae
 470 5 l 1
 234 5 l 1
 234 851 l 1
 43 851 l 1
 43 1033 l 1
 234 1033 l 1
 236 1103 l 1
 239 1322 310 1519 568 1519 c 0xce
 632 1519 675 1506 718 1497 c 2
EndSplineSet
EndChar

StartChar: fl
Encoding: 265 64258 110
Width: 1219
Flags: W
HStem: -18 229<1092.92 1222> 5 21G<208 479.213> 850 181<37 208 488 715> 1261 233<506.059 729>
VStem: 208 280<5 850 1034 1240.26> 793 272<226.813 1497>
LayerCount: 2
Fore
SplineSet
1065 416 m 2xbc
 1065 267 1064 211 1182 211 c 2
 1222 211 l 1
 1222 -18 l 1
 1182 -18 l 2
 838 -18 793 163 793 457 c 2
 796 1497 l 1
 1066 1497 l 1
 1065 416 l 2xbc
362 1442 m 0
 452 1485 553 1494 665 1494 c 2
 730 1494 l 1
 729 1261 l 1
 664 1261 l 2
 493 1261 488 1238 488 1053 c 2
 488 1031 l 1
 715 1031 l 1
 715 850 l 1
 488 850 l 1
 479 5 l 1
 208 5 l 1x7c
 208 852 l 1
 37 852 l 1
 37 1034 l 1
 208 1034 l 1
 208 1204 211 1370 362 1442 c 0
EndSplineSet
EndChar

StartChar: endash
Encoding: 266 8211 111
Width: 1063
Flags: W
HStem: 429 217<-21 1079>
LayerCount: 2
Fore
SplineSet
-21 646 m 1
 1079 646 l 1
 1079 429 l 1
 -21 429 l 1
 -21 646 l 1
EndSplineSet
EndChar

StartChar: dagger
Encoding: 267 8224 112
Width: 1052
Flags: W
HStem: 899 212<85 398 638 969> 1451 20G<398 638>
VStem: 398 227<103 899 1111 1471>
LayerCount: 2
Fore
SplineSet
625 103 m 1
 398 103 l 1
 398 899 l 1
 85 899 l 1
 85 1111 l 1
 398 1111 l 1
 398 1471 l 1
 638 1471 l 1
 638 1111 l 1
 969 1111 l 1
 969 899 l 1
 625 899 l 1
 625 103 l 1
EndSplineSet
EndChar

StartChar: daggerdbl
Encoding: 268 8225 113
Width: 1049
Flags: W
HStem: 400 207<77 404 630 957> 948 212<82 407 634 964> 1451 20G<384 634>
VStem: 384 250<1292.66 1471> 407 220<253.448 400 607 948 1160 1326.8>
LayerCount: 2
Fore
SplineSet
77 607 m 1xe8
 407 607 l 1
 407 948 l 1xe8
 82 948 l 1
 82 1160 l 1
 409 1160 l 1
 384 1471 l 1
 634 1471 l 1
 634 1160 l 1xf0
 964 1160 l 1
 964 948 l 1
 627 948 l 1
 627 607 l 1
 957 607 l 1
 957 400 l 1
 630 400 l 1
 656 103 l 1
 382 103 l 1
 404 400 l 1
 77 400 l 1
 77 607 l 1xe8
EndSplineSet
EndChar

StartChar: periodcentered
Encoding: 269 -1 114
Width: 471
Flags: W
HStem: 453 290<57 343>
VStem: 57 286<453 743>
LayerCount: 2
Fore
SplineSet
57 743 m 1
 343 743 l 1
 343 453 l 1
 57 453 l 1
 57 743 l 1
EndSplineSet
EndChar

StartChar: paragraph
Encoding: 182 182 115
Width: 1238
Flags: W
HStem: 1267 204<651 773 976 1058>
VStem: 87 564<938.177 1260.25> 415 236<-157 756.474> 773 203<-158 1267>
LayerCount: 2
Fore
SplineSet
651 -158 m 1xb0
 415 -157 l 1
 415 751 l 1xb0
 212 772 87 926 87 1121 c 0xd0
 87 1409 361 1471 649 1471 c 2
 1058 1471 l 1
 1058 1267 l 1
 976 1267 l 1
 976 -158 l 1
 773 -158 l 1
 773 1267 l 1
 651 1267 l 1
 651 -158 l 1xb0
EndSplineSet
EndChar

StartChar: bullet
Encoding: 270 8226 116
Width: 1038
Flags: W
HStem: 325 705<334.845 708.366>
VStem: 135 772<511.043 838.882>
LayerCount: 2
Fore
SplineSet
518 325 m 0
 294 325 135 472 135 674 c 0
 135 877 300 1030 525 1030 c 0
 748 1030 907 883 907 681 c 0
 907 476 744 325 518 325 c 0
EndSplineSet
EndChar

StartChar: quotesinglbase
Encoding: 271 8218 117
Width: 575
Flags: W
HStem: -298 519<218 305>
VStem: 100 378
LayerCount: 2
Fore
SplineSet
305 -298 m 1
 100 -298 l 1
 218 221 l 1
 478 221 l 1
 305 -298 l 1
EndSplineSet
EndChar

StartChar: quotedblbase
Encoding: 272 8222 118
Width: 1044
Flags: W
HStem: -298 519<269 356 633 720>
LayerCount: 2
Fore
SplineSet
720 -298 m 1
 505 -298 l 1
 633 221 l 1
 893 221 l 1
 720 -298 l 1
356 -298 m 1
 151 -298 l 1
 269 221 l 1
 538 221 l 1
 356 -298 l 1
EndSplineSet
EndChar

StartChar: quotedblright
Encoding: 273 8221 119
Width: 1005
Flags: W
HStem: 973 520<589 679 883 969>
VStem: 178 671
LayerCount: 2
Fore
SplineSet
385 973 m 1
 178 973 l 1
 295 1493 l 1
 544 1493 l 1
 385 973 l 1
675 973 m 1
 483 973 l 1
 589 1493 l 1
 849 1493 l 1
 675 973 l 1
EndSplineSet
EndChar

StartChar: guillemotright
Encoding: 187 187 120
Width: 1152
Flags: W
LayerCount: 2
Fore
SplineSet
376 161 m 1
 126 161 l 1
 406 547 l 1
 134 934 l 1
 381 934 l 1
 668 547 l 1
 376 161 l 1
756 161 m 1
 507 161 l 1
 786 547 l 1
 516 934 l 1
 763 934 l 1
 1047 547 l 1
 756 161 l 1
EndSplineSet
EndChar

StartChar: ellipsis
Encoding: 274 8230 121
Width: 1587
Flags: W
HStem: -71 290<137 423 642 944 1162 1448>
VStem: 137 286<-71 219> 642 302<-71 219> 1162 286<-71 219>
LayerCount: 2
Fore
SplineSet
1162 219 m 1
 1448 219 l 1
 1448 -71 l 1
 1162 -71 l 1
 1162 219 l 1
642 219 m 1
 944 219 l 1
 944 -71 l 1
 642 -71 l 1
 642 219 l 1
137 219 m 1
 423 219 l 1
 423 -71 l 1
 137 -71 l 1
 137 219 l 1
EndSplineSet
EndChar

StartChar: perthousand
Encoding: 275 8240 122
Width: 2305
Flags: W
HStem: -37 193<1056.56 1245.49 1792.23 1980.14> 532 194<1060.1 1245.54 1793.9 1978.37> 705 193<313.96 499.715> 1275 193<314.319 498.337>
VStem: 55 220<935.344 1238.92> 538 222<941.863 1238.28> 793 224<193.344 491.573> 1284 221<196.359 497.09> 1530 223<193.091 492.108> 2019 216<193.651 495.734>
LayerCount: 2
Fore
SplineSet
275 1113 m 0xbfc0
 275 1105 275 1097 275 1089 c 0
 275 972 316 898 408 898 c 0
 495 898 538 974 538 1086 c 0
 538 1202 496 1275 404 1275 c 0
 322 1275 281 1211 275 1113 c 0xbfc0
1753 345 m 0
 1753 228 1795 156 1888 156 c 0
 1977 156 2019 232 2019 345 c 0
 2019 460 1978 532 1887 532 c 0xdfc0
 1796 532 1753 458 1753 345 c 0
1017 346 m 2
 1017 345 l 2
 1017 229 1060 156 1152 156 c 0
 1241 156 1284 231 1284 344 c 0
 1284 461 1244 532 1151 532 c 0
 1061 532 1017 458 1017 346 c 2
1364 1462 m 1
 431 -35 l 1
 189 -35 l 1
 1123 1462 l 1
 1364 1462 l 1
1909 726 m 0
 2151 726 2270 564 2235 343 c 1
 2235 125 2102 -37 1884 -37 c 0
 1658 -37 1530 127 1530 346 c 1
 1534 565 1671 726 1909 726 c 0
760 1085 m 2
 760 1084 l 2
 760 867 624 705 403 705 c 0xbfc0
 179 705 55 868 55 1088 c 0
 55 1305 185 1468 405 1468 c 0
 634 1468 760 1308 760 1085 c 2
1505 342 m 1
 1504 124 1370 -37 1149 -37 c 0
 921 -37 793 126 793 346 c 1
 762 571 902 726 1137 726 c 0xdfc0
 1382 726 1505 564 1505 342 c 1
EndSplineSet
EndChar

StartChar: questiondown
Encoding: 191 191 123
Width: 993
Flags: W
HStem: 1256 209<428 664>
VStem: 428 236<1256 1465>
LayerCount: 2
Fore
SplineSet
374 823 m 0
 392 843 406 864 414 884 c 1
 414 886 l 1
 423 905 424 919 424 957 c 2
 424 1105 l 1
 672 1105 l 1
 675 1068 l 2
 680 1014 686 954 686 892 c 0
 686 796 626 733 573 688 c 0
 453 587 306 514 306 365 c 0
 306 258 387 202 524 202 c 0
 632 202 695 240 766 281 c 2
 808 305 l 1
 880 107 l 1
 855 91 l 1
 767 29 650 -21 505 -21 c 0
 258 -21 61 106 61 359 c 0
 61 569 209 672 307 760 c 0
664 1256 m 1
 428 1256 l 1
 428 1465 l 1
 664 1465 l 1
 664 1256 l 1
EndSplineSet
EndChar

StartChar: grave
Encoding: 96 96 124
Width: 612
Flags: W
HStem: 1166 360
VStem: -87 586
LayerCount: 2
Fore
SplineSet
-87 1526 m 1
 256 1526 l 1
 499 1166 l 1
 267 1166 l 1
 149.036 1286.01 31.9898 1407.01 -87 1526 c 1
EndSplineSet
EndChar

StartChar: acute
Encoding: 180 180 125
Width: 612
Flags: W
HStem: 1166 360
VStem: 153 586
LayerCount: 2
Fore
SplineSet
396 1526 m 1
 739 1526 l 1
 385 1166 l 1
 153 1166 l 1
 396 1526 l 1
EndSplineSet
EndChar

StartChar: circumflex
Encoding: 276 710 126
Width: 743
Flags: W
HStem: 1123 402
LayerCount: 2
Fore
SplineSet
219 1123 m 1
 6 1123 l 1
 283 1525 l 1
 493 1525 l 1
 770 1123 l 1
 552 1123 l 1
 384 1319 l 1
 219 1123 l 1
EndSplineSet
EndChar

StartChar: tilde
Encoding: 277 732 127
Width: 741
Flags: W
HStem: 1196 211<337.934 550.34> 1254 211<170.771 392.027>
LayerCount: 2
Fore
SplineSet
747 1425 m 1x40
 740 1303 666 1196 507 1196 c 0x80
 364 1196 297 1254 211 1254 c 0
 174 1254 173 1248 172 1229 c 2
 170 1199 l 1
 -26 1199 l 1
 -24 1237 l 1
 -21 1364 62 1465 220 1465 c 0x40
 373 1465 425 1407 520 1407 c 0x80
 545 1407 546 1411 549 1436 c 2
 553 1465 l 1
 752 1465 l 1
 747 1425 l 1x40
EndSplineSet
EndChar

StartChar: macron
Encoding: 278 -1 128
Width: 788
Flags: W
HStem: 1248 217<61 684>
VStem: 61 623<1248 1465>
LayerCount: 2
Fore
SplineSet
684 1465 m 1
 684 1248 l 1
 61 1248 l 1
 61 1465 l 1
 684 1465 l 1
EndSplineSet
EndChar

StartChar: breve
Encoding: 279 728 129
Width: 688
Flags: W
HStem: 1196 188<233.35 442.65>
VStem: 28 620
LayerCount: 2
Fore
SplineSet
232 1465 m 1
 232 1428 l 2
 232 1407 260 1384 338 1384 c 0
 416 1384 444 1407 444 1428 c 2
 444 1465 l 1
 648 1465 l 1
 648 1426 l 2
 648 1275 501 1196 338 1196 c 0
 175 1196 28 1276 28 1426 c 2
 28 1465 l 1
 232 1465 l 1
EndSplineSet
EndChar

StartChar: dotaccent
Encoding: 280 729 130
Width: 582
Flags: W
HStem: 1222 243<159 391>
VStem: 159 232<1222 1465>
LayerCount: 2
Fore
SplineSet
391 1465 m 1
 391 1222 l 1
 159 1222 l 1
 159 1465 l 1
 391 1465 l 1
EndSplineSet
EndChar

StartChar: dieresis
Encoding: 168 168 131
Width: 766
Flags: W
HStem: 1220 245<71 317 445 691>
VStem: 71 246<1220 1465> 445 246<1220 1465>
LayerCount: 2
Fore
SplineSet
317 1465 m 1
 317 1220 l 1
 71 1220 l 1
 71 1465 l 1
 317 1465 l 1
691 1465 m 1
 691 1220 l 1
 445 1220 l 1
 445 1465 l 1
 691 1465 l 1
EndSplineSet
EndChar

StartChar: ring
Encoding: 281 730 132
Width: 664
Flags: W
HStem: 1139 166<245.889 372.657> 1385 165<245.608 372.691>
VStem: 71 174<1308.28 1380.42> 375 175<1309.42 1380.75>
LayerCount: 2
Fore
SplineSet
311 1550 m 0
 442 1550 550 1467 550 1345 c 0
 550 1224 440 1139 312 1139 c 0
 181 1139 71 1220 71 1344 c 0
 71 1468 181 1550 311 1550 c 0
310 1385 m 0
 268 1385 245 1362 245 1345 c 0
 245 1323 261 1305 310 1305 c 0
 352 1305 375 1328 375 1345 c 0
 375 1364 354 1385 310 1385 c 0
EndSplineSet
EndChar

StartChar: cedilla
Encoding: 184 184 133
Width: 586
Flags: W
HStem: -407 164<45.7266 294.897> -377 168<47.6347 223.939> -208 245<163 294.997>
VStem: 33 478<-336.128 -226.472>
LayerCount: 2
Fore
SplineSet
320 -60 m 1xb0
 419 -69 511 -120 511 -229 c 0
 511 -369 363 -407 243 -407 c 0xb0
 180 -407 120 -395 68 -384 c 2
 33 -377 l 1
 49 -209 l 1x70
 94 -220 l 2
 140 -232 182 -243 226 -243 c 0
 293 -243 295 -232 295 -226 c 0
 295 -218 291 -208 231 -208 c 0
 228 -208 210 -210 199 -211 c 2
 118 -216 l 1
 163 37 l 1
 337 37 l 1
 320 -60 l 1xb0
EndSplineSet
EndChar

StartChar: hungarumlaut
Encoding: 282 733 134
Width: 1010
Flags: W
HStem: 1110 390<598 605>
LayerCount: 2
Fore
SplineSet
598 1396 m 1
 337 1110 l 1
 133 1110 l 1
 401 1500 l 1
 946 1500 l 1
 605 1110 l 1
 382 1110 l 1
 598 1396 l 1
EndSplineSet
EndChar

StartChar: ogonek
Encoding: 283 731 135
Width: 565
Flags: W
HStem: -393 188<246.812 472.525>
VStem: 30 215<-274 -117.283>
LayerCount: 2
Fore
SplineSet
30 -209 m 0
 30 -70 179 -2 267 39 c 1
 527 15 l 1
 482 -8 l 1
 344 -80 245 -132 245 -174 c 0
 245 -186 262 -205 300 -205 c 0
 356 -205 389 -194 466 -163 c 1
 487 -155 l 1
 487 -351 l 1
 420 -379 346 -393 277 -393 c 0
 156 -393 30 -339 30 -209 c 0
EndSplineSet
EndChar

StartChar: caron
Encoding: 284 711 136
Width: 739
Flags: W
HStem: 1164 361
LayerCount: 2
Fore
SplineSet
289 1164 m 1
 -5 1525 l 1
 234 1525 l 1
 385 1371 l 1
 541 1525 l 1
 786 1525 l 1
 492 1164 l 1
 289 1164 l 1
EndSplineSet
EndChar

StartChar: emdash
Encoding: 285 8212 137
Width: 1994
Flags: W
HStem: 429 217<-17 2000>
LayerCount: 2
Fore
SplineSet
-17 646 m 1
 2000 646 l 1
 2000 429 l 1
 -17 429 l 1
 -17 646 l 1
EndSplineSet
EndChar

StartChar: AE
Encoding: 198 198 138
Width: 1937
Flags: W
HStem: 5 228<1247 1844> 363 228<598 988> 637 228<1215 1783> 1233 228<1165 1823>
LayerCount: 2
Fore
SplineSet
1010 363 m 1
 484 363 l 1
 280 5 l 1
 4 5 l 1
 809 1461 l 1
 1823 1461 l 1
 1823 1233 l 1
 1165 1233 l 1
 1193 865 l 1
 1783 865 l 1
 1783 637 l 1
 1215 637 l 1
 1247 233 l 1
 1844 233 l 1
 1844 5 l 1
 1039 5 l 1
 1010 363 l 1
941 1228 m 1
 598 591 l 1
 988 591 l 1
 941 1228 l 1
EndSplineSet
EndChar

StartChar: ordfeminine
Encoding: 170 170 139
Width: 732
Flags: W
HStem: 707 183<259.134 429.995> 1309 188<251.471 459.436>
VStem: 46 209<895.433 1011.47> 474 204<726 755 933.382 1043 1222.62 1302.55>
LayerCount: 2
Fore
SplineSet
336 890 m 0
 419 890 457 948 467 1043 c 1
 344 1026 255 1026 255 956 c 0
 255 909 278 890 336 890 c 0
332 708 m 1
 332 707 l 1
 318 707 l 2
 176 707 46 793 46 954 c 0
 46 1209 308 1207 467 1226 c 1
 462 1299 452 1309 378 1309 c 0
 298 1309 259 1283 227 1233 c 2
 198 1188 l 1
 81 1325 l 1
 94 1349 l 1
 151 1452 259 1497 382 1497 c 0
 548 1497 673 1400 673 1215 c 1
 671 894 l 2
 671 852 673 829 678 769 c 2
 681 726 l 1
 476 726 l 1
 474 755 l 1
 434 727 386 710 332 708 c 1
EndSplineSet
EndChar

StartChar: Lslash
Encoding: 286 321 140
Width: 1175
Flags: W
HStem: 6 223<456 1132> 1067 20G<700.707 734> 1441 20G<192 456>
VStem: 192 264<229 547 920 1461>
LayerCount: 2
Fore
SplineSet
734 868 m 1
 456 700 l 1
 456 229 l 1
 1132 230 l 1
 1132 6 l 1
 192 6 l 1
 192 547 l 1
 14 437 l 1
 14 658 l 1
 192 768 l 1
 192 1461 l 1
 456 1461 l 1
 456 920 l 1
 734 1087 l 1
 734 868 l 1
EndSplineSet
EndChar

StartChar: Oslash
Encoding: 216 216 141
Width: 1712
Flags: W
HStem: -20 245<644.053 1018.06> 1233 245<643.675 1018.44> 1614 20G<1123.78 1192>
VStem: 96 307<495.36 955.933> 1260 307<495.36 955.933>
LayerCount: 2
Fore
SplineSet
1328 1563 m 2
 596 -172 l 1
 417 -106 l 1
 1132 1634 l 1
 1330 1568 l 1
 1329 1566 1329 1565 1328 1563 c 2
EndSplineSet
Refer: 48 79 N 1 0 0 1 0 0 2
EndChar

StartChar: OE
Encoding: 287 338 142
Width: 2299
Flags: W
HStem: -18 245<640.83 1059.16> 5 238<1474 2180> 641 238<1474 2123> 1212 238<1474 2150> 1233 245<640.452 1054.03>
VStem: 96 306<496.128 955.933> 1171 303<308.859 641 879 1145.74>
LayerCount: 2
Fore
SplineSet
826 1233 m 0xae
 546 1233 402 979 402 722 c 0
 402 465 547 227 826 227 c 0
 987 227 1102 277 1171 345 c 1
 1171 1107 l 1
 1101 1180 987 1233 826 1233 c 0xae
2150 1212 m 1x36
 1474 1212 l 1
 1474 879 l 1
 2123 879 l 1
 2123 641 l 1
 1474 641 l 1
 1474 243 l 1
 2200 243 l 1
 2180 5 l 1
 1171 5 l 1x76
 1171 76 l 1
 1074 14 958 -18 826 -18 c 0
 411 -18 96 298 96 727 c 0
 96 1161 410 1478 826 1478 c 0xae
 958 1478 1075 1445 1171 1384 c 1
 1171 1450 l 1
 2170 1450 l 1
 2150 1212 l 1x36
EndSplineSet
EndChar

StartChar: ordmasculine
Encoding: 186 186 143
Width: 842
Flags: W
HStem: 707 188<305.015 543.661> 1309 187<301.954 543.344>
VStem: 36 213<951.529 1254.13> 599 211<949.318 1253.85>
LayerCount: 2
Fore
SplineSet
249 1113 m 1
 249 1103 l 2
 249 974 299 895 426 895 c 0
 548 895 599 975 599 1099 c 0
 599 1228 547 1309 422 1309 c 0
 303 1309 252 1229 249 1113 c 1
810 1101 m 0
 810 871 664 707 426 707 c 0
 181 707 36 868 36 1104 c 0
 36 1336 187 1496 425 1496 c 0
 667 1496 810 1334 810 1101 c 0
EndSplineSet
EndChar

StartChar: ae
Encoding: 230 230 144
Width: 1954
Flags: W
HStem: -18 209<412.377 690.494 1236.56 1632.91> 5 21G<819 1058> 435 182<444.622 793> 462 203<1095 1611> 880 219<378.947 768.241 1208.72 1514.26>
VStem: 119 271<213.453 384.286>
LayerCount: 2
Fore
SplineSet
1080 665 m 1x1c
 1611 665 l 1
 1588 795 1516 878 1363 878 c 0
 1207 878 1110 777 1080 665 c 1x1c
752 435 m 2xac
 540 435 390 414 390 314 c 0
 390 229 431 191 539 191 c 0
 649 191 725 221 811 253 c 1
 811 435 l 1
 752 435 l 2xac
1886 139 m 1
 1774 41 1636 -18 1386 -18 c 0x9c
 1255 -18 1143 27 1058 99 c 1
 1058 5 l 1
 819 5 l 1x4c
 819 98 l 1
 725 36 622 -18 491 -18 c 0
 280 -18 119 93 119 292 c 0
 119 597 457 617 740 617 c 2
 793 617 l 1xac
 793 739 l 2
 793 844 751 880 629 880 c 0
 463 880 346 831 244 773 c 1
 182 993 l 1
 300 1052 444 1099 625 1099 c 0
 766 1099 904 1066 977 951 c 1
 1077 1043 1205 1099 1360 1099 c 0
 1715 1099 1882 855 1883 562 c 1
 1914 532 1912 505 1912 477 c 2
 1912 462 l 1
 1095 462 l 1x1c
 1126 302 1211 197 1410 197 c 0
 1589 197 1692 253 1768 323 c 1
 1886 139 l 1
EndSplineSet
EndChar

StartChar: dotlessi
Encoding: 288 305 145
Width: 587
Flags: W
HStem: 5 21G<187 466> 1051 20G<187 466>
VStem: 187 279<5 1071>
LayerCount: 2
Fore
SplineSet
466 5 m 1
 187 5 l 1
 187 1071 l 1
 466 1071 l 1
 466 5 l 1
EndSplineSet
EndChar

StartChar: lslash
Encoding: 289 322 146
Width: 558
Flags: W
HStem: 5 21G<159 396> 1049 20G<526.723 559> 1476 20G<159 396>
VStem: 159 237<5 628 968 1496>
LayerCount: 2
Fore
SplineSet
0 533 m 1
 0 753 l 1
 159 848 l 1
 159 1496 l 1
 396 1496 l 1
 396 968 l 1
 559 1069 l 1
 559 851 l 1
 396 756 l 1
 396 5 l 1
 159 5 l 1
 159 628 l 1
 0 533 l 1
EndSplineSet
EndChar

StartChar: oslash
Encoding: 248 248 147
Width: 1206
Flags: W
HStem: -20 218<485.36 720.64> 885 218<485.572 720.428>
VStem: 56 311<331.018 747.305> 839 311<331.018 747.305>
LayerCount: 2
Fore
SplineSet
399 -210 m 1
 238 -139 l 1
 875 1293 l 1
 1044 1220 l 1
 1042 1215 1040 1210 1038 1206 c 2
 399 -210 l 1
EndSplineSet
Refer: 80 111 N 1 0 0 1 0 0 2
EndChar

StartChar: oe
Encoding: 290 339 148
Width: 1956
Flags: W
HStem: -18 221<487.084 771.557 1276.01 1644.22> 462 203<1164 1644> 878 221<487.084 771.535 1276 1560.9>
VStem: 80 273<344.146 729.866>
LayerCount: 2
Fore
SplineSet
1164 665 m 1
 1644 665 l 1
 1624 795 1558 878 1421 878 c 0
 1277 878 1192 778 1164 665 c 1
906 535 m 0
 906 766 767 878 630 878 c 0
 493 878 353 766 353 535 c 0
 353 310 493 203 630 203 c 0
 767 203 906 310 906 535 c 0
1886 144 m 1
 1775 44 1640 -18 1421 -18 c 0
 1247 -18 1115 57 1030 169 c 1
 943 56 811 -18 630 -18 c 0
 264 -18 80 258 80 535 c 0
 80 814 264 1099 630 1099 c 0
 811 1099 943 1021 1028 909 c 1
 1117 1026 1249 1099 1418 1099 c 0
 1745 1099 1914 856 1914 561 c 0
 1914 533 1913 505 1913 477 c 2
 1913 462 l 1
 1155 462 l 1
 1183 306 1263 203 1442 203 c 0
 1598 203 1694 263 1769 334 c 1
 1886 144 l 1
EndSplineSet
EndChar

StartChar: germandbls
Encoding: 223 223 149
Width: 1340
Flags: W
HStem: -17 232<678.875 967.507> 6 21G<172 440> 1254 224<519.083 794.369>
VStem: 172 268<6 1171.95> 835 291<1017.02 1211.13> 1002 287<250.15 447.948>
LayerCount: 2
Fore
SplineSet
659 1478 m 0x78
 898 1478 1126 1368 1126 1121 c 0x78
 1126 950 977 851 865 783 c 1
 1024 703 1204 627 1263 464 c 1
 1263 464 1289 361 1289 346 c 0
 1289 112 1110 -17 866 -17 c 0
 730 -17 601 20 518 85 c 1
 493 104 l 1
 506 134 l 1
 528 180 547 223 568 270 c 1
 586 313 l 1
 625 289 l 2
 685 252 765 215 849 215 c 0
 950 215 1002 265 1002 353 c 0xb4
 1002 395 977 429 946 460 c 0
 875 531 757 580 655 641 c 0
 617 663 563 704 563 772 c 0
 563 832 605 871 639 896 c 0
 729 962 835 1019 835 1121 c 0
 835 1206 766 1254 658 1254 c 0
 498 1254 440 1156 440 993 c 2
 440 6 l 1
 172 6 l 1
 172 1007 l 2
 172 1303 349 1478 659 1478 c 0x78
EndSplineSet
EndChar

StartChar: onesuperior
Encoding: 185 185 150
Width: 1180
Flags: W
LayerCount: 2
Fore
SplineSet
398 1431 m 1
 551 1453 l 1
 551 781 l 1
 667 781 l 1
 667 594 l 1
 240 594 l 1
 240 793 l 1
 355 793 l 1
 355 1019 l 2
 355 1074 354 1118 354 1167 c 2
 354 1200 l 1
 322 1185 294 1175 264 1164 c 2
 210 1143 l 1
 211 1348 l 1
 239 1356 l 1
 301 1375 348 1401 396 1430 c 1
 397 1430 l 1
398 1431 m 1
 397 1430 l 1
EndSplineSet
EndChar

StartChar: logicalnot
Encoding: 172 172 151
Width: 1419
Flags: W
HStem: 599 219<175 1012>
VStem: 1012 222<228 599>
LayerCount: 2
Fore
SplineSet
1234 818 m 1
 1234 228 l 1
 1012 228 l 1
 1012 599 l 1
 175 599 l 1
 175 818 l 1
 1234 818 l 1
EndSplineSet
EndChar

StartChar: mu
Encoding: 291 956 152
Width: 1220
Flags: W
HStem: -18 234<465.184 749.723> 1035 21G<131 395 824 1087>
VStem: 131 264<286.717 1056> 131 237<-196 45> 824 263<289.159 1055>
LayerCount: 2
Fore
SplineSet
609 216 m 0xe8
 744 216 824 299 824 421 c 2
 824 1055 l 1
 1087 1055 l 1
 1087 417 l 2
 1087 152 893 -18 609 -18 c 0
 513 -18 430 6 368 45 c 1
 368 -196 l 1
 131 -196 l 1xd8
 131 1056 l 1
 395 1056 l 1
 395 422 l 2
 395 298 474 216 609 216 c 0xe8
EndSplineSet
EndChar

StartChar: trademark
Encoding: 292 8482 153
Width: 1792
Flags: W
HStem: 676 795<293 497 756 958 1428 1624> 1290 181<52 293 497 729>
VStem: 293 204<676 1290> 756 202<676 1110> 1428 196<676 1120>
LayerCount: 2
Fore
SplineSet
52 1290 m 1x78
 51 1471 l 1
 729 1471 l 1
 729 1290 l 1
 497 1290 l 1x78
 497 676 l 1
 293 676 l 1xb8
 293 1290 l 1
 52 1290 l 1x78
756 676 m 1xb8
 756 1471 l 1xb8
 1007 1471 l 1
 1195 983 l 1
 1391 1471 l 1x78
 1624 1471 l 1
 1624 676 l 1
 1428 676 l 1
 1428 1120 l 1
 1248 676 l 1
 1127 676 l 1
 958 1110 l 1
 958 676 l 1
 756 676 l 1xb8
EndSplineSet
EndChar

StartChar: Eth
Encoding: 208 208 154
Width: 1587
Flags: W
HStem: 5 242<470 912.645> 423 214<522 1064> 1205 245<470 913.576>
VStem: 172 298<247 1205> 1178 307<498.695 965.736>
LayerCount: 2
Fore
SplineSet
522 637 m 1
 1064 637 l 1
 1064 423 l 1
 522 423 l 1
 522 637 l 1
586 1205 m 2
 470 1205 l 1
 470 247 l 1
 672 247 l 2
 999 247 1178 414 1178 721 c 0
 1178 1086 987 1205 586 1205 c 2
654 5 m 2
 172 5 l 1
 172 1450 l 1
 564 1450 l 2
 1109 1450 1485 1255 1485 725 c 0
 1485 253 1144 5 654 5 c 2
EndSplineSet
EndChar

StartChar: onehalf
Encoding: 189 189 155
Width: 1900
Flags: W
HStem: -10 21G<330 584.22> 1436 20G<1351.87 1611>
LayerCount: 2
Fore
SplineSet
994 484 m 1
 1002 507 l 1
 979 457 l 1
970 461 m 1
 1050 636 l 2
 1101 749 1218 831 1380 831 c 0
 1548 831 1678 739 1678 581 c 0
 1678 470 1620 392 1568 329 c 0
 1518 269 1453 214 1388 163 c 1
 1676 163 l 1
 1676 -35 l 1
 1038 -35 l 1
 1038 124 l 1
 1189 244 1356 364 1450 502 c 0
 1469 529 1476 552 1476 568 c 0
 1476 609 1445 634 1373 634 c 0
 1295 634 1250 589 1219 527 c 1
 1195 475 l 1
 1048 604 l 1
 1003 481 l 1
330 -10 m 1
 1366 1456 l 1
 1611 1456 l 1
 1606 1448 1601 1441 1596 1433 c 2
 570 -10 l 1
 330 -10 l 1
398 1431 m 1
 551 1453 l 1
 551 781 l 1
 679 781 l 1
 679 594 l 1
 240 594 l 1
 240 793 l 1
 355 793 l 1
 355 1019 l 2
 355 1074 354 1118 354 1167 c 2
 354 1200 l 1
 322 1185 294 1175 264 1164 c 2
 210 1143 l 1
 211 1348 l 1
 239 1356 l 1
 301 1375 348 1401 396 1430 c 1
 397 1430 l 1
398 1431 m 1
 397 1430 l 1
EndSplineSet
EndChar

StartChar: plusminus
Encoding: 177 177 156
Width: 1444
Flags: W
HStem: -10 218<177 597 838 1262> 560 218<180 595 838 1258>
VStem: 597 241<208 560 778 1127>
LayerCount: 2
Fore
SplineSet
180 560 m 1
 162 778 l 1
 595 778 l 1
 595 1127 l 1
 833 1127 l 1
 833 778 l 1
 1258 778 l 1
 1258 560 l 1
 838 560 l 1
 838 208 l 1
 1262 208 l 1
 1262 -10 l 1
 177 -10 l 1
 177 208 l 1
 597 208 l 1
 597 560 l 1
 180 560 l 1
EndSplineSet
EndChar

StartChar: Thorn
Encoding: 222 222 157
Width: 1319
Flags: W
HStem: 5 21G<172 429> 311 233<430 915.487> 1002 206<429 916.344> 1430 20G<172 429>
VStem: 172 257<5 311 544 1002 1208 1450> 1017 263<638.132 910.963>
LayerCount: 2
Fore
SplineSet
1017 772 m 0
 1017 937 903 1002 708 1002 c 2
 429 1002 l 1
 430 544 l 1
 731 544 l 2
 904 544 1017 624 1017 772 c 0
172 1450 m 1
 429 1450 l 1
 429 1208 l 1
 688 1208 l 2
 1010 1208 1280 1084 1280 759 c 0
 1280 459 1013 311 713 311 c 2
 429 311 l 1
 429 5 l 1
 172 5 l 1
 172 1450 l 1
EndSplineSet
EndChar

StartChar: onequarter
Encoding: 188 188 158
Width: 2016
Flags: W
HStem: -10 21G<385 644.096> 190 187<1310 1432 1630 1730> 1436 20G<1411.8 1662>
VStem: 1432 198<27 190 377 539>
LayerCount: 2
Fore
SplineSet
1432 539 m 1
 1310 377 l 1
 1432 377 l 1
 1432 539 l 1
398 1431 m 1
 551 1453 l 1
 551 781 l 1
 679 781 l 1
 679 594 l 1
 240 594 l 1
 240 793 l 1
 355 793 l 1
 355 1019 l 2
 355 1074 354 1118 354 1167 c 2
 354 1200 l 1
 322 1185 294 1175 264 1164 c 2
 210 1143 l 1
 211 1348 l 1
 239 1356 l 1
 301 1375 348 1401 396 1430 c 1
 397 1430 l 1
1629 190 m 1
 1628 27 l 1
 1434 27 l 1
 1434 190 l 1
 1039 190 l 1
 1039 329 l 1
 1441 854 l 1
 1630 854 l 1
 1630 377 l 1
 1730 377 l 1
 1748 190 l 1
 1629 190 l 1
385 -10 m 1
 1426 1456 l 1
 1662 1456 l 1
 1657 1448 1652 1441 1647 1433 c 2
 630 -10 l 1
 385 -10 l 1
398 1431 m 1
 397 1430 l 1
EndSplineSet
EndChar

StartChar: divide
Encoding: 247 247 159
Width: 1511
Flags: W
HStem: 11 290<593 916> 450 219<188 1310> 798 290<593 916>
VStem: 593 323<11 301 798 1088>
LayerCount: 2
Fore
SplineSet
916 11 m 1
 593 11 l 1
 593 301 l 1
 916 301 l 1
 916 11 l 1
916 798 m 1
 593 798 l 1
 593 1088 l 1
 916 1088 l 1
 916 798 l 1
188 450 m 1
 188 669 l 1
 1310 669 l 1
 1310 450 l 1
 188 450 l 1
EndSplineSet
EndChar

StartChar: brokenbar
Encoding: 166 166 160
Width: 524
Flags: W
HStem: 1489 20G<137 381>
VStem: 137 244<-289 361 859 1509>
LayerCount: 2
Fore
SplineSet
381 -289 m 1
 137 -289 l 1
 137 361 l 1
 381 361 l 1
 381 -289 l 1
381 859 m 1
 137 859 l 1
 137 1509 l 1
 381 1509 l 1
 381 859 l 1
EndSplineSet
EndChar

StartChar: degree
Encoding: 176 176 161
Width: 842
Flags: W
HStem: 844 196<303.675 522.955> 1267 196<305.628 520.866>
VStem: 75 199<1071.46 1236.32> 554 198<1071.47 1236.39>
LayerCount: 2
Fore
SplineSet
75 1154 m 0
 75 1334 229 1463 413 1463 c 0
 598 1463 752 1334 752 1154 c 0
 752 974 596 844 413 844 c 0
 229 844 75 975 75 1154 c 0
422 1267 m 0
 419 1267 416 1267 413 1267 c 0
 330 1267 274 1218 274 1155 c 0
 274 1089 330 1040 413 1040 c 0
 497 1040 554 1090 554 1155 c 0
 554 1218 499 1263 422 1267 c 0
EndSplineSet
EndChar

StartChar: thorn
Encoding: 254 254 162
Width: 1298
Flags: W
HStem: -422 21G<157 421> -17 234<535.566 848.88> 851 210<534.456 847.375> 1474 20G<150 421>
VStem: 157 264<-422 91 336.632 730.938 959 1494> 957 270<329.383 737.332>
LayerCount: 2
Fore
SplineSet
957 534 m 0
 957 717 885 851 702 851 c 0
 501 851 420 726 420 534 c 0
 420 341 502 217 702 217 c 0
 886 217 957 351 957 534 c 0
150 1494 m 1
 421 1494 l 1
 421 959 l 1
 497 1022 593 1061 721 1061 c 0
 1066 1061 1227 811 1227 511 c 0
 1227 220 1076 -17 741 -17 c 0
 607 -17 498 25 421 91 c 1
 421 -422 l 1
 157 -422 l 1
 157 1192 l 2
 157 1279 151 1360 150 1454 c 1
 150 1494 l 1
EndSplineSet
EndChar

StartChar: threequarters
Encoding: 190 190 163
Width: 1933
Flags: W
HStem: 192 187<1259 1380 1578 1678> 575 195<313.042 543.872> 935 199<300 528.635> 1262 199<316.477 530.529>
VStem: 534 206<1146.97 1201 1203 1250.93> 557 201<785.962 918.067> 1380 198<29 192 379 541>
LayerCount: 2
Fore
SplineSet
1380 541 m 1xf2
 1259 379 l 1
 1380 379 l 1
 1380 541 l 1xf2
1577 192 m 1
 1576 29 l 1
 1382 29 l 1
 1382 192 l 1
 988 192 l 1
 988 331 l 1
 1390 856 l 1
 1578 856 l 1
 1578 379 l 1
 1678 379 l 1
 1696 192 l 1
 1577 192 l 1
739 1201 m 1
 737 1128 708 1075 668 1037 c 1
 724 994 758 932 758 848 c 0
 758 672 605 575 434 575 c 0
 320 575 233 621 172 685 c 2
 151 707 l 1
 250 872 l 1
 286 837 l 2
 335 790 382 770 431 770 c 0
 513 770 557 802 557 854 c 0xf6
 557 915 505 936 393 936 c 0
 389 936 377 935 365 935 c 2
 300 935 l 1
 300 1134 l 1
 387 1134 l 2
 489 1134 534 1153 534 1202 c 0
 534 1244 510 1262 440 1262 c 0
 375 1262 328 1231 283 1192 c 1
 250 1166 l 2
 248 1165 248 1163 246 1162 c 1
 153 1325 l 1
 173 1347 l 1
 232 1408 328 1461 442 1461 c 0
 601 1461 740 1370 740 1207 c 2
 740 1203 l 1xfa
 739 1201 l 1
1391 1452 m 2
 374 -12 l 1
 612 -12 l 1
 1612 1431 l 2
 1617 1439 1622 1446 1627 1454 c 1
 1392 1454 l 1
 1392 1453 1391 1453 1391 1452 c 2
EndSplineSet
EndChar

StartChar: twosuperior
Encoding: 178 178 164
Width: 1180
Flags: W
HStem: 594 198<570 849> 1103 21G<373.416 402.679> 1263 197<456.953 643.445>
VStem: 649 202<1103.68 1254.65>
LayerCount: 2
Fore
SplineSet
395 1634 m 1
 317 1400 l 1
 441 1702 l 1
253 1240 m 1
 256 1248 258 1256 261 1264 c 1
 270 1261 l 1
 301 1335 l 1
 357 1410 447 1460 562 1460 c 0
 721 1460 851 1368 851 1210 c 0
 851 1099 793 1020 741 958 c 0
 691 898 629 842 570 792 c 1
 849 792 l 1
 849 594 l 1
 251 594 l 1
 251 753 l 1
 388 873 539 993 625 1131 c 0
 642 1158 649 1181 649 1197 c 0
 649 1238 621 1263 556 1263 c 0
 486 1263 445 1218 417 1156 c 1
 394 1103 l 1
 253 1240 l 1
EndSplineSet
EndChar

StartChar: registered
Encoding: 174 174 165
Width: 1758
Flags: W
HStem: -33 190<632.282 1127.02> 628 198<771 878.556> 1032 197<770 1036.91> 1302 191<628.884 1117.25>
VStem: 96 212<485.094 978.844> 542 229<246 628 826 1032> 1050 234<850.088 1010.99> 1448 214<469.24 974.056>
LayerCount: 2
Fore
SplineSet
770 826 m 1
 842 826 l 2
 978 826 1050 840 1050 931 c 0
 1050 1031 981 1032 833 1032 c 2
 770 1032 l 1
 770 826 l 1
1058 662 m 1
 1160 553 1225 417 1294 296 c 1
 1394 400 1448 547 1448 726 c 0
 1448 1073 1235 1302 877 1302 c 0
 755 1302 651 1276 566 1229 c 1
 842 1229 l 2
 1051 1229 1284 1171 1284 936 c 0
 1284 784 1182 697 1058 662 c 1
542 246 m 1
 542 1215 l 1
 391 1119 308 948 308 731 c 0
 308 513 391 343 542 246 c 1
550 241 m 1
 639 187 751 157 884 157 c 0
 1022 157 1139 194 1230 256 c 1
 1081 256 l 1
 957 477 l 2
 916 549 872 601 841 628 c 1
 771 628 l 1
 771 241 l 1
 550 241 l 1
891 1492 m 1
 1113 1488 1294 1409 1415 1301 c 1
 1559 1177 1662 990 1662 730 c 0
 1662 387 1489 165 1257 51 c 0
 1155 0 1029 -33 886 -33 c 0
 650 -33 467 48 343 158 c 1
 200 283 96 470 96 731 c 0
 96 1074 270 1295 496 1409 c 1
 602 1460 735 1493 877 1493 c 2
 891 1493 l 1
 891 1492 l 1
EndSplineSet
EndChar

StartChar: minus
Encoding: 293 8722 166
Width: 1422
Flags: W
HStem: 436 217<173 1237>
LayerCount: 2
Fore
SplineSet
173 436 m 1
 173 653 l 1
 1237 653 l 1
 1237 436 l 1
 173 436 l 1
EndSplineSet
EndChar

StartChar: eth
Encoding: 240 240 167
Width: 1215
Flags: W
HStem: -19 238<461.7 793.875> 754 164<455.645 669.511> 1458 20G<180 539.183 840.402 896.5>
VStem: 70 278<330.52 649.307> 900 267<322.642 477 478 645.638>
LayerCount: 2
Fore
SplineSet
628 219 m 0
 800 219 900 319 900 482 c 0
 900 651 798 754 622 754 c 0
 444 753 348 655 348 485 c 0
 348 323 457 219 628 219 c 0
773 1175 m 1
 877 1058 976 950 1059 818 c 0
 1118 725 1163 621 1165 478 c 1
 1167 477 l 1
 1167 468 l 2
 1167 165 948 -19 621 -19 c 0
 301 -19 70 167 70 461 c 0
 70 737 267 918 567 918 c 0
 603 918 639 914 671 908 c 1
 522 1072 l 1
 283 974 l 1
 210 1175 l 1
 377 1244 l 1
 180 1478 l 1
 523 1478 l 1
 629 1347 l 1
 889 1454 l 1
 964 1254 l 1
 773 1175 l 1
EndSplineSet
EndChar

StartChar: multiply
Encoding: 215 215 168
Width: 1501
Flags: W
LayerCount: 2
Fore
SplineSet
929 559 m 1
 1024 466.032 1120.01 373.987 1214 280 c 1
 1060 130 l 1
 760 399 l 1
 459 130 l 1
 307 279 l 1
 591 559 l 1
 307 828 l 1
 459 988 l 1
 760 718 l 1
 1060 988 l 1
 1214 827 l 1
 929 559 l 1
EndSplineSet
EndChar

StartChar: threesuperior
Encoding: 179 179 169
Width: 1182
Flags: W
HStem: 575 195<364.042 594.872> 935 199<351 579.635> 1262 199<367.477 581.529>
VStem: 585 206<1146.97 1201 1203 1250.93> 608 201<785.962 918.067>
LayerCount: 2
Fore
SplineSet
790 1201 m 1xf0
 788 1128 759 1075 719 1037 c 1
 775 994 809 932 809 848 c 0
 809 672 656 575 485 575 c 0
 371 575 284 621 223 685 c 2
 202 707 l 1
 301 872 l 1
 337 837 l 2
 386 790 433 770 482 770 c 0
 564 770 608 802 608 854 c 0xe8
 608 915 556 936 444 936 c 0
 440 936 428 935 416 935 c 2
 351 935 l 1
 351 1134 l 1
 438 1134 l 2
 540 1134 585 1153 585 1202 c 0
 585 1244 561 1262 491 1262 c 0
 426 1262 379 1231 334 1192 c 1
 301 1166 l 2
 299 1165 299 1163 297 1162 c 1
 204 1325 l 1
 224 1347 l 1
 283 1408 379 1461 493 1461 c 0
 652 1461 791 1370 791 1207 c 2
 791 1203 l 1
 790 1201 l 1xf0
EndSplineSet
EndChar

StartChar: copyright
Encoding: 169 169 170
Width: 1732
Flags: W
HStem: -38 195<645.927 1097.11> 215 211<768.97 1084.06> 1046 208<763.883 1069.4> 1307 199<641.98 866 867 1091.88>
VStem: 83 200<503.705 961.795> 411 234<553.655 921.671> 1440 201<668 962.752>
LayerCount: 2
Fore
SplineSet
1638 675 m 1
 1622 460 1521 303 1407 189 c 1
 1285 65 1111 -38 876 -38 c 0
 639 -38 440 64 315 189 c 0
 190 313 83 491 83 734 c 0
 83 1131 350 1392 672 1479 c 0
 736 1497 803 1506 872 1506 c 0
 1259 1506 1520 1248 1613 936 c 0
 1632 870 1641 802 1641 732 c 2
 1641 668 l 1
 1638 675 l 1
866 1308 m 1
 690 1306 548 1235 447 1143 c 1
 352 1051 283 913 283 735 c 0
 283 550 351 417 447 324 c 1
 552 229 692 157 876 157 c 0
 1051 157 1190 230 1281 323 c 0
 1372 415 1440 552 1440 730 c 0
 1440 915 1372 1046 1280 1140 c 0
 1187 1235 1056 1307 873 1307 c 2
 867 1307 l 1
 866 1308 l 1
1105 976 m 1
 1054 1019 991 1046 904 1046 c 0
 740 1046 645 921 645 739 c 0
 645 543 747 426 929 426 c 0
 1012 426 1071 453 1117 496 c 2
 1160 536 l 1
 1219 329 l 1
 1198 312 l 1
 1114 247 1014 215 900 215 c 0
 616 215 411 441 411 735 c 0
 411 1041 619 1254 909 1254 c 0
 1020 1254 1117 1215 1197 1140 c 2
 1214 1124 l 1
 1167 925 l 2
 1166 922 1166 919 1165 916 c 1
 1104 975 l 1
 1105 976 l 1
EndSplineSet
EndChar

StartChar: Aacute
Encoding: 193 193 171
Width: 1354
Flags: W
HStem: 5 21G<18 305.226 1084.73 1374> 434 225<534 856> 1530 21G<441 676.333> 1870 20G<564.332 988>
LayerCount: 2
Fore
SplineSet
658 1530 m 1
 441 1530 l 1
 668 1890 l 1
 988 1890 l 1
 658 1530 l 1
856 659 m 1
 698 1149 l 1
 534 659 l 1
 856 659 l 1
936 434 m 1
 453 434 l 1
 298 5 l 1
 18 5 l 1
 572 1450 l 1
 820 1450 l 1
 1374 5 l 1
 1092 5 l 1
 936 434 l 1
EndSplineSet
EndChar

StartChar: Aring
Encoding: 197 197 175
Width: 1354
Flags: W
HStem: 5 21G<18 305.226 1084.73 1374> 434 225<534 856> 1430 20G<564.332 827.668> 1503 166<636.608 754.298> 1749 165<636.326 754.165>
VStem: 473 163<1672.17 1747.45> 756 164<1670.44 1747.7>
LayerCount: 2
Fore
SplineSet
698 1503 m 0
 576 1503 473 1585 473 1708 c 0
 473 1832 576 1914 697 1914 c 0
 819 1914 920 1831 920 1709 c 0
 920 1588 818 1503 698 1503 c 0
696 1669 m 0
 735 1669 756 1691 756 1709 c 0
 756 1728 737 1749 696 1749 c 0
 657 1749 636 1727 636 1709 c 0
 636 1687 651 1669 696 1669 c 0
856 659 m 1
 698 1149 l 1
 534 659 l 1
 856 659 l 1
936 434 m 1
 453 434 l 1
 298 5 l 1
 18 5 l 1
 572 1450 l 1
 820 1450 l 1
 1374 5 l 1
 1092 5 l 1
 936 434 l 1
EndSplineSet
EndChar

StartChar: Atilde
Encoding: 195 195 176
Width: 1354
Flags: W
HStem: 5 21G<18 305.226 1084.73 1374> 434 225<534 856> 1430 20G<564.332 827.668> 1560 211<670.455 885.226> 1618 211<502.839 726.139>
VStem: 884 185<1771.95 1829>
LayerCount: 2
Fore
SplineSet
1074 1829 m 1xec
 1069 1789 l 1
 1063 1667 994 1560 845 1560 c 0xf4
 697 1560 628 1618 540 1618 c 0
 506 1618 505 1612 504 1593 c 2
 502 1563 l 1
 319 1563 l 1
 321 1601 l 1
 324 1728 401 1829 549 1829 c 0xec
 707 1829 760 1771 857 1771 c 0xf4
 880 1771 882 1775 884 1800 c 2
 887 1829 l 1
 1074 1829 l 1xec
856 659 m 1
 698 1149 l 1
 534 659 l 1
 856 659 l 1
936 434 m 1
 453 434 l 1
 298 5 l 1
 18 5 l 1
 572 1450 l 1
 820 1450 l 1
 1374 5 l 1
 1092 5 l 1
 936 434 l 1
EndSplineSet
EndChar

StartChar: Eacute
Encoding: 201 201 178
Width: 1268
Flags: W
HStem: 5 238<473 1148> 641 238<473 1091> 1212 238<473 1118> 1530 21G<484 726> 1870 20G<703.111 1049>
VStem: 172 301<243 641 879 1212>
LayerCount: 2
Fore
SplineSet
707 1530 m 1
 484 1530 l 1
 716 1890 l 1
 1049 1890 l 1
 707 1530 l 1
1118 1212 m 1
 473 1212 l 1
 473 879 l 1
 1091 879 l 1
 1091 641 l 1
 473 641 l 1
 473 243 l 1
 1168 243 l 1
 1148 5 l 1
 172 5 l 1
 172 1450 l 1
 1138 1450 l 1
 1118 1212 l 1
EndSplineSet
EndChar

StartChar: Edieresis
Encoding: 203 203 180
Width: 1268
Flags: W
HStem: 5 238<473 1148> 641 238<473 1091> 1212 238<473 1118> 1584 245<369 611 733 970>
VStem: 172 301<243 641 879 1212> 369 242<1584 1829> 733 237<1584 1829>
LayerCount: 2
Fore
SplineSet
369 1584 m 1xf6
 369 1829 l 1
 611 1829 l 1
 611 1584 l 1
 369 1584 l 1xf6
733 1584 m 1
 733 1829 l 1
 970 1829 l 1
 970 1584 l 1
 733 1584 l 1
1118 1212 m 1
 473 1212 l 1
 473 879 l 1
 1091 879 l 1
 1091 641 l 1
 473 641 l 1
 473 243 l 1
 1168 243 l 1
 1148 5 l 1
 172 5 l 1
 172 1450 l 1xfa
 1138 1450 l 1
 1118 1212 l 1
EndSplineSet
EndChar

StartChar: Iacute
Encoding: 205 205 182
Width: 638
Flags: W
HStem: 5 21G<183 481> 1530 21G<59 311.611> 1870 20G<183 645>
VStem: 183 298<5 1450>
LayerCount: 2
Fore
SplineSet
292 1530 m 1
 59 1530 l 1
 302 1890 l 1
 645 1890 l 1
 292 1530 l 1
481 5 m 1
 183 5 l 1
 183 1450 l 1
 481 1450 l 1
 481 5 l 1
EndSplineSet
EndChar

StartChar: Idieresis
Encoding: 207 207 184
Width: 638
Flags: W
HStem: 5 21G<170 468> 1430 20G<170 468> 1584 245<9 255 383 629>
VStem: 9 246<1584 1829> 170 298<5 1450> 383 246<1584 1829>
LayerCount: 2
Fore
SplineSet
9 1584 m 1xf0
 9 1829 l 1
 255 1829 l 1
 255 1584 l 1
 9 1584 l 1xf0
383 1584 m 1xe4
 383 1829 l 1
 629 1829 l 1
 629 1584 l 1
 383 1584 l 1xe4
468 5 m 1xe8
 170 5 l 1
 170 1450 l 1
 468 1450 l 1
 468 5 l 1xe8
EndSplineSet
EndChar

StartChar: Oacute
Encoding: 211 211 187
Width: 1662
Flags: W
HStem: -18 245<644.053 1018.06> 1233 245<643.675 1018.44> 1530 21G<578 812.167> 1870 20G<790.5 1121>
VStem: 96 307<496.128 955.933> 1260 307<496.128 955.933>
LayerCount: 2
Fore
SplineSet
794 1530 m 1
 578 1530 l 1
 803 1890 l 1
 1121 1890 l 1
 794 1530 l 1
831 1478 m 0
 1251 1478 1567 1161 1567 727 c 0
 1567 298 1250 -18 831 -18 c 0
 412 -18 96 298 96 727 c 0
 96 1161 411 1478 831 1478 c 0
831 1233 m 0
 548 1233 403 979 403 722 c 0
 403 465 549 227 831 227 c 0
 1113 227 1260 465 1260 722 c 0
 1260 979 1114 1233 831 1233 c 0
EndSplineSet
EndChar

StartChar: Otilde
Encoding: 213 213 191
Width: 1662
Flags: W
HStem: -18 245<644.053 1018.06> 1233 245<643.675 1018.44> 1560 211<806.218 1019.86> 1618 211<642.596 861.742>
VStem: 96 307<496.128 955.933> 1260 307<496.128 955.933>
LayerCount: 2
Fore
SplineSet
1207 1829 m 1xdc
 1202 1789 l 1
 1196 1667 1128 1560 980 1560 c 0xec
 833 1560 764 1618 677 1618 c 0
 643 1618 642 1612 641 1593 c 2
 639 1563 l 1
 457 1563 l 1
 458 1601 l 2
 461 1728 538 1829 685 1829 c 0xdc
 842 1829 896 1771 992 1771 c 0xec
 1014 1771 1016 1775 1018 1800 c 1
 1022 1829 l 1
 1207 1829 l 1xdc
831 1478 m 0
 1251 1478 1567 1161 1567 727 c 0
 1567 298 1250 -18 831 -18 c 0
 412 -18 96 298 96 727 c 0
 96 1161 411 1478 831 1478 c 0
831 1233 m 0
 548 1233 403 979 403 722 c 0
 403 465 549 227 831 227 c 0
 1113 227 1260 465 1260 722 c 0
 1260 979 1114 1233 831 1233 c 0
EndSplineSet
EndChar

StartChar: Uacute
Encoding: 218 218 193
Width: 1502
Flags: W
HStem: -18 245<548.205 955.61> 1450 420G<164 435 710.278 1046 1069 1340> 1530 21G<494 732.444>
VStem: 164 271<346.188 1450> 1069 271<346.575 1450>
LayerCount: 2
Fore
SplineSet
714 1530 m 1xb8
 494 1530 l 1
 723 1890 l 1
 1046 1890 l 1
 714 1530 l 1xb8
752 227 m 0
 994 227 1069 329 1069 563 c 2
 1069 1450 l 1
 1340 1450 l 1
 1340 548 l 2
 1340 184 1146 -18 752 -18 c 0
 357 -18 164 183 164 548 c 2
 164 1450 l 1
 435 1450 l 1xd8
 435 563 l 2
 435 329 510 227 752 227 c 0
EndSplineSet
EndChar

StartChar: Udieresis
Encoding: 220 220 195
Width: 1502
Flags: W
HStem: -18 245<548.205 955.61> 1430 20G<164 435 1069 1340> 1584 245<460 692 812 1044>
VStem: 164 271<346.188 1450> 460 232<1584 1829> 812 232<1584 1829> 1069 271<346.575 1450>
LayerCount: 2
Fore
SplineSet
460 1584 m 1
 460 1829 l 1
 692 1829 l 1
 692 1584 l 1
 460 1584 l 1
812 1584 m 1
 812 1829 l 1
 1044 1829 l 1
 1044 1584 l 1
 812 1584 l 1
752 227 m 0
 994 227 1069 329 1069 563 c 2
 1069 1450 l 1
 1340 1450 l 1
 1340 548 l 2
 1340 184 1146 -18 752 -18 c 0
 357 -18 164 183 164 548 c 2
 164 1450 l 1
 435 1450 l 1
 435 563 l 2
 435 329 510 227 752 227 c 0
EndSplineSet
EndChar

StartChar: Ydieresis
Encoding: 295 376 198
Width: 1218
Flags: W
HStem: 5 21G<522 819> 1430 20G<-12 292.241 1027.58 1337> 1524 245<358 588 707 938>
VStem: 358 230<1524 1769> 522 297<5 575> 707 231<1524 1769>
LayerCount: 2
Fore
SplineSet
358 1524 m 1xf0
 358 1769 l 1
 588 1769 l 1
 588 1524 l 1
 358 1524 l 1xf0
707 1524 m 1xe4
 707 1769 l 1
 938 1769 l 1
 938 1524 l 1
 707 1524 l 1xe4
281 1450 m 1
 657 781 l 1
 1039 1450 l 1
 1337 1450 l 1
 819 575 l 1
 819 5 l 1
 522 5 l 1
 522 575 l 1xe8
 -12 1450 l 1
 281 1450 l 1
EndSplineSet
EndChar

StartChar: aacute
Encoding: 225 225 200
Width: 1225
Flags: W
HStem: -18 209<412.483 777.587> 5 21G<919.765 1137> 435 182<451.149 856> 880 219<383.097 827.692> 1491 20G<663.667 1033>
VStem: 119 271<219.26 382.944> 856 281<238.253 435 617 845.159>
LayerCount: 2
Fore
SplineSet
666 1151 m 1x3e
 420 1151 l 1
 678 1511 l 1
 1033 1511 l 1
 666 1151 l 1x3e
791 435 m 2
 556 435 390 414 390 314 c 0
 390 229 436 191 556 191 c 0xbe
 678 191 762 221 856 253 c 1
 856 435 l 1
 791 435 l 2
182 993 m 1
 301 1052 454 1099 662 1099 c 0
 932 1099 1137 1014 1137 771 c 2
 1137 5 l 1
 928 5 l 1x7e
 900 73 l 1
 784 23 663 -18 502 -18 c 0
 280 -18 119 93 119 292 c 0
 119 597 468 617 795 617 c 2
 856 617 l 1
 856 739 l 2
 856 843 808 880 667 880 c 0
 475 880 348 832 244 773 c 1
 182 993 l 1
EndSplineSet
EndChar

StartChar: aring
Encoding: 229 229 204
Width: 1225
Flags: W
HStem: -18 209<412.483 777.587> 5 21G<919.765 1137> 435 182<451.149 856> 880 219<383.097 827.692> 1124 166<560.102 694.284> 1370 165<559.821 694.318>
VStem: 119 271<219.26 382.944> 375 184<1293.59 1365.18> 697 185<1294.67 1365.54> 856 281<238.253 435 617 845.159>
LayerCount: 2
Fore
SplineSet
630 1124 m 0x3d80
 492 1124 375 1205 375 1329 c 0
 375 1454 492 1535 629 1535 c 0
 767 1535 882 1453 882 1330 c 0
 882 1208 765 1124 630 1124 c 0x3d80
628 1290 m 0
 673 1290 697 1313 697 1330 c 0
 697 1349 675 1370 628 1370 c 0
 583 1370 559 1347 559 1330 c 0
 559 1309 576 1290 628 1290 c 0
791 435 m 2
 556 435 390 414 390 314 c 0
 390 229 436 191 556 191 c 0
 678 191 762 221 856 253 c 1
 856 435 l 1xbe40
 791 435 l 2
182 993 m 1
 301 1052 454 1099 662 1099 c 0
 932 1099 1137 1014 1137 771 c 2
 1137 5 l 1
 928 5 l 1x7e40
 900 73 l 1
 784 23 663 -18 502 -18 c 0
 280 -18 119 93 119 292 c 0
 119 597 468 617 795 617 c 2
 856 617 l 1
 856 739 l 2
 856 843 808 880 667 880 c 0
 475 880 348 832 244 773 c 1
 182 993 l 1
EndSplineSet
EndChar

StartChar: atilde
Encoding: 227 227 205
Width: 1225
Flags: W
HStem: -18 209<412.483 777.587> 5 21G<919.765 1137> 435 182<451.149 856> 880 219<383.097 827.692> 1181 211<598.801 843.479> 1239 211<408.537 662.359>
VStem: 119 271<219.26 382.944> 856 281<238.253 435 617 845.159>
LayerCount: 2
Fore
SplineSet
1048 1450 m 1x37
 1043 1410 l 1
 1036 1288 962 1181 798 1181 c 0x3b
 630 1181 551 1239 451 1239 c 0
 412 1239 410 1232 409 1214 c 2
 407 1184 l 1
 209 1184 l 1
 211 1222 l 1
 214 1349 297 1450 460 1450 c 0x37
 639 1450 701 1392 812 1392 c 0x3b
 838 1392 840 1397 843 1421 c 2
 847 1450 l 1
 1048 1450 l 1x37
791 435 m 2
 556 435 390 414 390 314 c 0
 390 229 436 191 556 191 c 0xb3
 678 191 762 221 856 253 c 1
 856 435 l 1
 791 435 l 2
182 993 m 1
 301 1052 454 1099 662 1099 c 0
 932 1099 1137 1014 1137 771 c 2
 1137 5 l 1
 928 5 l 1x73
 900 73 l 1
 784 23 663 -18 502 -18 c 0
 280 -18 119 93 119 292 c 0
 119 597 468 617 795 617 c 2
 856 617 l 1
 856 739 l 2
 856 843 808 880 667 880 c 0
 475 880 348 832 244 773 c 1
 182 993 l 1
EndSplineSet
EndChar

StartChar: eacute
Encoding: 233 233 207
Width: 1177
Flags: W
HStem: -18 221<486.758 862.942> 462 203<369 863> 878 221<488.511 777.356> 1491 20G<635.167 977>
LayerCount: 2
Fore
SplineSet
638 1151 m 1
 417 1151 l 1
 648 1511 l 1
 977 1511 l 1
 638 1151 l 1
369 665 m 1
 863 665 l 1
 842 795 775 878 634 878 c 0
 485 878 398 778 369 665 c 1
1106 144 m 1
 995 44 860 -18 634 -18 c 0
 270 -18 74 256 74 541 c 0
 74 841 288 1099 631 1099 c 0
 966 1099 1134 856 1134 561 c 0
 1134 533 1133 505 1133 477 c 2
 1133 462 l 1
 359 462 l 1
 388 306 471 203 656 203 c 0
 817 203 914 263 989 334 c 1
 1106 144 l 1
EndSplineSet
EndChar

StartChar: edieresis
Encoding: 235 235 209
Width: 1177
Flags: W
HStem: -18 221<486.758 862.942> 462 203<369 863> 878 221<488.511 777.356> 1205 245<309 543 664 898>
VStem: 309 234<1205 1450> 664 234<1205 1450>
LayerCount: 2
Fore
SplineSet
309 1205 m 1
 309 1450 l 1
 543 1450 l 1
 543 1205 l 1
 309 1205 l 1
664 1205 m 1
 664 1450 l 1
 898 1450 l 1
 898 1205 l 1
 664 1205 l 1
369 665 m 1
 863 665 l 1
 842 795 775 878 634 878 c 0
 485 878 398 778 369 665 c 1
1106 144 m 1
 995 44 860 -18 634 -18 c 0
 270 -18 74 256 74 541 c 0
 74 841 288 1099 631 1099 c 0
 966 1099 1134 856 1134 561 c 0
 1134 533 1133 505 1133 477 c 2
 1133 462 l 1
 359 462 l 1
 388 306 471 203 656 203 c 0
 817 203 914 263 989 334 c 1
 1106 144 l 1
EndSplineSet
EndChar

StartChar: iacute
Encoding: 237 237 211
Width: 587
Flags: W
HStem: 5 21G<200 479> 1051 20G<200 479> 1491 20G<295.5 652>
VStem: 200 279<5 1071>
LayerCount: 2
Fore
SplineSet
299 1151 m 1
 66 1151 l 1
 309 1511 l 1
 652 1511 l 1
 299 1151 l 1
479 5 m 1
 200 5 l 1
 200 1071 l 1
 479 1071 l 1
 479 5 l 1
EndSplineSet
EndChar

StartChar: idieresis
Encoding: 239 239 213
Width: 587
Flags: W
HStem: 5 21G<187 466> 1051 20G<187 466> 1205 245<16 262 390 636>
VStem: 16 246<1205 1450> 187 279<5 1071> 390 246<1205 1450>
LayerCount: 2
Fore
SplineSet
16 1205 m 1xf0
 16 1450 l 1
 262 1450 l 1
 262 1205 l 1
 16 1205 l 1xf0
390 1205 m 1xe4
 390 1450 l 1
 636 1450 l 1
 636 1205 l 1
 390 1205 l 1xe4
466 5 m 1xe8
 187 5 l 1
 187 1071 l 1
 466 1071 l 1
 466 5 l 1xe8
EndSplineSet
EndChar

StartChar: oacute
Encoding: 243 243 216
Width: 1274
Flags: W
HStem: -18 221<490.881 783.293> 878 221<491.102 783.072> 1491 20G<596.222 933>
VStem: 80 274<344.146 729.866> 921 274<344.146 729.866>
LayerCount: 2
Fore
SplineSet
599 1151 m 1
 379 1151 l 1
 609 1511 l 1
 933 1511 l 1
 599 1151 l 1
921 535 m 0
 921 766 777 878 637 878 c 0
 497 878 354 766 354 535 c 0
 354 310 496 203 637 203 c 0
 778 203 921 310 921 535 c 0
637 -18 m 0
 263 -18 80 258 80 535 c 0
 80 814 263 1099 637 1099 c 0
 1011 1099 1195 814 1195 535 c 0
 1195 258 1011 -18 637 -18 c 0
EndSplineSet
EndChar

StartChar: otilde
Encoding: 245 245 220
Width: 1274
Flags: W
HStem: -18 221<490.881 783.293> 878 221<491.102 783.072> 1181 211<611.44 829.172> 1239 211<445.139 668.007>
VStem: 80 274<344.146 729.866> 828 193<1392.95 1450> 921 274<344.146 729.866>
LayerCount: 2
Fore
SplineSet
1026 1450 m 1xdc
 1021 1410 l 1
 1014 1288 940 1181 788 1181 c 0xec
 639 1181 568 1239 480 1239 c 0
 446 1239 445 1233 444 1214 c 2
 442 1184 l 1
 250 1184 l 1
 252 1222 l 1
 255 1349 338 1450 488 1450 c 0xdc
 648 1450 703 1392 801 1392 c 0xec
 824 1392 826 1396 828 1421 c 2
 831 1450 l 1
 1026 1450 l 1xdc
921 535 m 0xca
 921 766 777 878 637 878 c 0
 497 878 354 766 354 535 c 0
 354 310 496 203 637 203 c 0
 778 203 921 310 921 535 c 0xca
637 -18 m 0
 263 -18 80 258 80 535 c 0
 80 814 263 1099 637 1099 c 0
 1011 1099 1195 814 1195 535 c 0
 1195 258 1011 -18 637 -18 c 0
EndSplineSet
EndChar

StartChar: scaron
Encoding: 297 353 221
Width: 1086
Flags: W
HStem: -16 228<324.907 718.257> 842 231<414.757 794.746> 1490 20G<152 413.909 699.312 965>
VStem: 135 262<689.059 819.793> 734 263<233.063 377.565>
LayerCount: 2
Fore
SplineSet
721 1510 m 1
 965 1510 l 1
 669 1149 l 1
 451 1149 l 1
 152 1510 l 1
 393 1510 l 1
 554 1356 l 1
 721 1510 l 1
552 212 m 0
 687 212 734 237 734 312 c 0
 734 367 680 397 576 420 c 1
 458 450 l 1
 300 488 135 559 135 761 c 0
 135 978 334 1073 563 1073 c 0
 714 1073 833 1042 927 979 c 1
 953 962 l 1
 877 752 l 1
 835 777 l 1
 777 813 683 842 569 842 c 0
 455 842 397 814 397 756 c 0
 397 692 440 681 539 659 c 2
 679 627 l 1
 839 587 997 518 997 313 c 0
 997 86 810 -16 568 -16 c 0
 385 -16 231 27 136 108 c 1
 115 125 l 1
 195 350 l 1
 240 310 l 2
 301 255 411 212 552 212 c 0
EndSplineSet
EndChar

StartChar: uacute
Encoding: 250 250 222
Width: 1219
Flags: W
HStem: -18 241<484.754 775.489> 1051 20G<131 410 851 1130> 1491 20G<588 933>
VStem: 131 279<305.565 1071> 851 279<305.565 1071>
LayerCount: 2
Fore
SplineSet
592 1151 m 1
 367 1151 l 1
 601 1511 l 1
 933 1511 l 1
 592 1151 l 1
1130 1071 m 1
 1130 424 l 2
 1130 156 928 -18 630 -18 c 0
 332 -18 131 156 131 424 c 2
 131 1071 l 1
 410 1071 l 1
 410 432 l 2
 410 307 494 223 630 223 c 0
 766 223 851 307 851 432 c 2
 851 1071 l 1
 1130 1071 l 1
EndSplineSet
EndChar

StartChar: udieresis
Encoding: 252 252 224
Width: 1219
Flags: W
HStem: -18 241<484.754 775.489> 1051 20G<131 410 851 1130> 1205 245<330 569 692 931>
VStem: 131 279<305.565 1071> 330 239<1205 1450> 692 239<1205 1450> 851 279<305.565 1071>
LayerCount: 2
Fore
SplineSet
330 1205 m 1xe8
 330 1450 l 1
 569 1450 l 1
 569 1205 l 1
 330 1205 l 1xe8
692 1205 m 1xe4
 692 1450 l 1
 931 1450 l 1
 931 1205 l 1
 692 1205 l 1xe4
1130 1071 m 1xf2
 1130 424 l 2
 1130 156 928 -18 630 -18 c 0
 332 -18 131 156 131 424 c 2
 131 1071 l 1
 410 1071 l 1
 410 432 l 2
 410 307 494 223 630 223 c 0
 766 223 851 307 851 432 c 2
 851 1071 l 1
 1130 1071 l 1xf2
EndSplineSet
EndChar

StartChar: ydieresis
Encoding: 255 255 227
Width: 1132
Flags: W
HStem: -382 232<130 378.899> 1051 20G<29 328.397 866.17 1160> 1202 245<299 532 653 886>
VStem: 299 233<1202 1447> 653 233<1202 1447>
LayerCount: 2
Fore
SplineSet
299 1202 m 1
 299 1447 l 1
 532 1447 l 1
 532 1202 l 1
 299 1202 l 1
653 1202 m 1
 653 1447 l 1
 886 1447 l 1
 886 1202 l 1
 653 1202 l 1
468 49 m 1
 29 1071 l 1
 321 1071 l 1
 608 295 l 1
 873 1071 l 1
 1160 1071 l 1
 736 14 l 1
 681 -255 506 -382 167 -382 c 2
 130 -382 l 1
 130 -150 l 1
 167 -150 l 2
 363 -150 455 -96 468 49 c 1
EndSplineSet
EndChar

StartChar: zcaron
Encoding: 298 382 228
Width: 1026
Flags: W
HStem: 5 223<398 966> 847 224<71 601> 1490 20G<102 360.779 643.571 908>
LayerCount: 2
Fore
SplineSet
665 1510 m 1
 908 1510 l 1
 613 1149 l 1
 397 1149 l 1
 102 1510 l 1
 340 1510 l 1
 500 1356 l 1
 665 1510 l 1
966 5 m 1
 45 5 l 1
 45 174 l 1
 601 847 l 1
 71 847 l 1
 71 1071 l 1
 950 1071 l 1
 950 905 l 1
 398 228 l 1
 966 228 l 1
 966 5 l 1
EndSplineSet
EndChar

StartChar: foursuperior
Encoding: 299 8308 229
Width: 889
Flags: W
HStem: 768 187<209 308 506 606> 1412 20G<257.5 506>
VStem: 308 198<605 768 955 1115>
LayerCount: 2
Fore
SplineSet
308 1115 m 1
 209 955 l 1
 308 955 l 1
 308 1115 l 1
505 768 m 1
 504 605 l 1
 310 605 l 1
 310 768 l 1
 -38 768 l 1
 -38 907 l 1
 80 1082 198 1257 317 1432 c 1
 506 1432 l 1
 506 955 l 1
 606 955 l 1
 623 768 l 1
 505 768 l 1
EndSplineSet
EndChar

StartChar: uni00AF
Encoding: 175 175 232
Width: 862
Flags: W
HStem: 1320 210<-17 882>
LayerCount: 2
Fore
SplineSet
-17 1530 m 1
 882 1530 l 1
 882 1320 l 1
 -17 1320 l 1
 -17 1530 l 1
EndSplineSet
EndChar

StartChar: periodcentered.001
Encoding: 183 183 233
Width: 471
Flags: W
HStem: 453 290<57 343>
VStem: 57 286<453 743>
LayerCount: 2
Fore
SplineSet
57 743 m 1
 343 743 l 1
 343 453 l 1
 57 453 l 1
 57 743 l 1
EndSplineSet
EndChar

StartChar: amacron
Encoding: 301 257 235
Width: 1225
Flags: W
HStem: -18 209<412.483 777.587> 5 21G<919.765 1137> 435 182<451.149 856> 880 219<383.097 827.692> 1233 217<302 955>
VStem: 119 271<219.26 382.944> 856 281<238.253 435 617 845.159>
LayerCount: 2
Fore
SplineSet
302 1233 m 1x3e
 302 1450 l 1
 955 1450 l 1
 955 1233 l 1
 302 1233 l 1x3e
791 435 m 2
 556 435 390 414 390 314 c 0
 390 229 436 191 556 191 c 0xbe
 678 191 762 221 856 253 c 1
 856 435 l 1
 791 435 l 2
182 993 m 1
 301 1052 454 1099 662 1099 c 0
 932 1099 1137 1014 1137 771 c 2
 1137 5 l 1
 928 5 l 1x7e
 900 73 l 1
 784 23 663 -18 502 -18 c 0
 280 -18 119 93 119 292 c 0
 119 597 468 617 795 617 c 2
 856 617 l 1
 856 739 l 2
 856 843 808 880 667 880 c 0
 475 880 348 832 244 773 c 1
 182 993 l 1
EndSplineSet
EndChar

StartChar: abreve
Encoding: 303 259 237
Width: 1225
Flags: W
HStem: -18 209<412.483 777.587> 5 21G<919.765 1137> 435 182<451.149 856> 880 219<383.097 827.692> 1181 188<516.927 739.073>
VStem: 119 271<219.26 382.944> 741 212<1376.75 1450> 856 281<238.253 435 617 845.159>
LayerCount: 2
Fore
SplineSet
303 1411 m 2x3e
 303 1450 l 1
 515 1450 l 1
 515 1413 l 2
 515 1392 545 1369 628 1369 c 0
 711 1369 741 1392 741 1413 c 2
 741 1450 l 1
 953 1450 l 1
 953 1411 l 2
 953 1259 801 1181 628 1181 c 0
 455 1181 303 1260 303 1411 c 2x3e
791 435 m 2
 556 435 390 414 390 314 c 0
 390 229 436 191 556 191 c 0
 678 191 762 221 856 253 c 1
 856 435 l 1xbd
 791 435 l 2
182 993 m 1
 301 1052 454 1099 662 1099 c 0
 932 1099 1137 1014 1137 771 c 2
 1137 5 l 1
 928 5 l 1x7d
 900 73 l 1
 784 23 663 -18 502 -18 c 0
 280 -18 119 93 119 292 c 0
 119 597 468 617 795 617 c 2
 856 617 l 1
 856 739 l 2
 856 843 808 880 667 880 c 0
 475 880 348 832 244 773 c 1
 182 993 l 1
EndSplineSet
EndChar

StartChar: aogonek
Encoding: 305 261 239
Width: 1225
Flags: W
HStem: -378 188<989.535 1215.52> -18 209<416.761 775.76> 435 182<449.392 851> 880 219<382.282 818.194>
VStem: 119 271<219.26 382.944> 764 224<-259 -102.609> 854 283<238.253 435 617 845.159>
LayerCount: 2
Fore
SplineSet
1230 -336 m 1xfc
 1163 -364 1089 -378 1020 -378 c 0
 897 -378 764 -324 764 -194 c 0xfc
 764 -94 846 -30 925 13 c 1
 899 73 l 1
 782 23 661 -18 501 -18 c 0
 280 -18 119 93 119 292 c 0
 119 597 467 617 790 617 c 2
 851 617 l 1
 851 739 l 2
 851 843 803 880 664 880 c 0
 474 880 347 832 244 773 c 1
 182 993 l 1
 301 1052 453 1099 659 1099 c 0
 928 1099 1137 1014 1137 771 c 2
 1137 43 l 1xfa
 1270 30 l 1
 1225 7 l 1
 1087 -65 988 -117 988 -159 c 0
 988 -171 1005 -190 1043 -190 c 0
 1099 -190 1132 -179 1209 -148 c 1
 1230 -140 l 1
 1230 -336 l 1xfc
789 435 m 2
 555 435 390 414 390 314 c 0
 390 229 435 191 555 191 c 0
 676 191 760 221 854 253 c 1
 854 435 l 1xfa
 789 435 l 2
EndSplineSet
EndChar

StartChar: cacute
Encoding: 307 263 241
Width: 1118
Flags: W
HStem: -18 221<494.913 814.47> 878 221<494.578 819.1> 1491 20G<532.944 875>
VStem: 74 283<350.209 728.599>
LayerCount: 2
Fore
SplineSet
536 1151 m 1
 311 1151 l 1
 546 1511 l 1
 875 1511 l 1
 536 1151 l 1
645 203 m 0
 753.092 203 861.016 255.352 937 344 c 1
 1079 154 l 1
 951 43 792 -18 640 -18 c 0
 356 -18 74 176 74 542 c 0
 74 901 356 1099 641 1099 c 0
 792 1099 948 1039 1077 928 c 1
 936 735 l 1
 868.99 824.347 763.545 878 653 878 c 0
 503 878 357 774 357 544 c 0
 357 308 497 203 645 203 c 0
EndSplineSet
EndChar

StartChar: ccaron
Encoding: 309 269 243
Width: 1118
Flags: W
HStem: -18 221<494.913 814.47> 878 221<494.578 819.1> 1490 20G<173 431.519 711.701 973>
VStem: 74 283<350.209 728.599>
LayerCount: 2
Fore
SplineSet
733 1510 m 1
 973 1510 l 1
 682 1149 l 1
 468 1149 l 1
 173 1510 l 1
 411 1510 l 1
 569 1356 l 1
 733 1510 l 1
645 203 m 0
 753.092 203 861.016 255.352 937 344 c 1
 1079 154 l 1
 951 43 792 -18 640 -18 c 0
 356 -18 74 176 74 542 c 0
 74 901 356 1099 641 1099 c 0
 792 1099 948 1039 1077 928 c 1
 936 735 l 1
 868.99 824.347 763.545 878 653 878 c 0
 503 878 357 774 357 544 c 0
 357 308 497 203 645 203 c 0
EndSplineSet
EndChar

StartChar: emacron
Encoding: 311 275 245
Width: 1177
Flags: W
HStem: -18 221<486.758 862.942> 462 203<369 863> 878 221<488.511 777.356> 1233 217<308 900>
LayerCount: 2
Fore
SplineSet
308 1233 m 1
 308 1450 l 1
 900 1450 l 1
 900 1233 l 1
 308 1233 l 1
369 665 m 1
 863 665 l 1
 842 795 775 878 634 878 c 0
 485 878 398 778 369 665 c 1
1106 144 m 1
 995 44 860 -18 634 -18 c 0
 270 -18 74 256 74 541 c 0
 74 841 288 1099 631 1099 c 0
 966 1099 1134 856 1134 561 c 0
 1134 533 1133 505 1133 477 c 2
 1133 462 l 1
 359 462 l 1
 388 306 471 203 656 203 c 0
 817 203 914 263 989 334 c 1
 1106 144 l 1
EndSplineSet
EndChar

StartChar: eogonek
Encoding: 313 281 247
Width: 1177
Flags: W
HStem: -378 188<627.513 841.206> 462 203<369 863> 878 221<488.511 777.356>
VStem: 421 205<-259 -100.919>
LayerCount: 2
Fore
SplineSet
855 -336 m 1
 791 -364 722 -378 656 -378 c 0
 541 -378 421 -324 421 -194 c 0
 421 -111 473 -52 532 -10 c 1
 234 36 74 284 74 541 c 0
 74 841 288 1099 631 1099 c 0
 966 1099 1134 856 1134 561 c 0
 1134 533 1133 505 1133 477 c 2
 1133 462 l 1
 359 462 l 1
 388 302 471 197 656 197 c 0
 817 197 914 254 989 323 c 1
 1106 139 l 1
 1035 77 954 30 845 4 c 1
 717 -67 626 -117 626 -159 c 0
 626 -171 642 -190 677 -190 c 0
 729 -190 762 -179 835 -148 c 1
 855 -140 l 1
 855 -336 l 1
369 665 m 1
 863 665 l 1
 842 795 775 878 634 878 c 0
 485 878 398 778 369 665 c 1
EndSplineSet
EndChar

StartChar: Gcedilla
Encoding: 314 290 248
Width: 1541
Flags: W
HStem: -18 245<638.699 1080.38> 573 228<771 1108> 1092 21G<1207 1231.48> 1233 245<655.785 1081.22>
VStem: 100 307<485.361 978.052> 1108 245<265.398 573>
LayerCount: 2
Fore
SplineSet
730 -105 m 1
 979 -105 l 1
 809 -648 l 1
 618 -648 l 1
 730 -105 l 1
1353 144 m 1
 1204 57 1052 -18 833 -18 c 0
 395 -18 100 305 100 733 c 0
 100 1158 406 1478 853 1478 c 0
 1042 1478 1196 1423 1318 1316 c 1
 1223 1092 l 1
 1207 1106 l 2
 1114 1187 1007 1233 878 1233 c 0
 555 1233 407 1027 407 732 c 0
 407 436 547 227 840 227 c 0
 945 227 1041 253 1108 283 c 1
 1108 573 l 1
 771 573 l 1
 771 801 l 1
 1353 801 l 1
 1353 144 l 1
EndSplineSet
EndChar

StartChar: gcedilla
Encoding: 315 291 249
Width: 1295
Flags: W
HStem: -421 235<329 763.446> 4 221<459.52 751.809> 878 221<453.068 748.164> 1051 20G<879 1158> 1703 20G<581.665 781>
VStem: 41 274<370.624 727.945> 879 279<356.726 745.126 969 1071>
LayerCount: 2
Fore
SplineSet
668 1180 m 1xce
 416 1180 l 1
 588 1723 l 1
 781 1723 l 1
 668 1180 l 1xce
315 551 m 0
 315 333 460 225 602 225 c 0
 742 225 882 329 882 551 c 0
 882 772 741 878 601 878 c 0xee
 460 878 315 769 315 551 c 0
879 969 m 1
 879 1071 l 1
 1158 1071 l 1xde
 1158 141 l 2
 1158 -260 942 -421 512 -421 c 2
 329 -421 l 1
 329 -186 l 1
 517 -186 l 1
 553 -187 585 -186 616 -183 c 0
 810 -166 897 -82 884 113 c 1
 808 47 709 4 577 4 c 0
 213 4 41 284 41 561 c 0
 41 807 216 1099 558 1099 c 0
 694 1099 802 1048 879 969 c 1
EndSplineSet
EndChar

StartChar: hbar
Encoding: 316 295 250
Width: 1216
Flags: W
HStem: 5 21G<161 424 874 1137> 849 203<546.523 824.779> 1108 214<2 161 424 617> 1472 20G<161 424>
VStem: 161 263<5 741.256 949 1108 1322 1492> 874 263<5 794.86>
LayerCount: 2
Fore
SplineSet
424 1492 m 1
 424 1322 l 1
 617 1322 l 1
 617 1108 l 1
 424 1108 l 1
 424 949 l 1
 502 1014 602 1052 738 1052 c 0
 1024 1052 1137 861 1137 610 c 2
 1137 5 l 1
 874 5 l 1
 875 528 l 2
 875 724 868 849 705 849 c 0
 568 849 453 756 424 668 c 1
 424 5 l 1
 161 5 l 1
 161 1108 l 1
 2 1108 l 1
 2 1322 l 1
 161 1322 l 1
 161 1492 l 1
 424 1492 l 1
EndSplineSet
EndChar

StartChar: Itilde
Encoding: 317 296 251
Width: 662
Flags: W
HStem: 5 21G<187 458> 1430 20G<187 458> 1591 211<331.215 582.34> 1649 211<149.771 396.634>
VStem: 187 271<5 1450>
LayerCount: 2
Fore
SplineSet
784 1860 m 1xd8
 779 1820 l 1
 772 1698 698 1591 539 1591 c 0xe8
 359 1591 284 1649 190 1649 c 0
 153 1649 152 1643 151 1624 c 2
 149 1594 l 1
 -47 1594 l 1
 -45 1632 l 1
 -42 1759 41 1860 199 1860 c 0xd8
 368 1860 425 1802 552 1802 c 0xe8
 577 1802 578 1806 581 1831 c 2
 585 1860 l 1
 784 1860 l 1xd8
458 5 m 1
 187 5 l 1
 187 1450 l 1
 458 1450 l 1
 458 5 l 1
EndSplineSet
EndChar

StartChar: itilde
Encoding: 318 297 252
Width: 573
Flags: W
HStem: 5 21G<158 396.362> 1035 20G<158 415> 1161 211<321.775 559.067> 1219 211<130.771 385.218>
VStem: 158 257<262.747 1055> 158 238<5 797.253>
LayerCount: 2
Fore
SplineSet
761 1430 m 1xd0
 756 1390 l 1
 749 1268 675 1161 516 1161 c 0xe0
 355 1161 273 1219 171 1219 c 0
 134 1219 133 1213 132 1194 c 2
 130 1164 l 1
 -66 1164 l 1
 -64 1202 l 1
 -61 1329 22 1430 180 1430 c 0xd0
 365 1430 426 1372 529 1372 c 0xe0
 554 1372 555 1376 558 1401 c 2
 561 1430 l 1
 761 1430 l 1xd0
396 5 m 1xc4
 158 5 l 1xc4
 158 1055 l 1
 415 1055 l 1xc8
 396 5 l 1xc4
EndSplineSet
EndChar

StartChar: Imacron
Encoding: 319 298 253
Width: 640
Flags: W
HStem: 5 21G<185 456> 1430 20G<185 456> 1538 214<10 633>
VStem: 185 271<5 1450>
LayerCount: 2
Fore
SplineSet
10 1538 m 1
 10 1752 l 1
 633 1752 l 1
 633 1538 l 1
 10 1538 l 1
456 5 m 1
 185 5 l 1
 185 1450 l 1
 456 1450 l 1
 456 5 l 1
EndSplineSet
EndChar

StartChar: imacron
Encoding: 320 299 254
Width: 556
Flags: W
HStem: 5 21G<159 397> 1035 20G<159 397> 1108 214<-6 617>
VStem: 159 238<5 1055>
LayerCount: 2
Fore
SplineSet
-6 1108 m 1
 -6 1322 l 1
 617 1322 l 1
 617 1108 l 1
 -6 1108 l 1
397 5 m 1
 159 5 l 1
 159 1055 l 1
 397 1055 l 1
 397 5 l 1
EndSplineSet
EndChar

StartChar: Iogonek
Encoding: 321 302 255
Width: 640
Flags: W
HStem: -384 188<308.812 536.367> 1430 20G<184 455>
VStem: 92 215<-265 -108.459> 184 271<35 1450>
LayerCount: 2
Fore
SplineSet
242 5 m 1xe0
 184 5 l 1
 184 1450 l 1
 455 1450 l 1
 455 35 l 1xd0
 589 23 l 1
 481 -32 l 1
 407 -71 307 -122 307 -165 c 0
 307 -177 324 -196 362 -196 c 0
 418 -196 452 -185 494 -168 c 2
 549 -146 l 1
 549 -342 l 1
 525 -352 l 2
 474 -374 404 -384 339 -384 c 0
 218 -384 92 -330 92 -200 c 0
 92 -100 170 -36 242 5 c 1xe0
EndSplineSet
EndChar

StartChar: iogonek
Encoding: 322 303 256
Width: 554
Flags: W
HStem: -384 188<265.614 493.367> 1050 20G<158 392> 1320 170<165 389>
VStem: 49 215<-193.722 -83.9767> 158 234<-22.1974 9.27844 87 1070 1320 1490>
LayerCount: 2
Fore
SplineSet
389 1320 m 1xe0
 165 1320 l 1
 165 1490 l 1
 389 1490 l 1
 389 1320 l 1xe0
392 1070 m 1xe8
 392 87 l 1xe8
 534 73 l 1
 487 43 441 12 393 -17 c 1
 393 -82 l 1
 305 -82 l 1
 278 -108 264 -131 264 -154 c 0
 264 -175 285 -196 319 -196 c 0
 375 -196 409 -185 451 -168 c 2
 506 -146 l 1
 506 -342 l 1
 482 -352 l 2
 431 -374 361 -384 296 -384 c 0
 173 -384 49 -322 49 -179 c 0xf0
 49 -89 103 -24 158 20 c 1
 158 1070 l 1
 392 1070 l 1xe8
EndSplineSet
EndChar

StartChar: IJ
Encoding: 323 306 257
Width: 1494
Flags: W
HStem: -18 221<826 1036.46> 5 21G<184 455> 1431 19G<184 455 1067 1339>
VStem: 184 271<5 1450> 1067 272<238.922 1450>
LayerCount: 2
Fore
SplineSet
910 205 m 2xb8
 1047 209 1067 247 1067 400 c 2
 1067 1450 l 1
 1339 1451 l 1
 1339 449 l 2
 1339 124 1237 -18 892 -18 c 2
 826 -18 l 1
 826 203 l 1
 910 205 l 2xb8
455 5 m 1x78
 184 5 l 1
 184 1450 l 1
 455 1450 l 1
 455 5 l 1x78
EndSplineSet
EndChar

StartChar: ij
Encoding: 324 307 258
Width: 1041
Flags: W
HStem: 5 21G<143 407> 1036 20G<143 407 623 888> 1187 264<143 407 623 888>
VStem: 143 264<5 1055 1186 1450> 623 265<-15.7583 1056 1187 1451>
LayerCount: 2
Fore
SplineSet
888 1187 m 1
 623 1187 l 1
 623 1451 l 1
 888 1451 l 1
 888 1187 l 1
825 -136 m 1
 752 -239 621 -262 474 -280 c 1
 429 -286 l 1
 427 -51 l 1
 463 -46 l 1
 609 -29 623 -8 623 152 c 2
 623 1056 l 1
 888 1056 l 1
 888 199 l 2
 888 68 890 -48 825 -136 c 1
407 1186 m 1
 143 1186 l 1
 143 1450 l 1
 407 1450 l 1
 407 1186 l 1
407 5 m 1
 143 5 l 1
 143 1055 l 1
 407 1055 l 1
 407 5 l 1
EndSplineSet
EndChar

StartChar: Jcircumflex
Encoding: 325 308 259
Width: 985
Flags: W
HStem: -18 221<304 527.977> 1522 21G<154 384.367 722 960> 1904 20G<420.07 844>
VStem: 559 285<238.922 1450>
LayerCount: 2
Fore
SplineSet
742 1522 m 1
 546 1718 l 1
 366 1522 l 1
 154 1522 l 1
 434 1924 l 1
 677 1924 l 1
 771 1790 866 1656 960 1522 c 1
 742 1522 l 1
392 205 m 2
 538 209 559 247 559 400 c 2
 559 1450 l 1
 844 1451 l 1
 844 449 l 2
 844 124 743 -18 374 -18 c 2
 304 -18 l 1
 304 203 l 1
 392 205 l 2
EndSplineSet
EndChar

StartChar: jcircumflex
Encoding: 326 309 260
Width: 575
Flags: W
HStem: -425 227<-85.1627 118.305> 1035 20G<167 424> 1090 21G<-39 193 534.224 771> 1472 20G<232.771 505.881>
VStem: 167 257<-143.869 1054>
LayerCount: 2
Fore
SplineSet
553 1090 m 1
 369 1286 l 1
 173 1090 l 1
 -39 1090 l 1
 247 1492 l 1
 492 1492 l 1
 771 1090 l 1
 553 1090 l 1
24 -198 m 0
 135 -198 167 -105 167 65 c 2
 167 1055 l 1
 424 1054 l 1
 424 131 l 2
 424 -120 384 -425 61 -425 c 0
 16 -425 -25 -420 -64 -411 c 2
 -95 -404 l 1
 -96 -180 l 1
 -48 -189 l 2
 -17 -195 8 -198 24 -198 c 0
EndSplineSet
EndChar

StartChar: kcommaaccent
Encoding: 327 311 261
Width: 1133
Flags: W
HStem: 5 21G<170 407 843.461 1187> 1478 20G<170 407>
VStem: 170 237<5 450 663 1498>
LayerCount: 2
Fore
SplineSet
537 -54 m 1
 815 -54 l 1
 621 -597 l 1
 410 -597 l 1
 537 -54 l 1
407 450 m 1
 407 5 l 1
 170 5 l 1
 170 1498 l 1
 407 1498 l 1
 407 663 l 1
 820 1041 l 1
 1156 1041 l 1
 588 550 l 1
 770 388 947 230 1117 71 c 2
 1187 5 l 1
 864 5 l 1
 407 450 l 1
EndSplineSet
EndChar

StartChar: kgreenlandic
Encoding: 328 312 262
Width: 1137
Flags: W
HStem: 5 21G<168.981 406 842.086 1190> 1040 20G<168 405 796.951 1150>
VStem: 169 237<5 423 649 1060>
LayerCount: 2
Fore
SplineSet
406 423 m 1
 406 5 l 1
 169 5 l 1
 168 1060 l 1
 405 1060 l 1
 405 649 l 1
 817 1060 l 1
 1150 1060 l 1
 586 533 l 1
 769 377 945 226 1115 72 c 1
 1190 5 l 1
 864 5 l 1
 406 423 l 1
EndSplineSet
EndChar

StartChar: Ldotaccent
Encoding: 329 319 263
Width: 1158
Flags: W
HStem: 5 238<460 1156> 453 290<595 901> 1430 20G<190 460>
VStem: 190 270<243 1450> 595 306<453 743>
LayerCount: 2
Fore
SplineSet
901 453 m 1
 595 453 l 1
 595 743 l 1
 901 743 l 1
 901 453 l 1
1156 243 m 1
 1156 5 l 1
 190 5 l 1
 190 1450 l 1
 460 1450 l 1
 460 243 l 1
 1156 243 l 1
EndSplineSet
EndChar

StartChar: ldot
Encoding: 330 320 264
Width: 1016
Flags: W
HStem: 5 21G<158 393> 478 290<556 848> 1472 20G<158 393>
VStem: 158 235<5 1492> 556 292<478 768>
LayerCount: 2
Fore
SplineSet
848 478 m 1
 556 478 l 1
 556 768 l 1
 848 768 l 1
 848 478 l 1
393 5 m 1
 158 5 l 1
 158 1492 l 1
 393 1492 l 1
 393 5 l 1
EndSplineSet
EndChar

StartChar: nacute
Encoding: 332 324 266
Width: 1259
Flags: W
HStem: 5 21G<136 415 877 1156> 878 221<546.709 824.546> 1051 20G<133 396.916> 1491 20G<676 1023>
VStem: 133 263<940 1071> 877 279<5 819.297>
LayerCount: 2
Fore
SplineSet
679 1151 m 1x9c
 455 1151 l 1
 689 1511 l 1
 1023 1511 l 1
 679 1151 l 1x9c
136 793 m 2
 136 887 133 1056 133 1071 c 1
 396 1071 l 1xbc
 402 940 l 1
 485 1040 594 1099 747 1099 c 0
 1040 1099 1156 898 1156 637 c 2
 1156 5 l 1
 877 5 l 1
 877 532 l 1
 878 735 876 878 704 878 c 0xdc
 559 878 442 774 413 676 c 1
 415 5 l 1
 136 5 l 1
 136 793 l 2
EndSplineSet
EndChar

StartChar: Rcommaaccent
Encoding: 334 342 268
Width: 1421
Flags: W
HStem: 5 21G<172 444 1078.79 1372> 605 235<445 755.128> 1211 237<445 948.159>
VStem: 172 272<5 605 840 1211> 1016 279<915.169 1148.07>
LayerCount: 2
Fore
SplineSet
696 -105 m 1
 946 -105 l 1
 776 -648 l 1
 584 -648 l 1
 696 -105 l 1
730 1211 m 2
 445 1211 l 1
 445 840 l 1
 689 840 l 2
 899 840 1016 888 1016 1037 c 0
 1016 1164 923 1211 730 1211 c 2
444 5 m 1
 172 5 l 1
 172 1450 l 1
 649 1448 l 1
 986 1448 1295 1383 1295 1043 c 0
 1295 847 1184 725 1017 671 c 1
 1063 628 1105 584 1134 525 c 1
 1372 4 l 1
 1089 3 l 1
 869 434 l 1
 837 500 798 555 757 598 c 1
 717 603 681 605 635 605 c 2
 444 605 l 1
 444 5 l 1
EndSplineSet
EndChar

StartChar: rcommaaccent
Encoding: 335 343 269
Width: 780
Flags: W
HStem: 5 21G<150 429> 871 228<519.348 760.845> 1051 20G<147 410.081>
VStem: 150 279<5 770.982>
LayerCount: 2
Fore
SplineSet
382 -105 m 1x90
 648 -105 l 1
 466 -648 l 1
 262 -648 l 1
 382 -105 l 1x90
679 1099 m 0xd0
 723 1099 747 1093 762 1090 c 1
 762 851 l 1
 728 861 685 871 651 871 c 0xd0
 512 871 429 762 429 592 c 2
 429 5 l 1
 150 5 l 1
 150 823 l 2
 150 900 147 980 147 1056 c 2
 147 1071 l 1
 409 1071 l 1xb0
 415 960 l 1
 478 1043 563 1099 679 1099 c 0xd0
EndSplineSet
EndChar

StartChar: rcaron
Encoding: 337 345 271
Width: 789
Flags: W
HStem: 5 21G<167 446.034> 871 228<540.593 786.845> 1051 20G<164 427.081> 1490 20G<60 320.677 623.774 891>
VStem: 167 279<5 770.982>
LayerCount: 2
Fore
SplineSet
647 1510 m 1x98
 891 1510 l 1
 590 1149 l 1
 359 1149 l 1
 60 1510 l 1
 299 1510 l 1
 467 1355 l 1
 647 1510 l 1x98
705 1099 m 0xd8
 749 1099 773 1093 788 1090 c 1
 788 851 l 1
 754 861 711 871 677 871 c 0xd8
 533 871 447 762 447 592 c 2
 446 5 l 1
 167 5 l 1
 167 823 l 2
 167 900 164 980 164 1056 c 2
 164 1071 l 1
 426 1071 l 1xb8
 432 960 l 1
 498 1043 586 1099 705 1099 c 0xd8
EndSplineSet
EndChar

StartChar: sacute
Encoding: 339 347 273
Width: 1086
Flags: W
HStem: -16 228<324.907 718.257> 842 231<414.757 794.746> 1491 20G<516.667 866>
VStem: 135 262<689.059 819.793> 734 263<233.063 377.565>
LayerCount: 2
Fore
SplineSet
520 1151 m 1
 290 1151 l 1
 530 1511 l 1
 866 1511 l 1
 520 1151 l 1
552 212 m 0
 687 212 734 237 734 312 c 0
 734 367 680 397 576 420 c 1
 458 450 l 1
 300 488 135 559 135 761 c 0
 135 978 334 1073 563 1073 c 0
 714 1073 833 1042 927 979 c 1
 953 962 l 1
 877 752 l 1
 835 777 l 1
 777 813 683 842 569 842 c 0
 455 842 397 814 397 756 c 0
 397 692 440 681 539 659 c 2
 679 627 l 1
 839 587 997 518 997 313 c 0
 997 86 810 -16 568 -16 c 0
 385 -16 231 27 136 108 c 1
 115 125 l 1
 195 350 l 1
 240 310 l 2
 301 255 411 212 552 212 c 0
EndSplineSet
EndChar

StartChar: Tcommaaccent
Encoding: 340 354 274
Width: 1221
Flags: W
HStem: 5 21G<481.669 780> 1212 238<35 462 771 1199>
VStem: 462 309<346.822 1212> 482 298<5 870.178>
LayerCount: 2
Fore
SplineSet
555 -105 m 1xc0
 823 -105 l 1
 639 -648 l 1
 433 -648 l 1
 555 -105 l 1xc0
780 5 m 1xd0
 482 5 l 1xd0
 462 1212 l 1
 35 1212 l 1
 35 1450 l 1
 1199 1450 l 1
 1199 1212 l 1
 771 1212 l 1xe0
 780 10 l 1
 780 5 l 1xd0
EndSplineSet
EndChar

StartChar: tcommaaccent
Encoding: 341 355 275
Width: 857
Flags: W
HStem: -18 229<534.001 759> 886 185<43 207 516 760> 1441 20G<417.905 516>
VStem: 207 309<227.604 886 1071 1398>
LayerCount: 2
Fore
SplineSet
318 -105 m 1
 610 -105 l 1
 414 -648 l 1
 194 -648 l 1
 318 -105 l 1
516 412 m 2
 516 266 515 211 633 211 c 2
 759 211 l 1
 759 -18 l 1
 633 -18 l 2
 250 -18 207 148 207 422 c 2
 207 886 l 1
 43 886 l 1
 43 1071 l 1
 207 1071 l 1
 207 1398 l 1
 516 1461 l 1
 516 1071 l 1
 760 1071 l 1
 760 886 l 1
 516 886 l 1
 516 412 l 2
EndSplineSet
EndChar

StartChar: zacute
Encoding: 343 378 277
Width: 1026
Flags: W
HStem: 5 223<398 966> 847 224<71 601> 1491 20G<537 887>
LayerCount: 2
Fore
SplineSet
540 1151 m 1
 316 1151 l 1
 550 1511 l 1
 887 1511 l 1
 540 1151 l 1
966 5 m 1
 45 5 l 1
 45 174 l 1
 601 847 l 1
 71 847 l 1
 71 1071 l 1
 950 1071 l 1
 950 905 l 1
 398 228 l 1
 966 228 l 1
 966 5 l 1
EndSplineSet
EndChar

StartChar: zdotaccent
Encoding: 345 380 279
Width: 1026
Flags: W
HStem: 5 223<398 966> 847 224<71 601> 1207 243<393 617>
VStem: 393 224<1207 1450>
LayerCount: 2
Fore
SplineSet
393 1207 m 1
 393 1450 l 1
 617 1450 l 1
 617 1207 l 1
 393 1207 l 1
966 5 m 1
 45 5 l 1
 45 174 l 1
 601 847 l 1
 71 847 l 1
 71 1071 l 1
 950 1071 l 1
 950 905 l 1
 398 228 l 1
 966 228 l 1
 966 5 l 1
EndSplineSet
EndChar

StartChar: uni0200
Encoding: 346 512 280
Width: 1354
Flags: W
HStem: 5 21G<18 305.226 1084.73 1374> 434 225<534 856> 1530 21G<428 665 824.667 1060> 1870 20G<105 450.611 513 845.611>
LayerCount: 2
Fore
SplineSet
1060 1530 m 1
 843 1530 l 1
 513 1890 l 1
 833 1890 l 1
 1060 1530 l 1
665 1530 m 1
 447 1530 l 1
 105 1890 l 1
 438 1890 l 1
 665 1530 l 1
856 659 m 1
 698 1149 l 1
 534 659 l 1
 856 659 l 1
936 434 m 1
 453 434 l 1
 298 5 l 1
 18 5 l 1
 572 1450 l 1
 820 1450 l 1
 1374 5 l 1
 1092 5 l 1
 936 434 l 1
EndSplineSet
EndChar

StartChar: uni0201
Encoding: 347 513 281
Width: 1225
Flags: W
HStem: -18 209<442.524 799.863> 5 21G<940.765 1158> 435 182<474.624 878> 880 219<407.346 849.543> 1491 20G<14 375.167 447 819.778>
VStem: 140 277<218.395 382.944> 878 280<238.253 435 617 845.159>
LayerCount: 2
Fore
SplineSet
1054 1151 m 1x3e
 817 1151 l 1
 447 1511 l 1
 806 1511 l 1
 1054 1151 l 1x3e
616 1151 m 1
 373 1151 l 1
 14 1511 l 1
 361 1511 l 1
 616 1151 l 1
813 435 m 2
 581 435 417 414 417 314 c 0
 417 229 461 191 580 191 c 0xbe
 700 191 785 221 878 253 c 1
 878 435 l 1
 813 435 l 2
203 993 m 1
 324 1053 480 1099 685 1099 c 0
 952 1099 1158 1014 1158 771 c 2
 1158 5 l 1
 949 5 l 1x7e
 921 73 l 1
 806 23 686 -18 527 -18 c 0
 303 -18 140 93 140 292 c 0
 140 597 494 617 817 617 c 2
 878 617 l 1
 878 739 l 2
 878 843 830 880 691 880 c 0
 502 880 373 832 265 773 c 1
 203 993 l 1
EndSplineSet
EndChar

StartChar: uni0202
Encoding: 348 514 282
Width: 1354
Flags: W
HStem: 5 21G<18 305.226 1084.73 1374> 434 225<534 856> 1430 20G<564.332 827.668> 1641 188<598.089 793.351>
VStem: 406 191<1560 1633.07> 794 191<1560 1632.87>
LayerCount: 2
Fore
SplineSet
985 1599 m 2
 985 1560 l 1
 794 1560 l 1
 794 1597 l 2
 794 1619 768 1641 696 1641 c 0
 624 1641 597 1619 597 1597 c 2
 597 1560 l 1
 406 1560 l 1
 406 1599 l 2
 406 1750 543 1829 696 1829 c 0
 849 1829 985 1749 985 1599 c 2
856 659 m 1
 698 1149 l 1
 534 659 l 1
 856 659 l 1
936 434 m 1
 453 434 l 1
 298 5 l 1
 18 5 l 1
 572 1450 l 1
 820 1450 l 1
 1374 5 l 1
 1092 5 l 1
 936 434 l 1
EndSplineSet
EndChar

StartChar: uni0203
Encoding: 349 515 283
Width: 1225
Flags: W
HStem: -18 209<412.483 777.587> 5 21G<919.765 1137> 435 182<451.149 856> 880 219<383.097 827.692> 1262 188<516.938 739.062>
VStem: 119 271<219.26 382.944> 856 281<238.253 435 617 845.159>
LayerCount: 2
Fore
SplineSet
953 1220 m 2x3e
 953 1181 l 1
 741 1181 l 1
 741 1218 l 2
 741 1239 711 1262 628 1262 c 0
 545 1262 515 1239 515 1218 c 2
 515 1181 l 1
 303 1181 l 1
 303 1220 l 2
 303 1372 455 1450 628 1450 c 0
 801 1450 953 1371 953 1220 c 2x3e
791 435 m 2
 556 435 390 414 390 314 c 0
 390 229 436 191 556 191 c 0xbe
 678 191 762 221 856 253 c 1
 856 435 l 1
 791 435 l 2
182 993 m 1
 301 1052 454 1099 662 1099 c 0
 932 1099 1137 1014 1137 771 c 2
 1137 5 l 1
 928 5 l 1x7e
 900 73 l 1
 784 23 663 -18 502 -18 c 0
 280 -18 119 93 119 292 c 0
 119 597 468 617 795 617 c 2
 856 617 l 1
 856 739 l 2
 856 843 808 880 667 880 c 0
 475 880 348 832 244 773 c 1
 182 993 l 1
EndSplineSet
EndChar

StartChar: uni0204
Encoding: 350 516 284
Width: 1268
Flags: W
HStem: 5 238<498 1169> 641 238<498 1112> 1212 238<498 1139> 1530 21G<419.056 664 825.444 1071> 1870 20G<80 440.167 510 847.167>
VStem: 193 305<243 641 879 1212>
LayerCount: 2
Fore
SplineSet
1071 1530 m 1
 844 1530 l 1
 510 1890 l 1
 834 1890 l 1
 1071 1530 l 1
664 1530 m 1
 439 1530 l 1
 80 1890 l 1
 427 1890 l 1
 664 1530 l 1
1139 1212 m 1
 498 1212 l 1
 498 879 l 1
 1112 879 l 1
 1112 641 l 1
 498 641 l 1
 498 243 l 1
 1190 243 l 1
 1169 5 l 1
 193 5 l 1
 193 1450 l 1
 1160 1450 l 1
 1139 1212 l 1
EndSplineSet
EndChar

StartChar: uni0205
Encoding: 351 517 285
Width: 1170
Flags: W
HStem: -18 221<503.254 877.107> 462 203<385 877> 878 221<497.526 791.578> 1491 20G<20 370.722 434 771>
LayerCount: 2
Fore
SplineSet
992 1151 m 1
 767 1151 l 1
 434 1511 l 1
 758 1511 l 1
 992 1151 l 1
587 1151 m 1
 368 1151 l 1
 20 1511 l 1
 358 1511 l 1
 587 1151 l 1
385 665 m 1
 877 665 l 1
 856 795 789 878 649 878 c 0
 501 878 413 778 385 665 c 1
1120 144 m 1
 1009 44 874 -18 649 -18 c 0
 290 -18 95 256 95 541 c 0
 95 841 307 1099 646 1099 c 0
 979 1099 1148 856 1148 561 c 0
 1148 533 1147 505 1147 477 c 2
 1147 462 l 1
 376 462 l 1
 405 306 487 203 671 203 c 0
 831 203 928 263 1003 334 c 1
 1120 144 l 1
EndSplineSet
EndChar

StartChar: uni0206
Encoding: 352 518 286
Width: 1268
Flags: W
HStem: 5 238<473 1148> 641 238<473 1091> 1212 238<473 1118> 1641 188<571.691 772.003>
VStem: 172 301<243 641 879 1212> 773 197<1560 1632.87>
LayerCount: 2
Fore
SplineSet
970 1599 m 2
 970 1560 l 1
 773 1560 l 1
 773 1597 l 2
 773 1619 746 1641 672 1641 c 0
 598 1641 571 1619 571 1597 c 2
 571 1560 l 1
 369 1560 l 1
 369 1599 l 2
 369 1750 516 1829 672 1829 c 0
 828 1829 970 1749 970 1599 c 2
1118 1212 m 1
 473 1212 l 1
 473 879 l 1
 1091 879 l 1
 1091 641 l 1
 473 641 l 1
 473 243 l 1
 1168 243 l 1
 1148 5 l 1
 172 5 l 1
 172 1450 l 1
 1138 1450 l 1
 1118 1212 l 1
EndSplineSet
EndChar

StartChar: uni0207
Encoding: 353 519 287
Width: 1177
Flags: W
HStem: -18 221<486.758 862.942> 462 203<369 863> 878 221<488.511 777.356> 1262 188<504.881 703.057>
VStem: 309 195<1181 1254.07> 704 194<1181 1253.87>
LayerCount: 2
Fore
SplineSet
898 1220 m 2
 898 1181 l 1
 704 1181 l 1
 704 1218 l 2
 704 1240 677 1262 604 1262 c 0
 531 1262 504 1240 504 1218 c 2
 504 1181 l 1
 309 1181 l 1
 309 1220 l 2
 309 1371 449 1450 604 1450 c 0
 759 1450 898 1370 898 1220 c 2
369 665 m 1
 863 665 l 1
 842 795 775 878 634 878 c 0
 485 878 398 778 369 665 c 1
1106 144 m 1
 995 44 860 -18 634 -18 c 0
 270 -18 74 256 74 541 c 0
 74 841 288 1099 631 1099 c 0
 966 1099 1134 856 1134 561 c 0
 1134 533 1133 505 1133 477 c 2
 1133 462 l 1
 359 462 l 1
 388 306 471 203 656 203 c 0
 817 203 914 263 989 334 c 1
 1106 144 l 1
EndSplineSet
EndChar

StartChar: uni0208
Encoding: 354 520 288
Width: 644
Flags: W
HStem: 5 21G<197 495> 1530 21G<56.2222 312 484.278 736> 1870 20G<-280 79.6667 149 506.5>
VStem: 197 298<5 6.23672 9 1450>
LayerCount: 2
Fore
SplineSet
736 1530 m 1
 504 1530 l 1
 149 1890 l 1
 493 1890 l 1
 736 1530 l 1
312 1530 m 1
 76 1530 l 1
 -280 1890 l 1
 66 1890 l 1
 312 1530 l 1
197 5 m 1
 197 6 261 8 197 9 c 1
 197 1450 l 1
 495 1450 l 1
 495 5 l 1
 197 5 l 1
EndSplineSet
EndChar

StartChar: uni0209
Encoding: 355 521 289
Width: 620
Flags: W
HStem: 5 4<213 213.05> 1051 20G<213 492> 1491 20G<-273 85.6667 154 540.5>
VStem: 213 279<5 6.16943 9 1071>
LayerCount: 2
Fore
SplineSet
770 1151 m 1
 538 1151 l 1
 154 1511 l 1
 527 1511 l 1
 770 1151 l 1
318 1151 m 1
 83 1151 l 1
 -273 1511 l 1
 72 1511 l 1
 318 1151 l 1
213 5 m 1
 213 6 283 8 213 9 c 1
 213 1071 l 1
 492 1071 l 1
 492 5 l 1
 213 5 l 1
EndSplineSet
EndChar

StartChar: uni020A
Encoding: 356 522 290
Width: 638
Flags: W
HStem: 5 21G<170 468> 1430 20G<170 468> 1641 188<214.36 423.64>
VStem: 170 298<5 1450>
LayerCount: 2
Fore
SplineSet
629 1599 m 2
 629 1560 l 1
 425 1560 l 1
 425 1597 l 2
 425 1618 397 1641 319 1641 c 0
 241 1641 213 1618 213 1597 c 2
 213 1560 l 1
 9 1560 l 1
 9 1599 l 2
 9 1750 156 1829 319 1829 c 0
 482 1829 629 1749 629 1599 c 2
468 5 m 1
 170 5 l 1
 170 1450 l 1
 468 1450 l 1
 468 5 l 1
EndSplineSet
EndChar

StartChar: uni020B
Encoding: 357 523 291
Width: 587
Flags: W
HStem: 5 21G<187 466> 1051 20G<187 466> 1262 188<221.36 430.64>
VStem: 187 279<5 1071>
LayerCount: 2
Fore
SplineSet
636 1220 m 2
 636 1181 l 1
 432 1181 l 1
 432 1218 l 2
 432 1239 404 1262 326 1262 c 0
 248 1262 220 1239 220 1218 c 2
 220 1181 l 1
 16 1181 l 1
 16 1220 l 2
 16 1371 163 1450 326 1450 c 0
 489 1450 636 1370 636 1220 c 2
466 5 m 1
 187 5 l 1
 187 1071 l 1
 466 1071 l 1
 466 5 l 1
EndSplineSet
EndChar

StartChar: uni020C
Encoding: 358 524 292
Width: 1662
Flags: W
HStem: -18 245<644.053 1018.06> 1233 245<643.675 1018.44> 1530 21G<565.167 800 958.833 1193> 1870 20G<245 587.5 650 980.5>
VStem: 96 307<496.128 955.933> 1260 307<496.128 955.933>
LayerCount: 2
Fore
SplineSet
1193 1530 m 1
 977 1530 l 1
 650 1890 l 1
 968 1890 l 1
 1193 1530 l 1
800 1530 m 1
 584 1530 l 1
 245 1890 l 1
 575 1890 l 1
 800 1530 l 1
831 1478 m 0
 1251 1478 1567 1161 1567 727 c 0
 1567 298 1250 -18 831 -18 c 0
 412 -18 96 298 96 727 c 0
 96 1161 411 1478 831 1478 c 0
831 1233 m 0
 548 1233 403 979 403 722 c 0
 403 465 549 227 831 227 c 0
 1113 227 1260 465 1260 722 c 0
 1260 979 1114 1233 831 1233 c 0
EndSplineSet
EndChar

StartChar: uni020D
Encoding: 359 525 293
Width: 1275
Flags: W
HStem: -18 221<512.919 804.742> 878 221<512.919 804.742> 1491 20G<55 411.722 475 811>
VStem: 101 275<344.146 729.866> 942 274<344.146 729.866>
LayerCount: 2
Fore
SplineSet
1032 1151 m 1
 807 1151 l 1
 475 1511 l 1
 798 1511 l 1
 1032 1151 l 1
628 1151 m 1
 409 1151 l 1
 55 1511 l 1
 399 1511 l 1
 628 1151 l 1
942 535 m 0
 942 766 799 878 659 878 c 0
 519 878 376 766 376 535 c 0
 376 310 519 203 659 203 c 0
 799 203 942 310 942 535 c 0
659 -18 m 0
 284 -18 101 258 101 535 c 0
 101 814 284 1099 659 1099 c 0
 1032 1099 1216 814 1216 535 c 0
 1216 258 1032 -18 659 -18 c 0
EndSplineSet
EndChar

StartChar: uni020E
Encoding: 360 526 294
Width: 1662
Flags: W
HStem: -18 245<644.053 1018.06> 1233 245<643.675 1018.44> 1641 188<733.972 928.089>
VStem: 96 307<496.128 955.933> 544 189<1560 1633.07> 929 190<1560 1632.87> 1260 307<496.128 955.933>
LayerCount: 2
Fore
SplineSet
1119 1599 m 2
 1119 1560 l 1
 929 1560 l 1
 929 1597 l 2
 929 1619 903 1641 831 1641 c 0
 759 1641 733 1619 733 1597 c 2
 733 1560 l 1
 544 1560 l 1
 544 1599 l 2
 544 1750 679 1829 831 1829 c 0
 983 1829 1119 1749 1119 1599 c 2
831 1478 m 0
 1251 1478 1567 1161 1567 727 c 0
 1567 298 1250 -18 831 -18 c 0
 412 -18 96 298 96 727 c 0
 96 1161 411 1478 831 1478 c 0
831 1233 m 0
 548 1233 403 979 403 722 c 0
 403 465 549 227 831 227 c 0
 1113 227 1260 465 1260 722 c 0
 1260 979 1114 1233 831 1233 c 0
EndSplineSet
EndChar

StartChar: uni020F
Encoding: 361 527 295
Width: 1274
Flags: W
HStem: -18 221<490.881 783.293> 878 221<491.102 783.072> 1262 188<538.765 735.796>
VStem: 80 274<344.146 729.866> 345 193<1181 1254.07> 737 193<1181 1253.87> 921 274<344.146 729.866>
LayerCount: 2
Fore
SplineSet
930 1220 m 2xec
 930 1181 l 1
 737 1181 l 1
 737 1218 l 2
 737 1240 710 1262 637 1262 c 0
 564 1262 538 1240 538 1218 c 2
 538 1181 l 1
 345 1181 l 1
 345 1220 l 2
 345 1371 483 1450 637 1450 c 0
 791 1450 930 1370 930 1220 c 2xec
921 535 m 0xf2
 921 766 777 878 637 878 c 0
 497 878 354 766 354 535 c 0
 354 310 496 203 637 203 c 0
 778 203 921 310 921 535 c 0xf2
637 -18 m 0
 263 -18 80 258 80 535 c 0
 80 814 263 1099 637 1099 c 0
 1011 1099 1195 814 1195 535 c 0
 1195 258 1011 -18 637 -18 c 0
EndSplineSet
EndChar

StartChar: uni0210
Encoding: 362 528 296
Width: 1421
Flags: W
HStem: 5 21G<179 450 1084.79 1379> 605 235<451 762.127> 1211 237<451 954.391> 1530 21G<501.611 739 899.611 1148> 1870 20G<172 523.667 587 922.278>
VStem: 179 271<5 605 840 1211> 1023 279<915.169 1148.07>
LayerCount: 2
Fore
SplineSet
1148 1530 m 1
 918 1530 l 1
 587 1890 l 1
 909 1890 l 1
 1148 1530 l 1
739 1530 m 1
 521 1530 l 1
 172 1890 l 1
 511 1890 l 1
 739 1530 l 1
737 1211 m 2
 451 1211 l 1
 451 840 l 1
 696 840 l 2
 906 840 1023 888 1023 1037 c 0
 1023 1164 930 1211 737 1211 c 2
450 5 m 1
 179 5 l 1
 179 1450 l 1
 655 1448 l 1
 992 1448 1302 1383 1302 1043 c 0
 1302 847 1191 725 1024 671 c 1
 1070 628 1111 584 1140 525 c 1
 1379 4 l 1
 1095 3 l 1
 875 434 l 1
 843 500 805 555 764 598 c 1
 724 603 687 605 641 605 c 2
 450 605 l 1
 450 5 l 1
EndSplineSet
EndChar

StartChar: uni0211
Encoding: 363 529 297
Width: 813
Flags: W
HStem: 5 21G<193 472.034> 871 228<568.104 814.845> 1051 20G<190 453.081> 1491 20G<-145 233.556 301 668.5>
VStem: 193 279<5 765.767>
LayerCount: 2
Fore
SplineSet
898 1151 m 1x98
 666 1151 l 1
 301 1511 l 1
 655 1511 l 1
 898 1151 l 1x98
464 1151 m 1
 231 1151 l 1
 -145 1511 l 1
 220 1511 l 1
 464 1151 l 1
733 1099 m 0xd8
 777 1099 801 1093 816 1090 c 1
 816 851 l 1
 782 861 739 871 705 871 c 0xd8
 561 871 473 762 473 592 c 2
 472 5 l 1
 193 5 l 1
 193 823 l 2
 193 900 190 980 190 1056 c 2
 190 1071 l 1
 452 1071 l 1xb8
 458 960 l 1
 525 1043 615 1099 733 1099 c 0xd8
EndSplineSet
EndChar

StartChar: uni0212
Encoding: 364 530 298
Width: 1421
Flags: W
HStem: 5 21G<172 444 1078.79 1372> 605 235<445 755.128> 1211 237<445 948.159> 1641 188<666.027 862.218>
VStem: 172 272<5 605 840 1211> 473 192<1560 1633.07> 863 196<1560 1632.87> 1016 279<915.169 1148.07>
LayerCount: 2
Fore
SplineSet
1059 1599 m 2xfe
 1059 1560 l 1
 863 1560 l 1
 863 1597 l 2
 863 1619 837 1641 764 1641 c 0
 691 1641 665 1619 665 1597 c 2
 665 1560 l 1
 473 1560 l 1
 473 1599 l 2
 473 1750 611 1829 764 1829 c 0
 917 1829 1059 1749 1059 1599 c 2xfe
730 1211 m 2
 445 1211 l 1
 445 840 l 1
 689 840 l 2
 899 840 1016 888 1016 1037 c 0xfd
 1016 1164 923 1211 730 1211 c 2
444 5 m 1
 172 5 l 1
 172 1450 l 1
 649 1448 l 1
 986 1448 1295 1383 1295 1043 c 0
 1295 847 1184 725 1017 671 c 1
 1063 628 1105 584 1134 525 c 1
 1372 4 l 1
 1089 3 l 1
 869 434 l 1
 837 500 798 555 757 598 c 1
 717 603 681 605 635 605 c 2
 444 605 l 1
 444 5 l 1
EndSplineSet
EndChar

StartChar: uni0213
Encoding: 365 531 299
Width: 780
Flags: W
HStem: 5 21G<150 429> 871 228<519.348 760.845> 1051 20G<147 410.081> 1262 188<349.36 558.64>
VStem: 150 279<5 770.982>
LayerCount: 2
Fore
SplineSet
764 1220 m 2x98
 764 1181 l 1
 560 1181 l 1
 560 1218 l 2
 560 1239 532 1262 454 1262 c 0
 376 1262 348 1239 348 1218 c 2
 348 1181 l 1
 144 1181 l 1
 144 1220 l 2
 144 1371 291 1450 454 1450 c 0
 617 1450 764 1370 764 1220 c 2x98
679 1099 m 0xd8
 723 1099 747 1093 762 1090 c 1
 762 851 l 1
 728 861 685 871 651 871 c 0xd8
 512 871 429 762 429 592 c 2
 429 5 l 1
 150 5 l 1
 150 823 l 2
 150 900 147 980 147 1056 c 2
 147 1071 l 1
 409 1071 l 1xb8
 415 960 l 1
 478 1043 563 1099 679 1099 c 0xd8
EndSplineSet
EndChar

StartChar: uni0214
Encoding: 366 532 300
Width: 1502
Flags: W
HStem: -18 245<559.409 966.61> 1530 21G<493.611 732 893.5 1133> 1870 20G<164 515.722 579 914.833 1080 1351>
VStem: 176 271<346.188 1450> 1080 271<346.575 1450>
LayerCount: 2
Fore
SplineSet
1133 1530 m 1
 912 1530 l 1
 579 1890 l 1
 902 1890 l 1
 1133 1530 l 1
732 1530 m 1
 513 1530 l 1
 164 1890 l 1
 503 1890 l 1
 732 1530 l 1
763 227 m 0
 1005 227 1080 329 1080 563 c 2
 1080 1450 l 1
 1351 1450 l 1
 1351 548 l 2
 1351 184 1157 -18 763 -18 c 0
 368 -18 176 183 176 548 c 2
 176 1450 l 1
 447 1450 l 1
 447 563 l 2
 447 329 521 227 763 227 c 0
EndSplineSet
EndChar

StartChar: uni0215
Encoding: 367 533 301
Width: 1219
Flags: W
HStem: -18 241<505.754 796.489> 1051 20G<152 431 872 1151> 1491 20G<41 397.056 463 806.278>
VStem: 152 279<305.565 1071> 872 279<305.565 1071>
LayerCount: 2
Fore
SplineSet
1032 1151 m 1
 802 1151 l 1
 463 1511 l 1
 793 1511 l 1
 1032 1151 l 1
619 1151 m 1
 394 1151 l 1
 41 1511 l 1
 384 1511 l 1
 619 1151 l 1
1151 1071 m 1
 1151 424 l 2
 1151 156 949 -18 651 -18 c 0
 353 -18 152 156 152 424 c 2
 152 1071 l 1
 431 1071 l 1
 431 432 l 2
 431 307 515 223 651 223 c 0
 787 223 872 307 872 432 c 2
 872 1071 l 1
 1151 1071 l 1
EndSplineSet
EndChar

StartChar: uni0216
Encoding: 368 534 302
Width: 1502
Flags: W
HStem: -18 245<548.205 955.61> 1430 20G<164 435 1069 1340> 1641 188<653.266 850.235>
VStem: 164 271<346.188 1450> 460 192<1560 1633.07> 851 193<1560 1632.87> 1069 271<346.575 1450>
LayerCount: 2
Fore
SplineSet
1044 1599 m 2
 1044 1560 l 1
 851 1560 l 1
 851 1597 l 2
 851 1619 825 1641 752 1641 c 0
 679 1641 652 1619 652 1597 c 2
 652 1560 l 1
 460 1560 l 1
 460 1599 l 2
 460 1750 598 1829 752 1829 c 0
 906 1829 1044 1749 1044 1599 c 2
752 227 m 0
 994 227 1069 329 1069 563 c 2
 1069 1450 l 1
 1340 1450 l 1
 1340 548 l 2
 1340 184 1146 -18 752 -18 c 0
 357 -18 164 183 164 548 c 2
 164 1450 l 1
 435 1450 l 1
 435 563 l 2
 435 329 510 227 752 227 c 0
EndSplineSet
EndChar

StartChar: uni0217
Encoding: 369 535 303
Width: 1219
Flags: W
HStem: -18 241<484.754 775.489> 1051 20G<131 410 851 1130> 1262 188<529.674 730.887>
VStem: 131 279<305.565 1071> 851 279<305.565 1071>
LayerCount: 2
Fore
SplineSet
931 1220 m 2
 931 1181 l 1
 732 1181 l 1
 732 1218 l 2
 732 1240 704 1262 630 1262 c 0
 556 1262 529 1240 529 1218 c 2
 529 1181 l 1
 330 1181 l 1
 330 1220 l 2
 330 1371 473 1450 630 1450 c 0
 787 1450 931 1370 931 1220 c 2
1130 1071 m 1
 1130 424 l 2
 1130 156 928 -18 630 -18 c 0
 332 -18 131 156 131 424 c 2
 131 1071 l 1
 410 1071 l 1
 410 432 l 2
 410 307 494 223 630 223 c 0
 766 223 851 307 851 432 c 2
 851 1071 l 1
 1130 1071 l 1
EndSplineSet
EndChar

StartChar: uni021A
Encoding: 372 538 306
Width: 1221
Flags: W
HStem: 5 21G<481.669 780> 1212 238<35 462 771 1199>
VStem: 462 309<346.822 1212> 482 298<5 870.178>
LayerCount: 2
Fore
SplineSet
555 -127 m 1xc0
 823 -127 l 1
 639 -670 l 1
 434 -670 l 1
 555 -127 l 1xc0
780 5 m 1xd0
 482 5 l 1xd0
 462 1212 l 1
 35 1212 l 1
 35 1450 l 1
 1199 1450 l 1
 1199 1212 l 1
 771 1212 l 1xe0
 780 10 l 1
 780 5 l 1xd0
EndSplineSet
EndChar

StartChar: uni021B
Encoding: 373 539 307
Width: 857
Flags: W
HStem: -18 229<534.001 759> 886 185<43 207 516 760> 1441 20G<417.905 516>
VStem: 207 309<227.604 886 1071 1398>
LayerCount: 2
Fore
SplineSet
318 -127 m 1
 610 -127 l 1
 414 -670 l 1
 195 -670 l 1
 318 -127 l 1
516 412 m 2
 516 266 515 211 633 211 c 2
 759 211 l 1
 759 -18 l 1
 633 -18 l 2
 250 -18 207 148 207 422 c 2
 207 886 l 1
 43 886 l 1
 43 1071 l 1
 207 1071 l 1
 207 1398 l 1
 516 1461 l 1
 516 1071 l 1
 760 1071 l 1
 760 886 l 1
 516 886 l 1
 516 412 l 2
EndSplineSet
EndChar

StartChar: dotlessj
Encoding: 374 567 308
Width: 548
Flags: W
HStem: -318 233<-41 125.615> 1051 20G<161 440>
VStem: 161 279<-61.2813 1071>
LayerCount: 2
Fore
SplineSet
440 175 m 2
 440 -149 360 -318 5 -318 c 2
 -41 -318 l 1
 -41 -85 l 1
 -2 -85 l 2
 146 -85 161 -47 161 117 c 2
 161 1071 l 1
 440 1071 l 1
 440 175 l 2
EndSplineSet
EndChar

StartChar: dotaccentcmb
Encoding: 375 775 309
Width: 549
Flags: W
HStem: 1186 243<159 391>
VStem: 159 232<1186 1429>
LayerCount: 2
Fore
SplineSet
391 1429 m 1
 391 1186 l 1
 159 1186 l 1
 159 1429 l 1
 391 1429 l 1
EndSplineSet
EndChar

StartChar: uni030F
Encoding: 376 783 310
Width: 994
Flags: W
HStem: 1166 360
LayerCount: 2
Fore
SplineSet
350 1526 m 1
 660 1526 l 1
 904 1166 l 1
 671 1166 l 1
 350 1526 l 1
-57 1526 m 1
 278 1526 l 1
 497 1166 l 1
 287 1166 l 1
 -57 1526 l 1
EndSplineSet
EndChar

StartChar: uni0311
Encoding: 377 785 311
Width: 688
Flags: W
HStem: 1277 188<233.36 442.64>
VStem: 28 620
LayerCount: 2
Fore
SplineSet
444 1196 m 1
 444 1233 l 2
 444 1254 416 1277 338 1277 c 0
 260 1277 232 1254 232 1233 c 2
 232 1196 l 1
 28 1196 l 1
 28 1235 l 2
 28 1386 175 1465 338 1465 c 0
 501 1465 648 1385 648 1235 c 2
 648 1196 l 1
 444 1196 l 1
EndSplineSet
EndChar

StartChar: uni0326
Encoding: 378 806 312
Width: 563
Flags: W
HStem: -685 543<174 258>
VStem: 55 385
LayerCount: 2
Fore
SplineSet
258 -685 m 1
 55 -685 l 1
 174 -142 l 1
 440 -142 l 1
 258 -685 l 1
EndSplineSet
EndChar

StartChar: Omega
Encoding: 379 937 313
Width: 1586
Flags: W
HStem: 6 208<105 349 1230 1464> 1235 219<595.503 1000.71>
VStem: 111 251<508.635 991.218> 1225 249<519.782 999.589>
LayerCount: 2
Fore
SplineSet
919 178 m 1
 942 192 l 1
 1096 306 1225 486 1225 753 c 0
 1225 1033 1089 1235 800 1235 c 0
 508 1235 362 1036 362 757 c 0
 362 475 501 292 670 179 c 1
 674 6 l 1
 105 6 l 1
 88 214 l 1
 349 213 l 1
 209 345 111 531 111 779 c 0
 111 1182 387 1454 805 1454 c 0
 1217 1454 1474 1169 1474 775 c 0
 1474 526 1363 343 1230 213 c 1
 1478 214 l 1
 1478 209 l 1
 1464 6 l 1
 926 6 l 1
 919 178 l 1
EndSplineSet
EndChar

StartChar: pi
Encoding: 380 960 314
Width: 1383
Flags: W
LayerCount: 2
Fore
SplineSet
1261 31 m 1
 1276 166 l 1
 1286 165 l 1
1285 151 m 1
 1285 140 l 2
 1285 107 1288 82 1295 59 c 2
 1310 15 l 1
 1265 7 l 2
 1221 -1 1177 -7 1128 -7 c 0
 913 -7 869 139 869 303 c 2
 872 858 l 1
 563 858 l 1
 544 629 517 437 473 234 c 0
 454.613 151.26 431.137 66.229 392 1 c 1
 138 1 l 1
 170 59 l 1
 275 242 291 577 300 864 c 1
 208 858 151 842 92 811 c 2
 43 785 l 1
 12 987 l 1
 30 1000 l 1
 119 1070 245 1068 402 1068 c 2
 1312 1068 l 1
 1312 855 l 1
 1118 855 l 1
 1118 318 l 2
 1118 242 1124 225 1171 225 c 0
 1193 225 1213 229 1236 236 c 2
 1291 254 l 1
 1286 167 l 1
1287 172 m 0
 1290 163 1280 166 1276 167 c 1
 1276 172 1287 174 1287 172 c 0
EndSplineSet
EndChar

StartChar: uni0403
Encoding: 383 1027 317
Width: 1582
Flags: W
HStem: 5 21G<178 450> 1220 230<450 1142>
VStem: 178 272<5 1220>
LayerCount: 2
Fore
SplineSet
178 5 m 1
 178 1450 l 1
 1142 1450 l 1
 1142 1220 l 1
 450 1220 l 1
 450 5 l 1
 178 5 l 1
EndSplineSet
EndChar

StartChar: uni0405
Encoding: 384 1029 318
Width: 1292
Flags: W
HStem: -18 249<388.746 859.606> 1233 246<478.109 938.036>
VStem: 139 270<968.541 1167.75> 933 274<300.443 531.151>
LayerCount: 2
Fore
SplineSet
674 1233 m 0
 511 1233 409 1183 409 1064 c 0
 409 965 489 935 600 901 c 1
 787 846 l 1
 990 784 1208 688 1207 416 c 1
 1207 120 960 -18 655 -18 c 0
 444 -18 280 36 152 113 c 1
 123 131 l 1
 219 373 l 1
 260 342 l 1
 354 275 491 231 663 231 c 0
 833 231 933 288 933 420 c 0
 933 543 827 584 690 623 c 1
 510 676 l 1
 327 728 139 827 139 1064 c 0
 139 1345 384 1479 674 1479 c 0
 859 1479 1020 1438 1134 1360 c 1
 1161 1341 l 1
 1073 1136 l 2
 1071 1131 1068 1125 1066 1120 c 1
 1052.41 1128.16 1039.22 1136.54 1026 1145 c 0
 948 1197 815 1233 674 1233 c 0
EndSplineSet
EndChar

StartChar: uni0406
Encoding: 385 1030 319
Width: 638
Flags: W
HStem: 5 21G<184 455> 1430 20G<184 455>
VStem: 184 271<5 1450>
LayerCount: 2
Fore
SplineSet
455 5 m 1
 184 5 l 1
 184 1450 l 1
 455 1450 l 1
 455 5 l 1
EndSplineSet
EndChar

StartChar: uni0408
Encoding: 387 1032 321
Width: 755
Flags: W
HStem: -18 221<55 273.452> 1431 20G<311 582>
VStem: 311 271<238.922 1450>
LayerCount: 2
Fore
SplineSet
144 205 m 2
 290 209 311 247 311 400 c 2
 311 1450 l 1
 582 1451 l 1
 582 449 l 2
 582 124 480 -18 125 -18 c 2
 55 -18 l 1
 55 203 l 1
 144 205 l 2
EndSplineSet
EndChar

StartChar: uni0409
Encoding: 388 1033 322
Width: 1861
Flags: W
HStem: -18 221<55 285.25> 6 237<1171 1545.68> 653 238<1171 1544.7> 1213 237<601 859>
VStem: 313 288<602.127 1213> 315 304<236.812 1056.87> 859 286<891 1213> 901 270<243 417.989> 1649 262<332.894 563.31>
LayerCount: 2
Fore
SplineSet
1308 653 m 2x7180
 1171 653 l 1
 1171 243 l 1
 1308 243 l 2
 1521 243 1649 305 1649 450 c 0
 1649 591 1518 653 1308 653 c 2x7180
315 400 m 2xb480
 313 1450 l 1
 1145 1450 l 1
 1145 891 l 1xba80
 1283 891 l 2
 1615 891 1887 769 1911 447 c 1
 1911 129 1636 6 1287 6 c 2
 901 6 l 1x7180
 859 1213 l 1
 601 1213 l 1x7a80
 619 446 l 1
 619 122 505 -18 127 -18 c 2
 55 -18 l 1
 55 203 l 1
 146 205 l 2
 292 209 315 248 315 400 c 2xb480
EndSplineSet
EndChar

StartChar: uni040A
Encoding: 389 1034 323
Width: 1790
Flags: W
HStem: 5 237<1170 1490.08> 653 238<584 899 1170 1486> 1430 20G<313 584 899 1170>
VStem: 313 271<6 653 891 1450> 899 271<242 652 891 1450> 1575 262<323.535 568.649>
LayerCount: 2
Fore
SplineSet
1303 652 m 2
 1170 652 l 1
 1170 242 l 1
 1303 241 l 1
 1470 241 1575 302 1575 449 c 0
 1575 592 1469 652 1303 652 c 2
1299 890 m 2
 1622 890 1882 761 1837 447 c 1
 1836 127 1566 5 1286 5 c 2
 899 5 l 1
 899 653 l 1
 584 653 l 1
 584 6 l 1
 313 6 l 1
 313 1450 l 1
 584 1450 l 1
 584 891 l 1
 899 891 l 1
 899 1450 l 1
 1170 1450 l 1
 1170 890 l 1
 1299 890 l 2
EndSplineSet
EndChar

StartChar: uni0410
Encoding: 390 1040 324
Width: 1354
Flags: W
HStem: 5 21G<18 305.226 1084.73 1374> 434 225<534 856> 1430 20G<564.332 827.668>
LayerCount: 2
Fore
SplineSet
856 659 m 1
 698 1149 l 1
 534 659 l 1
 856 659 l 1
936 434 m 1
 453 434 l 1
 298 5 l 1
 18 5 l 1
 572 1450 l 1
 820 1450 l 1
 1374 5 l 1
 1092 5 l 1
 936 434 l 1
EndSplineSet
EndChar

StartChar: uni0411
Encoding: 391 1041 325
Width: 1321
Flags: W
HStem: 5 237<443 916.078> 652 238<443 915.656> 1212 238<444 1203>
VStem: 172 271<242 652 890 1212> 1018 263<324.169 571.396>
LayerCount: 2
Fore
SplineSet
707 652 m 2
 443 652 l 1
 443 242 l 1
 708 242 l 2
 901 242 1018 304 1018 449 c 0
 1018 591 898 652 707 652 c 2
1203 1450 m 1
 1203 1212 l 1
 444 1212 l 1
 443 890 l 1
 688 890 l 2
 1008 890 1281 767 1281 448 c 0
 1281 128 1008 5 689 5 c 2
 172 5 l 1
 172 1450 l 1
 1203 1450 l 1
EndSplineSet
EndChar

StartChar: uni0412
Encoding: 392 1042 326
Width: 1321
Flags: W
HStem: 5 240<444 918.283> 635 238<444 924.446> 1214 238<444 915.953>
VStem: 172 272<245 635 873 1214> 1004 263<944.395 1142.48> 1019 262<326.404 553.299>
LayerCount: 2
Fore
SplineSet
683 1214 m 2xf8
 444 1214 l 1
 444 873 l 1
 690 874 l 2
 886 874 1004 927 1004 1046 c 0
 1004 1161 878 1214 683 1214 c 2xf8
1019 442 m 0xf4
 1019 578 891 635 690 635 c 2
 444 635 l 1
 444 245 l 1
 690 245 l 2
 893 245 1019 303 1019 442 c 0xf4
1281 435 m 0
 1281 121 1001 5 669 5 c 2
 172 5 l 1
 172 1452 l 1
 662 1452 l 2
 977 1452 1267 1352 1267 1050 c 0xf8
 1267 907 1191 813 1096 752 c 1
 1203 688 1281 587 1281 435 c 0
EndSplineSet
EndChar

StartChar: uni0413
Encoding: 393 1043 327
Width: 1582
Flags: W
HStem: 5 21G<178 450> 1220 230<450 1142>
VStem: 178 272<5 1220>
LayerCount: 2
Fore
SplineSet
178 5 m 1
 178 1450 l 1
 1142 1450 l 1
 1142 1220 l 1
 450 1220 l 1
 450 5 l 1
 178 5 l 1
EndSplineSet
EndChar

StartChar: uni0414
Encoding: 394 1044 328
Width: 1553
Flags: W
HStem: -177 412<92 324.745 1320 1407> 5 230<362 373 615 1041> 1216 234<906 1041>
VStem: 92 270<-177 5> 1041 279<235 1216> 1135 272<-177 5>
LayerCount: 2
Fore
SplineSet
615 235 m 1x78
 1041 235 l 1
 1041 1216 l 1
 906 1216 l 1
 748 585 l 1
 717 476 690 331 615 235 c 1x78
161 235 m 2xb4
 373 235 430 377 477 562 c 2
 705 1450 l 1
 1320 1450 l 1
 1320 235 l 1xb8
 1407 235 l 1
 1407 -177 l 1
 1135 -177 l 1xb4
 1135 5 l 1
 362 5 l 1x74
 362 -177 l 1
 92 -177 l 1
 92 235 l 1
 161 235 l 2xb4
EndSplineSet
EndChar

StartChar: uni0415
Encoding: 395 1045 329
Width: 1268
Flags: W
HStem: 5 238<473 1148> 641 238<473 1091> 1212 238<473 1118>
VStem: 172 301<243 641 879 1212>
LayerCount: 2
Fore
SplineSet
1118 1212 m 1
 473 1212 l 1
 473 879 l 1
 1091 879 l 1
 1091 641 l 1
 473 641 l 1
 473 243 l 1
 1168 243 l 1
 1148 5 l 1
 172 5 l 1
 172 1450 l 1
 1138 1450 l 1
 1118 1212 l 1
EndSplineSet
EndChar

StartChar: uni041B
Encoding: 396 1051 330
Width: 1427
Flags: W
HStem: -18 261<-84 140.967> 5 21G<970 1242> 1251 199<466 970>
VStem: 172 294<278.083 1251> 970 272<5 1250>
LayerCount: 2
Fore
SplineSet
1242 5 m 1x78
 970 5 l 1x78
 970 1250 l 1
 466 1251 l 1
 466 457 l 2
 466 126 356 -18 -14 -18 c 2
 -84 -18 l 1
 -84 243 l 1xb8
 6 244 l 2
 152 246 172 295 172 449 c 2
 172 1450 l 1
 1242 1450 l 1
 1242 5 l 1x78
EndSplineSet
EndChar

StartChar: uni041C
Encoding: 397 1052 331
Width: 1814
Flags: W
HStem: 5 21G<172 432 1381 1643> 1430 20G<172 465.058 1356.04 1643>
VStem: 172 260<5 978> 1381 262<5 969>
LayerCount: 2
Fore
SplineSet
1381 969 m 1
 1025 166 l 1
 797 166 l 1
 432 978 l 1
 432 5 l 1
 172 5 l 1
 172 1450 l 1
 456 1450 l 1
 913 441 l 1
 1365 1450 l 1
 1643 1450 l 1
 1643 5 l 1
 1381 5 l 1
 1381 969 l 1
EndSplineSet
EndChar

StartChar: uni041D
Encoding: 398 1053 332
Width: 1562
Flags: W
HStem: 5 21G<174 472 1088 1386> 635 230<472 1088> 1437 20G<174 472 1088 1386>
VStem: 174 298<5 635 865 1457> 1088 298<5 635 865 1457>
LayerCount: 2
Fore
SplineSet
1386 1457 m 1
 1386 5 l 1
 1088 5 l 1
 1088 635 l 1
 472 635 l 1
 472 5 l 1
 174 5 l 1
 174 1457 l 1
 472 1457 l 1
 472 865 l 1
 1088 865 l 1
 1088 1457 l 1
 1386 1457 l 1
EndSplineSet
EndChar

StartChar: uni041E
Encoding: 399 1054 333
Width: 1662
Flags: W
HStem: -18 245<644.053 1018.06> 1233 245<643.675 1018.44>
VStem: 96 307<496.128 955.933> 1260 307<496.128 955.933>
LayerCount: 2
Fore
SplineSet
831 1478 m 0
 1251 1478 1567 1161 1567 727 c 0
 1567 298 1250 -18 831 -18 c 0
 412 -18 96 298 96 727 c 0
 96 1161 411 1478 831 1478 c 0
831 1233 m 0
 548 1233 403 979 403 722 c 0
 403 465 549 227 831 227 c 0
 1113 227 1260 465 1260 722 c 0
 1260 979 1114 1233 831 1233 c 0
EndSplineSet
EndChar

StartChar: uni041F
Encoding: 400 1055 334
Width: 1556
Flags: W
HStem: 5 21G<172 443 1113 1384> 1220 230<443 1113>
VStem: 172 271<5 1220> 1113 271<5 1220>
LayerCount: 2
Fore
SplineSet
1384 1450 m 1
 1384 5 l 1
 1113 5 l 1
 1113 1220 l 1
 443 1220 l 1
 443 5 l 1
 172 5 l 1
 172 1450 l 1
 1384 1450 l 1
EndSplineSet
EndChar

StartChar: uni0420
Encoding: 401 1056 335
Width: 1320
Flags: W
HStem: 5 21G<172 442> 553 232<443 904.671> 1212 238<442 916.109>
VStem: 172 270<5 553 785 1212> 1018 263<882.788 1120.95>
LayerCount: 2
Fore
SplineSet
1018 1003 m 0
 1018 1149 891 1212 678 1212 c 2
 442 1212 l 1
 443 785 l 1
 703 785 l 2
 896 785 1018 865 1018 1003 c 0
442 5 m 1
 172 5 l 1
 172 1450 l 1
 657 1450 l 2
 1007 1450 1281 1326 1281 1006 c 0
 1281 705 1018 553 684 553 c 2
 442 553 l 1
 442 5 l 1
EndSplineSet
EndChar

StartChar: uni0421
Encoding: 402 1057 336
Width: 1417
Flags: W
HStem: -18 245<656.75 1062.7> 1096 21G<1157.5 1225.05> 1233 245<665.868 1052.55>
VStem: 96 307<497.987 953.054>
LayerCount: 2
Fore
SplineSet
1311 121 m 1
 1146 29 976 -18 824 -18 c 0
 436 -18 96 280 96 733 c 0
 96 1194 450 1478 831 1478 c 0
 985 1478 1154 1431 1312 1332 c 1
 1217 1096 l 1
 1098 1183 968 1233 847 1233 c 0
 612 1233 403 1040 403 732 c 0
 403 398 610 227 850 227 c 0
 969 227 1099 275 1216 354 c 1
 1311 121 l 1
EndSplineSet
EndChar

StartChar: uni0422
Encoding: 403 1058 337
Width: 1221
Flags: W
HStem: 5 21G<481.669 780> 1212 238<35 462 771 1199>
VStem: 462 309<346.822 1212> 482 298<5 870.178>
LayerCount: 2
Fore
SplineSet
780 5 m 1xd0
 482 5 l 1xd0
 462 1212 l 1
 35 1212 l 1
 35 1450 l 1
 1199 1450 l 1
 1199 1212 l 1
 771 1212 l 1xe0
 780 10 l 1
 780 5 l 1xd0
EndSplineSet
EndChar

StartChar: uni0424
Encoding: 404 1060 338
Width: 1470
Flags: W
HStem: 5 21G<936 1199> 122 195<1199 1334.94>
VStem: 408 275<432.351 737.868> 936 263<5 123.266>
LayerCount: 2
Fore
SplineSet
935 318 m 1
 890 841 l 1
 758 822 683 730 683 590 c 0
 683 587 684 584 684 580 c 0
 684 433 778 336 935 318 c 1
1172 841 m 1
 1198 317 l 1
 1367 335 1455 435 1456 577 c 1
 1386 729 1303 821 1172 841 c 1
1728 625 m 1
 1728 623 l 2
 1728 621 1729 620 1729 618 c 0
 1735 584 1740 566 1739 557 c 1
 1739 556 l 2
 1739 554 1738 553 1737 552 c 0
 1728 545 1726 568 1726 569 c 1
 1703 300 1507 140 1199 122 c 1
 1199 5 l 1
 936 5 l 1
 936 121 l 1
 609 140 408 325 408 620 c 0
 407 916 614 1096 889 1115 c 1
 889 1232 l 1
 1172 1232 l 1
 1172 1115 l 1
 1417 1098 1597 956 1686 728 c 1
 1671 808 1653 904 1638 985 c 0
 1620 1081 1601 1166 1609 1169 c 0
 1618 1172 1641 1033 1719 665 c 1
 1713 700 1706 740 1698 783 c 0
 1351 2624 -1796 19304 1698 785 c 1
 1641 1099 1565 1528 1727 627 c 0
 1727 626 1728 625 1728 624 c 2
 1728 625 l 1
1728 623 m 1
 1728 622 l 1
 1728 623 l 1
EndSplineSet
EndChar

StartChar: uni0425
Encoding: 405 1061 339
Width: 1313
Flags: W
HStem: 5 21G<-6 317.138 1048.03 1380> 1430 20G<32 360.764 1055.55 1373>
LayerCount: 2
Fore
SplineSet
1061 5 m 1
 685 585 l 1
 304 5 l 1
 -6 5 l 1
 534 742 l 1
 32 1450 l 1
 348 1450 l 1
 699 900 l 1
 1069 1450 l 1
 1373 1450 l 1
 854 742 l 1
 1380 5 l 1
 1061 5 l 1
EndSplineSet
EndChar

StartChar: uni0428
Encoding: 406 1064 340
Width: 1924
Flags: W
HStem: 5 230<443 823 1094 1482> 1430 20G<172 443 823 1094 1482 1753>
VStem: 172 271<235 1450> 823 271<235 1450> 1482 271<235 1450>
LayerCount: 2
Fore
SplineSet
172 5 m 1
 172 1450 l 1
 443 1450 l 1
 443 235 l 1
 823 235 l 1
 823 1450 l 1
 1094 1450 l 1
 1094 235 l 1
 1482 235 l 1
 1482 1450 l 1
 1753 1450 l 1
 1753 5 l 1
 172 5 l 1
EndSplineSet
EndChar

StartChar: uni042A
Encoding: 407 1066 341
Width: 1558
Flags: W
HStem: 5 237<651 1113.41> 732 238<633 1102.36> 1212 238<35 354>
VStem: 354 279<594.016 732 970 1212> 382 269<242 622.984> 1226 263<347.133 467>
LayerCount: 2
Fore
SplineSet
920 732 m 2xec
 633 732 l 1xf4
 651 242 l 1
 932 242 l 2
 1128 242 1226 339 1226 489 c 0
 1226 635 1104 732 920 732 c 2xec
35 1212 m 1
 35 1450 l 1
 633 1450 l 1
 633 970 l 1xf4
 901 970 l 2
 1206 970 1441 817 1485 523 c 1
 1464 815 1427 1385 1490 488 c 0
 1500 335 1496 367 1489 467 c 1
 1479 162 1241 5 912 5 c 2
 382 5 l 1xec
 354 1212 l 1
 35 1212 l 1
EndSplineSet
EndChar

StartChar: uni042B
Encoding: 408 1067 342
Width: 1838
Flags: W
HStem: 5 237<442 902.058> 732 238<442 903.834> 1430 20G<172 442 1370 1641.36>
VStem: 172 270<242 732 970 1450> 1005 272<340.103 635.237> 1370 271<653.249 1450> 1396 271<5 801.751>
LayerCount: 2
Fore
SplineSet
729 732 m 2xf8
 442 732 l 1
 442 242 l 1
 727 242 l 2
 913 242 1005 339 1005 489 c 0
 1005 636 912 732 729 732 c 2xf8
172 5 m 1
 172 1450 l 1
 442 1450 l 1
 442 970 l 1
 711 970 l 2
 1027 970 1249 807 1277 494 c 0
 1277 492 1277 490 1277 488 c 0
 1277 170 1028 5 709 5 c 2
 172 5 l 1
1667 5 m 1xfa
 1396 5 l 1xfa
 1370 1450 l 1
 1641 1450 l 1xfc
 1667 5 l 1xfa
1277 494 m 0
 1277 492 1277 490 1277 488 c 0
 1323 -62 1169 1810 1277 494 c 0
EndSplineSet
EndChar

StartChar: uni042C
Encoding: 409 1068 343
Width: 1321
Flags: W
HStem: 5 237<442 912.283> 732 238<442 915.056> 1430 20G<172 442>
VStem: 172 270<242 732 970 1450> 1017 264<338.877 630.324>
LayerCount: 2
Fore
SplineSet
734 732 m 2
 442 732 l 1
 442 242 l 1
 735 242 l 2
 923 242 1017 339 1017 489 c 0
 1017 636 921 732 734 732 c 2
172 5 m 1
 172 1450 l 1
 442 1450 l 1
 442 970 l 1
 716 970 l 2
 1040 970 1281 805 1281 488 c 0
 1281 170 1040 5 717 5 c 2
 172 5 l 1
EndSplineSet
EndChar

StartChar: uni042E
Encoding: 410 1070 344
Width: 1526
Flags: W
HStem: -18 245<1130.24 1478.4> 5 21G<172 443> 635 230<443 645.662> 1233 245<1133.55 1478.07> 1430 20G<172 443>
VStem: 172 271<5 635 865 1450> 642 297<465.453 635 865 1004.29> 1672 287<465.411 1003.6>
LayerCount: 2
Fore
SplineSet
1305 1233 m 0xb7
 1047 1233 939 1012 939 735 c 2
 939 725 l 1
 942 447 1047 227 1305 227 c 0
 1566 227 1672 454 1672 735 c 0
 1672 1013 1563 1233 1305 1233 c 0xb7
443 1450 m 1x6f
 443 865 l 1
 647 865 l 1
 692 1209 920 1478 1306 1478 c 0
 1740 1478 1959 1142 1959 727 c 0
 1959 313 1738 -18 1306 -18 c 0xb7
 902 -18 675 273 642 635 c 1
 443 635 l 1
 443 5 l 1
 172 5 l 1
 172 1450 l 1
 443 1450 l 1x6f
EndSplineSet
EndChar

StartChar: uni042F
Encoding: 411 1071 345
Width: 1447
Flags: W
HStem: 5 20G<102 403.149 1163 1434> 564 239<789.598 1163> 1214 236<603.634 1163>
VStem: 198 277<897.045 1113.43> 1163 271<5 564 803 1213>
LayerCount: 2
Fore
SplineSet
876 803 m 2
 1163 803 l 1
 1163 1213 l 1
 876 1214 l 2
 627 1214 475 1151 475 1006 c 0
 475 865 630 803 876 803 c 2
901 564 m 2
 862 564 822 566 788 568 c 1
 389 4 l 1
 102 6 l 1
 454 638 l 1
 299 703 198 824 198 1011 c 0
 198 1329 494 1450 901 1450 c 2
 1434 1450 l 1
 1434 5 l 1
 1163 5 l 1
 1163 564 l 1
 901 564 l 2
EndSplineSet
EndChar

StartChar: uni0430
Encoding: 412 1072 346
Width: 1225
Flags: W
HStem: -18 209<412.483 777.587> 5 21G<919.765 1137> 435 182<451.149 856> 880 219<383.097 827.692>
VStem: 119 271<219.26 382.944> 856 281<238.253 435 617 845.159>
LayerCount: 2
Fore
SplineSet
791 435 m 2xbc
 556 435 390 414 390 314 c 0
 390 229 436 191 556 191 c 0
 678 191 762 221 856 253 c 1
 856 435 l 1
 791 435 l 2xbc
182 993 m 1
 301 1052 454 1099 662 1099 c 0
 932 1099 1137 1014 1137 771 c 2
 1137 5 l 1
 928 5 l 1x7c
 900 73 l 1
 784 23 663 -18 502 -18 c 0
 280 -18 119 93 119 292 c 0
 119 597 468 617 795 617 c 2
 856 617 l 1
 856 739 l 2
 856 843 808 880 667 880 c 0
 475 880 348 832 244 773 c 1
 182 993 l 1
EndSplineSet
EndChar

StartChar: uni0432
Encoding: 413 1074 347
Width: 1171
Flags: W
HStem: 5 228<414 814.234> 427 216<414 793.912> 811 244<414 795.938>
VStem: 150 264<233 427 643 811> 814 257<669.511 787.371> 843 255<270.375 391.441>
LayerCount: 2
Fore
SplineSet
814 731 m 0xf8
 814 777 752 811 635 811 c 2
 414 811 l 1
 414 643 l 1
 635 643 l 2
 752 643 814 680 814 731 c 0xf8
635 427 m 2
 414 427 l 1
 414 233 l 1
 635 232 l 2
 766 232 843 274 843 329 c 0xf4
 843 384 764 427 635 427 c 2
1098 324 m 0
 1098 101 875 5 624 5 c 2
 150 5 l 1
 150 1055 l 1
 624 1055 l 2
 866 1055 1071 970 1071 759 c 0xf8
 1071 668 1030 600 970 552 c 1
 1041 500 1098 426 1098 324 c 0
EndSplineSet
EndChar

StartChar: uni0433
Encoding: 414 1075 348
Width: 907
Flags: W
HStem: 5 21G<190 452> 827 228<452 762>
VStem: 190 262<5 827>
LayerCount: 2
Fore
SplineSet
452 827 m 1
 452 5 l 1
 190 5 l 1
 190 1055 l 1
 762 1055 l 1
 762 827 l 1
 452 827 l 1
EndSplineSet
EndChar

StartChar: uni0434
Encoding: 415 1076 349
Width: 1263
Flags: W
HStem: -317 543<-14 216.069 1134 1277> 5 221<508 865> 825 231<542 865>
VStem: -14 251<-317 5> 254 288<261.132 825> 865 269<226 825> 1010 267<-317 5>
LayerCount: 2
Fore
SplineSet
542 825 m 1x7c
 542 449 l 2
 542 371 528 275 508 226 c 1
 865 226 l 1
 865 825 l 1
 542 825 l 1x7c
1010 -317 m 1xba
 1010 5 l 1
 237 5 l 1x7a
 237 -317 l 1
 -14 -317 l 1
 -14 226 l 1
 131 226 l 2
 188 226 254 272 254 405 c 2
 254 1056 l 1
 1134 1056 l 1
 1134 226 l 1xbc
 1277 226 l 1
 1277 -317 l 1
 1010 -317 l 1xba
EndSplineSet
EndChar

StartChar: uni0435
Encoding: 416 1077 350
Width: 1177
Flags: W
HStem: -18 221<486.758 862.942> 462 203<369 863> 878 221<488.511 777.356>
LayerCount: 2
Fore
SplineSet
369 665 m 1
 863 665 l 1
 842 795 775 878 634 878 c 0
 485 878 398 778 369 665 c 1
1106 144 m 1
 995 44 860 -18 634 -18 c 0
 270 -18 74 256 74 541 c 0
 74 841 288 1099 631 1099 c 0
 966 1099 1134 856 1134 561 c 0
 1134 533 1133 505 1133 477 c 2
 1133 462 l 1
 359 462 l 1
 388 306 471 203 656 203 c 0
 817 203 914 263 989 334 c 1
 1106 144 l 1
EndSplineSet
EndChar

StartChar: uni0437
Encoding: 417 1079 351
Width: 1173
Flags: W
LayerCount: 2
Fore
SplineSet
638 1418 m 1
 278 1026 l 1
 717 1425 l 1
724 1418 m 0
 723 1417 716 1411 706 1402 c 2
 261 996 l 1
 350 1045 469 1065 600 1065 c 0
 829 1065 1070 993 1070 767 c 0
 1070 666 1035 591 973 540 c 1
 1052 487 1098 412 1098 304 c 0
 1098 60 849 -23 597 -23 c 0
 435 -23 289 9 199 90 c 2
 176 111 l 1
 190 138 l 2
 212 180 232 221 254 264 c 2
 275 305 l 1
 313 278 l 2
 372 235 477 205 599 205 c 0
 759 205 843 243 843 316 c 0
 843 376 767 420 657 420 c 2
 419 420 l 1
 419 638 l 1
 657 638 l 2
 758 638 814 677 814 734 c 0
 814 802 738 836 589 836 c 0
 464 836 369 809 317 764 c 2
 278 730 l 1
 178 930 l 1
 330 1094 478 1261 630 1425 c 0
EndSplineSet
EndChar

StartChar: uni0438
Encoding: 418 1080 352
Width: 1259
Flags: W
HStem: 5 21G<152 400.309 870 1128> 1035 20G<152 407 878 1128>
VStem: 152 255<354 1055> 870 258<5 601 909 1055>
LayerCount: 2
Fore
SplineSet
878 909 m 1
 878 1055 l 1
 1128 1055 l 1
 1128 5 l 1
 870 5 l 1
 870 601 l 1
 384 5 l 1
 152 5 l 1
 152 1055 l 1
 407 1055 l 1
 407 354 l 1
 878 909 l 1
EndSplineSet
EndChar

StartChar: uni0439
Encoding: 419 1081 353
Width: 1259
Flags: W
HStem: 5 21G<152 400.309 870 1128> 1035 20G<152 407 878 1128> 1262 188<570.997 771.187>
VStem: 152 255<354 1055> 373 197<1181 1254.07> 870 258<5 601 909 1055>
LayerCount: 2
Fore
SplineSet
972 1220 m 2xec
 972 1181 l 1
 772 1181 l 1
 772 1218 l 2
 772 1240 745 1262 671 1262 c 0
 597 1262 570 1240 570 1218 c 2
 570 1181 l 1
 373 1181 l 1
 373 1220 l 2
 373 1371 515 1450 671 1450 c 0
 827 1450 972 1370 972 1220 c 2xec
878 909 m 1
 878 1055 l 1
 1128 1055 l 1
 1128 5 l 1
 870 5 l 1
 870 601 l 1
 384 5 l 1
 152 5 l 1
 152 1055 l 1
 407 1055 l 1
 407 354 l 1xf4
 878 909 l 1
EndSplineSet
EndChar

StartChar: uni043A
Encoding: 420 1082 354
Width: 1190
Flags: W
HStem: 7 21G<162 426 818.211 1193> 831 235<887.514 1075.28>
VStem: 162 264<7 387 663 1057>
LayerCount: 2
Fore
SplineSet
941 1066 m 0
 974 1066 1010 1062 1049 1055 c 1
 1082 1048 l 1
 1081 815 l 1
 1034 823 l 2
 1009 828 990 831 966 831 c 0
 924 831 903 806 870 766 c 1
 816 706 762 642 690 579 c 2
 623 520 l 1
 1193 7 l 1
 840 7 l 1
 426 387 l 1
 426 7 l 1
 162 7 l 1
 162 1057 l 1
 426 1057 l 1
 426 663 l 1
 533 768 l 1
 535 768 l 1
 604 829 653 898 718 969 c 0
 771 1026 840 1066 941 1066 c 0
EndSplineSet
EndChar

StartChar: uni043B
Encoding: 421 1083 355
Width: 1283
Flags: W
HStem: 6 21G<872 1135> 825 231<471 872>
VStem: 183 288<237.165 825> 872 263<6 825>
LayerCount: 2
Fore
SplineSet
399 119 m 1
 316 21 179 0 35 -17 c 1
 -10 -23 l 1
 -10 202 l 1
 25 207 l 1
 169 224 183 245 183 405 c 2
 183 1056 l 1
 1135 1056 l 1
 1135 6 l 1
 872 6 l 1
 872 825 l 1
 471 825 l 1
 471 449 l 2
 471 320 474 205 399 119 c 1
EndSplineSet
EndChar

StartChar: uni043C
Encoding: 422 1084 356
Width: 1297
Flags: W
HStem: 5 21G<150 394 905 1149> 1035 20G<150 385.517 913.438 1149>
VStem: 150 244<5 630> 905 244<5 631>
LayerCount: 2
Fore
SplineSet
1149 5 m 1
 905 5 l 1
 905 631 l 1
 705 319 l 1
 592 319 l 1
 394 630 l 1
 394 5 l 1
 150 5 l 1
 150 1055 l 1
 373 1055 l 1
 649 614 l 1
 926 1055 l 1
 1149 1055 l 1
 1149 5 l 1
EndSplineSet
EndChar

StartChar: uni043D
Encoding: 423 1085 357
Width: 1260
Flags: W
HStem: 5 21G<152 415 866 1129> 465 229<415 866> 1051 20G<152 415 866 1129>
VStem: 152 263<5 465 694 1071> 866 263<5 465 694 1071>
LayerCount: 2
Fore
SplineSet
415 465 m 1
 415 5 l 1
 152 5 l 1
 152 1071 l 1
 415 1071 l 1
 415 694 l 1
 866 694 l 1
 866 1071 l 1
 1129 1071 l 1
 1129 5 l 1
 866 5 l 1
 866 465 l 1
 415 465 l 1
EndSplineSet
EndChar

StartChar: uni043E
Encoding: 424 1086 358
Width: 1274
Flags: W
HStem: -18 221<490.881 783.293> 878 221<491.102 783.072>
VStem: 80 274<344.146 729.866> 921 274<344.146 729.866>
LayerCount: 2
Fore
SplineSet
921 535 m 0
 921 766 777 878 637 878 c 0
 497 878 354 766 354 535 c 0
 354 310 496 203 637 203 c 0
 778 203 921 310 921 535 c 0
637 -18 m 0
 263 -18 80 258 80 535 c 0
 80 814 263 1099 637 1099 c 0
 1011 1099 1195 814 1195 535 c 0
 1195 258 1011 -18 637 -18 c 0
EndSplineSet
EndChar

StartChar: uni043F
Encoding: 425 1087 359
Width: 1260
Flags: W
HStem: 5 21G<152 415 866 1129> 840 231<415 866>
VStem: 152 263<5 840> 866 263<5 840>
LayerCount: 2
Fore
SplineSet
415 840 m 1
 415 5 l 1
 152 5 l 1
 152 1071 l 1
 1129 1071 l 1
 1129 5 l 1
 866 5 l 1
 866 840 l 1
 415 840 l 1
EndSplineSet
EndChar

StartChar: uni0440
Encoding: 426 1088 360
Width: 1295
Flags: W
HStem: -405 21G<102 379.078> -18 221<514.635 801.974> 878 221<513.408 807.932> 1051 20G<102.986 382>
VStem: 103 276<-405 108 346.492 734.791 969 1071> 946 274<355.674 728.557>
LayerCount: 2
Fore
SplineSet
946 541 m 0xec
 946 767 801 878 660 878 c 0
 520 878 379 770 379 541 c 0
 380 311 520 203 660 203 c 0
 802 203 946 315 946 541 c 0xec
103 1071 m 1xdc
 382 1071 l 1xdc
 382 969 l 1
 461 1050 568 1099 703 1099 c 0xec
 1045 1099 1220 802 1220 551 c 0
 1220 270 1054 -18 703 -18 c 0
 564 -18 458 34 381 108 c 1
 379 -405 l 1
 102 -405 l 1
 103 1071 l 1xdc
EndSplineSet
EndChar

StartChar: uni0441
Encoding: 427 1089 361
Width: 1118
Flags: W
HStem: -18 221<494.913 814.47> 878 221<494.578 819.1>
VStem: 74 283<350.209 728.599>
LayerCount: 2
Fore
SplineSet
645 203 m 0
 753.092 203 861.016 255.352 937 344 c 1
 1079 154 l 1
 951 43 792 -18 640 -18 c 0
 356 -18 74 176 74 542 c 0
 74 901 356 1099 641 1099 c 0
 792 1099 948 1039 1077 928 c 1
 936 735 l 1
 868.99 824.347 763.545 878 653 878 c 0
 503 878 357 774 357 544 c 0
 357 308 497 203 645 203 c 0
EndSplineSet
EndChar

StartChar: uni0442
Encoding: 428 1090 362
Width: 944
Flags: W
LayerCount: 2
Fore
SplineSet
10 1041 m 1
 10 873 l 1
 340 873 l 1
 340 35 l 1
 552 35 l 1
 552 873 l 1
 873 873 l 1
 873 1041 l 1
 10 1041 l 1
EndSplineSet
EndChar

StartChar: uni0443
Encoding: 429 1091 363
Width: 1133
Flags: W
HStem: -380 237<128 380.185> 1035 20G<25 320.722 860.568 1148>
LayerCount: 2
Fore
SplineSet
465 55 m 1
 25 1055 l 1
 313 1055 l 1
 596 322 l 1
 868 1054 l 1
 1148 1054 l 1
 737 39 l 1
 681 -235 508 -380 168 -380 c 2
 128 -380 l 1
 128 -143 l 1
 168 -143 l 2
 363 -143 452 -90 465 55 c 1
EndSplineSet
EndChar

StartChar: uni0444
Encoding: 430 1092 364
Width: 1473
Flags: W
HStem: 22 178<416.714 591.571 882.216 1056.77> 812 214<417.268 591.688 882.156 1056.85>
VStem: 74 271<296.453 727.223> 593 288<-175 31 204.786 807.875 1014 1225> 1129 270<293.561 727.005>
LayerCount: 2
Fore
SplineSet
506 812 m 0
 396 812 345 662 345 502 c 0
 345 343 396 200 507 200 c 0
 532 200 563 206 593 218 c 1
 593 793 l 1
 562 806 540 812 506 812 c 0
968 813 m 0
 942 813 910 806 879 793 c 1
 879 219 l 1
 913 205 939 201 966 201 c 0
 1077 201 1129 345 1129 503 c 0
 1129 663 1078 813 968 813 c 0
881 -175 m 1
 593 -175 l 1
 593 32 l 1
 562 24 535 22 503 22 c 0
 226 22 74 275 74 521 c 0
 74 770 226 1026 505 1026 c 0
 536 1026 568 1020 593 1014 c 1
 593 1225 l 1
 881 1225 l 1
 881 1014 l 1
 911 1021 937 1025 969 1025 c 0
 1249 1025 1399 768 1399 520 c 0
 1399 272 1247 21 971 21 c 0
 939 21 908 25 881 31 c 1
 881 -175 l 1
EndSplineSet
EndChar

StartChar: uni0445
Encoding: 431 1093 365
Width: 1150
Flags: W
HStem: 5 21G<39 363.047 863.475 1190> 1051 20G<59 385.085 865.117 1177>
LayerCount: 2
Fore
SplineSet
877 5 m 1
 618 388 l 1
 349 5 l 1
 39 5 l 1
 448 539 l 1
 59 1071 l 1
 372 1071 l 1
 618 695 l 1
 879 1071 l 1
 1177 1071 l 1
 788 543 l 1
 1190 5 l 1
 877 5 l 1
EndSplineSet
EndChar

StartChar: uni0447
Encoding: 432 1095 366
Width: 1241
Flags: W
HStem: 4 21G<844 1108> 339 231<398.521 716.332>
VStem: 76 263<634.626 1040> 844 264<4 438 679.487 1039>
LayerCount: 2
Fore
SplineSet
76 769 m 2
 76 1040 l 1
 340 1040 l 1
 339 864 l 1
 339 678 352 570 550 570 c 0
 699 570 815 667 844 751 c 1
 844 1039 l 1
 1108 1039 l 1
 1108 4 l 1
 844 4 l 1
 844 438 l 1
 761 376 656 339 509 339 c 0
 197 339 76 514 76 769 c 2
EndSplineSet
EndChar

StartChar: uni0448
Encoding: 433 1096 367
Width: 1617
Flags: W
HStem: 5 231<415 694 949 1223> 1049 20G<152 415 694 949 1223 1486>
VStem: 152 263<236 1069> 694 255<236 1069> 1223 263<236 1069>
LayerCount: 2
Fore
SplineSet
152 5 m 1
 152 1069 l 1
 415 1069 l 1
 415 236 l 1
 694 236 l 1
 694 1069 l 1
 949 1069 l 1
 949 236 l 1
 1223 236 l 1
 1223 1069 l 1
 1486 1069 l 1
 1486 5 l 1
 152 5 l 1
EndSplineSet
EndChar

StartChar: uni044A
Encoding: 434 1098 368
Width: 1262
Flags: W
HStem: 5 227<525 899.358> 473 228<525 899.063> 844 227<-78 223>
VStem: 223 271<701 844> 253 272<232 405.93>
LayerCount: 2
Fore
SplineSet
525 232 m 1xe8
 753 232 l 2
 870 232 936 282 936 358 c 0
 936 427 868 473 753 473 c 2
 525 473 l 1
 525 232 l 1xe8
223 844 m 1xf0
 -78 844 l 1
 -78 1071 l 1
 494 1071 l 1
 494 701 l 1xf0
 751 701 l 2
 934 701 1145 603 1187 384 c 1
 1167 591 1125 1049 1191 359 c 1
 1198 272 1197 287 1191 345 c 1
 1184 121 1013 5 775 5 c 2
 253 5 l 1xe8
 223 844 l 1xf0
EndSplineSet
EndChar

StartChar: uni044C
Encoding: 435 1100 369
Width: 1233
Flags: W
HStem: 5 227<495 873.793> 473 228<495 876.023> 1051 20G<223 494>
VStem: 223 271<232 473 701 1071> 907 254<266.463 441.079>
LayerCount: 2
Fore
SplineSet
495 232 m 1
 740 232 l 2
 848 232 907 282 907 358 c 0
 907 427 846 473 740 473 c 2
 495 473 l 1
 495 232 l 1
223 5 m 1
 223 1071 l 1
 494 1071 l 1
 494 701 l 1
 749 701 l 2
 940 701 1161 595 1161 358 c 0
 1161 125 988 5 763 5 c 2
 223 5 l 1
EndSplineSet
EndChar

StartChar: uni044E
Encoding: 436 1102 370
Width: 1568
Flags: W
HStem: -18 231<901.327 1137.38> 5 21G<150 413> 426 216<413 530.353> 867 232<905.325 1133.33> 1051 20G<150 413>
VStem: 150 263<5 426 642 1071> 523 285<327.041 426 642 745.708> 1226 269<320.105 755.797>
LayerCount: 2
Fore
SplineSet
150 1071 m 1x6f
 413 1071 l 1x6f
 413 642 l 1
 524 642 l 1
 563 896 734 1099 1019 1099 c 0
 1340 1099 1495 841 1495 535 c 0
 1495 237 1329 -18 1015 -18 c 0xb7
 726 -18 561 185 523 426 c 1
 413 426 l 1
 413 5 l 1
 150 5 l 1
 150 1071 l 1x6f
1019 213 m 0xb7
 1165 213 1226 355 1226 533 c 0
 1226 722 1166 867 1014 867 c 0
 876 867 808 713 808 532 c 0
 808 354 876 213 1019 213 c 0xb7
EndSplineSet
EndChar

StartChar: uni044F
Encoding: 437 1103 371
Width: 1196
Flags: W
HStem: 5 21G<111 411.952 825 1088> 419 217<608 824> 842 229<421.083 824>
VStem: 138 255<665.917 811.384> 825 263<5 419 636 843>
LayerCount: 2
Fore
SplineSet
555 636 m 2
 824 636 l 1
 824 843 l 1
 555 842 l 2
 453 842 393 798 393 737 c 0
 393 680 457 636 555 636 c 2
608 419 m 1
 402 5 l 1
 111 5 l 1
 359 462 l 1
 240 507 138 597 138 743 c 0
 138 960 324 1071 537 1071 c 2
 1088 1071 l 1
 1088 5 l 1
 825 5 l 1
 825 419 l 1
 608 419 l 1
EndSplineSet
EndChar

StartChar: uni0455
Encoding: 441 1109 375
Width: 1086
Flags: W
HStem: -16 228<324.907 718.257> 842 231<414.757 794.746>
VStem: 135 262<689.059 819.793> 734 263<233.063 377.565>
LayerCount: 2
Fore
SplineSet
552 212 m 0
 687 212 734 237 734 312 c 0
 734 367 680 397 576 420 c 1
 458 450 l 1
 300 488 135 559 135 761 c 0
 135 978 334 1073 563 1073 c 0
 714 1073 833 1042 927 979 c 1
 953 962 l 1
 877 752 l 1
 835 777 l 1
 777 813 683 842 569 842 c 0
 455 842 397 814 397 756 c 0
 397 692 440 681 539 659 c 2
 679 627 l 1
 839 587 997 518 997 313 c 0
 997 86 810 -16 568 -16 c 0
 385 -16 231 27 136 108 c 1
 115 125 l 1
 195 350 l 1
 240 310 l 2
 301 255 411 212 552 212 c 0
EndSplineSet
EndChar

StartChar: uni0456
Encoding: 442 1110 376
Width: 587
Flags: W
HStem: 5 21G<184 463> 1051 20G<184 463> 1233 278<184 463>
VStem: 184 279<5 1071 1233 1511>
LayerCount: 2
Fore
SplineSet
463 1233 m 1
 184 1233 l 1
 184 1511 l 1
 463 1511 l 1
 463 1233 l 1
463 5 m 1
 184 5 l 1
 184 1071 l 1
 463 1071 l 1
 463 5 l 1
EndSplineSet
EndChar

StartChar: Euro
Encoding: 443 8364 377
Width: 1184
Flags: W
HStem: -29 226<600.037 932.014> 483 218<89 178 460 956> 750 218<87 178 466 987> 1244 224<617.877 921.313>
VStem: 198 262<347.053 483 968 1065.76>
LayerCount: 2
Fore
SplineSet
55 749 m 1
 87 967 l 1
 204 967 l 1
 263 1236 446 1468 780 1468 c 0
 912 1468 1027 1425 1113 1338 c 1
 1127 1323 l 1
 1071 1013 l 1
 1016 1100 l 2
 963 1183 889 1244 774 1244 c 0
 595 1244 509 1117 466 968 c 1
 1017 968 l 1
 987 750 l 1
 435 750 l 1
 435 715 l 2
 435 711 436 704 436 701 c 1
 985 701 l 1
 984 695 984 690 983 684 c 2
 956 483 l 1
 460 483 l 1
 493 312 573 197 766 197 c 0
 877 197 958 248 1038 315 c 1
 1104 372 l 1
 1103 86 l 1
 1007 18 899 -29 750 -29 c 0
 405 -29 243 207 198 483 c 1
 59 483 l 1
 89 701 l 1
 178 701 l 1
 178 717 178 733 178 749 c 1
 55 749 l 1
EndSplineSet
EndChar

StartChar: partialdiff
Encoding: 444 8706 378
Width: 1148
Flags: W
VStem: 305 513<462.746 653.141>
LayerCount: 2
Fore
SplineSet
729 31 m 0
 664 -8 585 -34 489 -34 c 0
 209 -34 65 173 65 439 c 0
 65 751 250 1042 571 1047 c 1
 572 1048 l 1
 578 1048 l 2
 688 1048 773 1005 834 946 c 1
 828 1167 755 1339 558 1339 c 0
 469 1339 380 1294 322 1252 c 1
 322 1252 293 1229 289 1226 c 2
 267 1210 l 1
 250 1442 l 1
 270 1454 l 1
 344 1509 455 1553 580 1553 c 0
 968 1553 1076 1212 1076 854 c 0
 1076 551 996 283 836 117 c 0
818 662 m 1
 785 757 716 834 599 834 c 0
 413 834 305 643 305 437 c 0
 305 287 362 181 492 181 c 0
 590 181 655 246 704 319 c 0
 762 406 802 530 818 662 c 1
EndSplineSet
EndChar

StartChar: uni2206
Encoding: 445 8710 379
Width: 1268
Flags: W
LayerCount: 2
Fore
SplineSet
620 1132 m 0
 592 1214 575 1255 583 1260 c 0
 590 1264 590 1257 590 1257 c 1
 604 1229 923 340 913 335 c 0
 904 330 879 411 819 577 c 0
626 1116 m 1
 533 813 428 523 333 232 c 1
 925 232 l 1
 626 1116 l 1
1237 115 m 1
 741 1449 l 1
 522 1449 l 1
 24 114 l 1
 24 -10 l 1
 1237 -10 l 1
 1237 31.6667 1237 73.3333 1237 115 c 1
EndSplineSet
EndChar

StartChar: product
Encoding: 446 8719 380
Width: 1523
Flags: W
HStem: -339 21G<226 478 1058 1312> 1218 225<110 226 478 1058 1312 1421.09>
VStem: 226 252<-339 1218> 1058 254<-339 1218>
LayerCount: 2
Fore
SplineSet
87 1443 m 1
 1440 1443 l 1
 1418 1231 l 2
 1417 1225 1418 1231 1417 1218 c 1
 1312 1218 l 1
 1312 -339 l 1
 1058 -339 l 1
 1058 1218 l 1
 478 1218 l 1
 478 -339 l 1
 226 -339 l 1
 226 1218 l 1
 110 1218 l 1
 87 1443 l 1
EndSplineSet
EndChar

StartChar: summation
Encoding: 447 8721 381
Width: 1226
Flags: W
HStem: -339 228<382 1202> 1221 222<410 1159>
LayerCount: 2
Fore
SplineSet
382 -111 m 1
 1202 -111 l 1
 1202 -339 l 1
 40 -339 l 1
 40 -199 l 1
 627 557 l 1
 61 1298 l 1
 61 1443 l 1
 1159 1443 l 1
 1159 1221 l 1
 410 1221 l 1
 908 565 l 1
 382 -111 l 1
EndSplineSet
EndChar

StartChar: radical
Encoding: 448 8730 382
Width: 1276
Flags: W
HStem: 1596 20G<940.918 1210>
LayerCount: 2
Fore
SplineSet
647 202 m 1
 759.846 685.627 881.837 1143.35 1000 1616 c 1
 1210 1616 l 1
 752 -162 l 1
 573 -162 l 1
 268 651 l 1
 97 622 l 1
 65 812 l 1
 413 876 l 1
 635 241 l 1
 647 202 l 1
EndSplineSet
EndChar

StartChar: infinity
Encoding: 449 8734 383
Width: 1621
Flags: W
HStem: 226 200<332.103 581.35 1036.53 1282.32> 770 194<329.774 478 1035.92 1284.62>
VStem: 77 203<479.922 724.315> 1324 215<469.225 629>
LayerCount: 2
Fore
SplineSet
476 963 m 1
 638 949 738 838 809 739 c 1
 887 847 991 964 1169 964 c 0
 1388 964 1539 816 1539 600 c 0
 1539 388 1381 226 1168 226 c 0
 996 226 891 341 809 453 c 1
 730 345 626 226 450 226 c 0
 227 226 77 401 77 616 c 0
 77 818 249 965 445 965 c 2
 478 965 l 1
 476 963 l 1
280 598 m 0
 280 499 345 426 451 426 c 0
 565 426 640 514 700 595 c 1
 638 684 564 770 443 770 c 0
 336 770 280 701 280 598 c 0
1326 630 m 1
 1321 714 1261 770 1166 770 c 0
 1053 770 975 679 917 598 c 1
 984 510 1051 425 1169 425 c 0
 1280 425 1324 499 1324 620 c 2
 1324 629 l 1
 1326 630 l 1
EndSplineSet
EndChar

StartChar: integral
Encoding: 450 8747 384
Width: 764
Flags: W
HStem: -409 215<105.508 340.251> 1437 214<658.993 898.578>
VStem: 362 279<-176.739 1419.55>
LayerCount: 2
Fore
SplineSet
102 -158 m 1
 159 -182 l 2
 174 -188 216 -194 248 -194 c 0
 348 -194 362 -148 362 -22 c 2
 362 1246 l 2
 362 1465 457 1651 732 1651 c 0
 790 1651 830 1639 869 1630 c 2
 899 1623 l 1
 903 1401 l 1
 847 1425 l 2
 832 1431 790 1437 758 1437 c 0
 657 1437 641 1392 641 1265 c 2
 641 -3 l 2
 641 -222 549 -409 274 -409 c 0
 218 -409 175 -398 134 -386 c 2
 105 -378 l 1
 102 -158 l 1
EndSplineSet
EndChar

StartChar: approxequal
Encoding: 451 8776 385
Width: 1315
Flags: W
HStem: 249 198<754.218 949.105> 393 200<353.212 572.644> 601 197<731.618 954.972> 741 197<358.826 569.69>
VStem: 126 184<284.811 349.993 610.702 691.767>
LayerCount: 2
Fore
SplineSet
993 913 m 1x28
 1004 948 l 1
 1183 904 l 1
 1175 868 l 2
 1144 729 1053 601 864 601 c 0x28
 711 601 606 688 509 727 c 0
 486 736 465 741 444 741 c 0
 371 741 341 689 322 606 c 1
 312 568 l 1
 125 614 l 1
 133 650 l 2
 166 800 264 938 447 938 c 0x18
 643 938 738 798 870 798 c 0
 938 798 966 843 993 913 c 1x28
435 591 m 1
 435 593 l 1
 449 593 l 2x48
 600 593 715 508 801 466 c 0
 828 453 852 447 872 447 c 0
 936 447 966 502 996 586 c 2
 1004 608 l 2
 1005 612 1007 617 1009 621 c 1
 1186 574 l 1
 1178 537 l 2
 1146 388 1056 249 866 249 c 0x88
 715 249 608 341 513 379 c 0
 489 388 467 393 446 393 c 0x48
 371 393 341 348 321 281 c 2
 310 244 l 1
 126 288 l 1
 136 325 l 1
 170 459 263 584 435 591 c 1
EndSplineSet
EndChar

StartChar: notequal
Encoding: 452 8800 386
Width: 1321
Flags: W
HStem: 289 200<151 404 708 1168> 693 201<151 597 901 1167>
LayerCount: 2
Fore
SplineSet
688 894 m 1
 820 1145 l 1
 995 1121 l 2
 1002 1120 1010 1119 1017 1118 c 1
 1016 1116 1014 1113 1014 1113 c 1
 901 893 l 1
 1167 893 l 1
 1183 697 l 2
 1183 695 1184 694 1184 692 c 1
 808 692 l 1
 708 489 l 1
 1168 489 l 1
 1184 289 l 1
 614 289 l 1
 481 32 l 1
 286 60 l 1
 404 290 l 1
 151 290 l 1
 138 490 l 1
 499 490 l 1
 597 693 l 1
 151 693 l 1
 136 894 l 1
 688 894 l 1
EndSplineSet
EndChar

StartChar: lessequal
Encoding: 453 8804 387
Width: 1322
Flags: W
HStem: 0 202<139 1023 1146 1173>
LayerCount: 2
Fore
SplineSet
1146 202 m 1
 1173 203 l 1
 1173 0 l 1
 139 0 l 1
 139 202 l 1
 1023 202 l 1
 173 628 l 1
 173 757 l 1
 1146 1265 l 1
 1146 1037 l 1
 466 696 l 1
 1146 371 l 1
 1146 202 l 1
EndSplineSet
EndChar

StartChar: greaterequal
Encoding: 454 8805 388
Width: 1323
Flags: W
HStem: -1 202<139 168 288 1169>
LayerCount: 2
Fore
SplineSet
853 694 m 1
 172 1038 l 1
 172 1266 l 1
 1151 757 l 1
 1151 629 l 1
 288 201 l 1
 1169 201 l 1
 1169 -1 l 1
 139 -1 l 1
 139 201 l 1
 168 201 l 1
 168 373 l 1
 853 694 l 1
EndSplineSet
EndChar

StartChar: lozenge
Encoding: 455 9674 389
Width: 1223
Flags: W
HStem: 1469 20G<530.217 697.643>
LayerCount: 2
Fore
SplineSet
542 1489 m 1
 686 1489 l 1
 1136 716 l 1
 677 -56 l 1
 534 -56 l 1
 86 715 l 1
 542 1489 l 1
616 1247 m 1
 518 1063 415 889 321 717 c 1
 415 538 513 361 606 185 c 1
 705 369 807 544 901 716 c 1
 807 894 708 1071 616 1247 c 1
EndSplineSet
EndChar

StartChar: commaaccent
Encoding: 456 63171 390
Width: 657
Flags: W
HStem: -663 543<205 289>
VStem: 85 386
LayerCount: 2
Fore
SplineSet
289 -663 m 1
 85 -663 l 1
 205 -120 l 1
 471 -120 l 1
 289 -663 l 1
EndSplineSet
EndChar

StartChar: scommaaccent
Encoding: 457 -1 391
Width: 1016
Flags: W
HStem: -58 211<282.738 658.879> 851 214<360.046 736.559>
VStem: 98 240<687.411 822.209> 694 239<192.586 343.372>
LayerCount: 2
Fore
SplineSet
520 -635 m 1
 314 -635 l 1
 436 -92 l 1
 711 -92 l 1
 520 -635 l 1
338 753 m 0
 338 670 484 642 612 602 c 1
 751 556 933 489 933 278 c 0
 933 42 706 -58 484 -58 c 0
 332 -58 195 -28 112 63 c 1
 97 79 l 1
 159 314 l 1
 208 255 l 1
 261 193 356 153 491 153 c 0
 616 153 694 190 694 271 c 0
 694 315 671 336 625 358 c 0
 457 439 98 447 98 755 c 0
 98 971 299 1065 497 1065 c 0
 639 1065 761 1047 851 981 c 1
 874 963 l 1
 811 762 l 1
 766 790 l 1
 707 830 619 851 506 851 c 0
 404 851 338 813 338 753 c 0
EndSplineSet
EndChar

StartChar: Scommaaccent
Encoding: 458 -1 392
Width: 1173
Flags: W
HStem: -33 249<371.444 810.304> 1248 246<453.153 893.585>
VStem: 120 269<974.064 1185.73> 887 273<292.724 518.371>
LayerCount: 2
Fore
SplineSet
607 -684 m 1
 424 -684 l 1
 531 -141 l 1
 771 -141 l 1
 607 -684 l 1
571 907 m 2
 749 851 l 1
 944 788 1161 690 1160 411 c 1
 1160 108 914 -33 623 -33 c 0
 422 -33 261 21 133 98 c 1
 104 116 l 1
 200 358 l 1
 242 327 l 1
 336 260 468 216 631 216 c 0
 792 216 887 275 887 410 c 0
 887 536 789 579 659 618 c 1
 485 672 l 1
 308 725 120 827 120 1069 c 0
 120 1357 364 1494 640 1494 c 0
 817 1494 973 1452 1087 1375 c 1
 1114 1356 l 1
 1026 1151 l 2
 1024 1146 1021 1140 1019 1135 c 1
 1005.41 1143.16 992.222 1151.54 979 1160 c 0
 901 1212 775 1248 640 1248 c 0
 485 1248 389 1197 389 1075 c 0
 389 974 465 941 571 907 c 2
EndSplineSet
EndChar

StartChar: R.alt.001
Encoding: 459 -1 393
Width: 1403
Flags: W
HStem: -10 21G<195 452 1035.77 1106> 605 238<453 727.175> 1218 237<452 902.181>
VStem: 195 257<-10 605 843 1218> 982 269<921.159 1148.4>
LayerCount: 2
Fore
SplineSet
982 1040 m 0
 982 1163 879 1218 703 1218 c 2
 452 1218 l 1
 453 843 l 1
 704 843 l 2
 876 843 982 908 982 1040 c 0
452 605 m 1
 452 -10 l 1
 195 -10 l 1
 195 1455 l 1
 652 1455 l 2
 961 1455 1251 1366 1251 1051 c 0
 1251 851 1135 726 965 670 c 1
 1131 496 1209 256 1305 46 c 1
 1331 -9 l 1
 1269 -9 l 2
 1204 -9 1139 -10 1073 -10 c 2
 1045 -10 l 1
 872 365 l 1
 830 460 786 535 729 599 c 1
 690 604 655 605 609 605 c 2
 452 605 l 1
EndSplineSet
EndChar

StartChar: u.alt
Encoding: 460 -1 394
Width: 1260
Flags: W
HStem: -18 235<443.933 725.548> 4 21G<860.652 1110> 1035 20G<131 395 843 1107>
VStem: 131 263<266.536 1055> 843 264<322.758 1056>
LayerCount: 2
Fore
SplineSet
131 436 m 2xb8
 131 1055 l 1
 395 1055 l 1
 394 535 l 2
 394 340 401 217 563 217 c 0xb8
 701 217 815 308 843 395 c 1
 843 1056 l 1
 1107 1056 l 1
 1107 281 l 2
 1107 202 1110 120 1110 43 c 2
 1110 4 l 1
 862 4 l 1x78
 856 93 l 1
 775 22 672 -18 531 -18 c 0
 244 -18 131 178 131 436 c 2xb8
EndSplineSet
EndChar

StartChar: a.alt
Encoding: 461 -1 395
Width: 1221
Flags: W
HStem: -19 217<356.369 666.964> 3 21G<824 1088> 497 171<646.61 823> 836 232<333.87 796.521>
VStem: 88 253<215.728 364.343> 824 264<3 77 333.97 497 652.896 800.761>
LayerCount: 2
Fore
SplineSet
88 281 m 0xbc
 88 553 404 579 627 621 c 0
 709 636 786 650 823 668 c 1
 822 716 l 1
 822 804 775 836 639 836 c 0
 481 836 343 805 257 760 c 2
 212 736 l 1
 153 966 l 1
 184 981 l 1
 292 1032 449 1068 635 1068 c 0
 891 1068 1088 985 1088 748 c 2
 1088 3 l 1
 824 3 l 1x7c
 824 77 l 1
 729 16 598 -19 452 -19 c 0
 237 -19 88 84 88 281 c 0xbc
341 283 m 0
 341 233 381 198 453 198 c 2
 464 198 l 1xbc
 683 201 824 308 824 483 c 2
 824 497 l 1
 607 430 341 425 341 283 c 0
EndSplineSet
EndChar

StartChar: y.alt
Encoding: 462 -1 396
Width: 1137
Flags: W
LayerCount: 2
Fore
SplineSet
312 1025 m 1
 596 333 l 1
 868 1023 l 1
 1148 1023 l 1
 709 -44 l 1
 631 -224 467 -342 306 -431 c 1
 278 -449 l 1
 122 -258 l 1
 164 -236 l 2
 280 -176 397 -87 449 17 c 2
 461 41 l 1
 25 1025 l 1
 312 1025 l 1
EndSplineSet
EndChar

StartChar: R.alt
Encoding: 463 -1 397
Width: 1403
Flags: W
HStem: -10 21G<195 452 1035.77 1106> 605 238<453 727.175> 1218 237<452 902.181>
VStem: 195 257<-10 605 843 1218> 982 269<921.159 1148.4>
LayerCount: 2
Fore
SplineSet
982 1040 m 0
 982 1163 879 1218 703 1218 c 2
 452 1218 l 1
 453 843 l 1
 704 843 l 2
 876 843 982 908 982 1040 c 0
452 605 m 1
 452 -10 l 1
 195 -10 l 1
 195 1455 l 1
 652 1455 l 2
 961 1455 1251 1366 1251 1051 c 0
 1251 851 1135 726 965 670 c 1
 1131 496 1209 256 1305 46 c 1
 1331 -9 l 1
 1269 -9 l 2
 1204 -9 1139 -10 1073 -10 c 2
 1045 -10 l 1
 872 365 l 1
 830 460 786 535 729 599 c 1
 690 604 655 605 609 605 c 2
 452 605 l 1
EndSplineSet
EndChar

StartChar: six.alt
Encoding: 464 -1 398
Width: 1159
Flags: W
HStem: -33 245<448.491 751.133> 706 240<440.432 762.057> 1247 246<505.838 881.408>
VStem: 42 305<355.651 853.622> 855 286<314.739 497>
LayerCount: 2
Fore
SplineSet
855 456 m 0
 855 615 770 705 602 706 c 1
 431 706 347 611 347 446 c 0
 347 306 449 212 601 212 c 0
 756 212 855 311 855 456 c 0
1139 495 m 1
 1141 497 l 1
 1141 461 l 2
 1141 157 915 -33 612 -33 c 0
 200 -33 42 281 42 687 c 0
 42 1095 209 1493 646 1493 c 0
 811 1493 964 1456 1070 1381 c 1
 1096 1362 l 1
 1010 1154 l 2
 1008 1148 1005 1144 1003 1138 c 1
 963 1163 l 2
 890 1208 772 1247 652 1247 c 0
 446 1247 364 1067 337 848 c 1
 416 914 516 946 644 946 c 0
 929 946 1123 767 1139 495 c 1
EndSplineSet
EndChar

StartChar: afii10145
Encoding: 468 1039 402
Width: 1557
Flags: W
LayerCount: 2
Fore
SplineSet
1114 1420 m 1
 1114 205 l 1
 383 205 l 1
 383 1420 l 1
 172 1420 l 1
 172 35 l 1
 658 35 l 1
 658 -277 l 1
 803 -277 l 1
 803 35 l 1
 1325 35 l 1
 1325 1420 l 1
 1114 1420 l 1
EndSplineSet
EndChar

StartChar: afii10026
Encoding: 469 1048 403
Width: 1569
Flags: W
HStem: 5 21G<172 449.547 1142 1397.01> 1430 20G<172 427 1142 1398>
VStem: 172 255<374 1450> 1142 255<5 977 1320 1450>
LayerCount: 2
Fore
SplineSet
1142 1450 m 1
 1398 1450 l 1
 1397 5 l 1
 1142 5 l 1
 1142 977 l 1
 435 5 l 1
 172 5 l 1
 172 1450 l 1
 427 1450 l 1
 427 378 l 1
 416 364 404 348 427 378 c 1
 427 374 l 1
 429.497 378.26 432.766 383.834 437 391 c 1
 437 392 l 1
 1142 1320 l 1
 1142 1450 l 1
437 392 m 2
 427 378 l 1
 430 382 433 387 437 392 c 2
EndSplineSet
EndChar

StartChar: afii10027
Encoding: 470 1049 404
Width: 1569
Flags: W
HStem: 5 21G<172 449.547 1142 1397.01> 1430 20G<172 427 1142 1398> 1570 188<687.079 882.983>
VStem: 172 255<374 1450> 495 191<1766.13 1839> 884 192<1765.93 1839> 1142 255<5 977 1320 1450>
LayerCount: 2
Fore
SplineSet
1142 1450 m 1
 1398 1450 l 1
 1397 5 l 1
 1142 5 l 1
 1142 977 l 1
 435 5 l 1
 172 5 l 1
 172 1450 l 1
 427 1450 l 1
 427 378 l 1
 416 364 404 348 427 378 c 1
 427 374 l 1
 429.497 378.26 432.766 383.834 437 391 c 1
 437 392 l 1
 1142 1320 l 1
 1142 1450 l 1
495 1800 m 2
 495 1839 l 1
 686 1839 l 1
 686 1802 l 2
 686 1780 712 1758 785 1758 c 0
 858 1758 884 1780 884 1802 c 2
 884 1839 l 1
 1076 1839 l 1
 1076 1800 l 2
 1076 1649 938 1570 785 1570 c 0
 632 1570 495 1650 495 1800 c 2
437 392 m 2
 427 378 l 1
 430 382 433 387 437 392 c 2
EndSplineSet
EndChar

StartChar: afii10028
Encoding: 471 1050 405
Width: 1313
Flags: W
HStem: 5 21G<172 443 1034.47 1398> 1430 20G<172 443 894 1325>
VStem: 172 271<5 603 831 1449>
LayerCount: 2
Fore
SplineSet
443 831 m 1
 625 1039 804 1243 984 1450 c 1
 1325 1450 l 1
 701 773 l 1
 1398 5 l 1
 1051 5 l 1
 508 662 l 1
 443 603 l 1
 443 5 l 1
 172 5 l 1
 172 1450 l 1
 443 1449 l 1
 443 831 l 1
EndSplineSet
EndChar

StartChar: afii10060
Encoding: 473 1035 407
Width: 1866
Flags: W
HStem: 6 21G<604 888 1355 1616> 652 238<889 1296.93> 1212 238<178 604 888 1295>
VStem: 604 284<6 652 890 1211> 1355 261<6 595.603>
LayerCount: 2
Fore
SplineSet
1020 890 m 2
 1333 890 1616 850 1616 448 c 2
 1616 6 l 1
 1355 6 l 1
 1355 447 l 2
 1355 629 1266 652 1059 652 c 2
 888 652 l 1
 888 6 l 1
 604 6 l 1
 604 1212 l 1
 178 1212 l 1
 178 1450 l 1
 1295 1450 l 1
 1295 1211 l 1
 888 1211 l 1
 889 890 l 1
 1020 890 l 2
EndSplineSet
EndChar

StartChar: afii10051
Encoding: 474 1026 408
Width: 1896
Flags: W
HStem: -203 238<1207 1363.31> 6 21G<633.602 918> 652 238<918 1326.64> 1212 238<178 610 902 1299>
VStem: 610 293<890 1211> 634 284<6 652> 1385 261<63.7941 595.432>
LayerCount: 2
Fore
SplineSet
1646 240 m 2x7a
 1646 -160 1445 -203 1222 -203 c 2
 1207 -203 l 1
 1207 35 l 1
 1222 35 l 2xba
 1367 35 1385 49 1385 239 c 2
 1385 447 l 2
 1385 629 1296 652 1089 652 c 2
 918 652 l 1
 918 6 l 1
 634 6 l 1x76
 610 1212 l 1
 178 1212 l 1
 178 1450 l 1
 1299 1450 l 1
 1299 1211 l 1
 902 1211 l 1
 903 890 l 1
 1031 890 l 2
 1334 890 1616 849 1646 446 c 1
 1646 240 l 2x7a
EndSplineSet
EndChar

StartChar: afii10053
Encoding: 475 1028 409
Width: 1412
Flags: W
HStem: -18 245<652.851 1057.7> 631 238<412 1072> 1096 21G<1152.5 1220.05> 1233 245<652.993 1047.55>
VStem: 96 976<649.914 857.901>
LayerCount: 2
Fore
SplineSet
1306 121 m 1
 1141 29 971 -18 819 -18 c 0
 431 -18 96 280 96 733 c 0
 96 1194 445 1478 826 1478 c 0
 980 1478 1149 1431 1307 1332 c 1
 1212 1096 l 1
 1093 1183 963 1233 842 1233 c 0
 641 1233 462 1095 412 869 c 1
 1072 869 l 1
 1072 631 l 1
 405 631 l 1
 442 363 630 227 845 227 c 0
 964 227 1094 275 1211 354 c 1
 1306 121 l 1
EndSplineSet
EndChar

StartChar: afii10041
Encoding: 476 1063 410
Width: 1976
Flags: W
HStem: 5 21G<1086.96 1371> 566 238<509.466 1086> 1430 20G<178 439 1087 1371>
VStem: 178 261<873.59 1450> 1087 284<5 566 804 1450>
LayerCount: 2
Fore
SplineSet
1371 1450 m 1
 1371 5 l 1
 1087 5 l 1
 1086 566 l 1
 846 566 l 2
 468 566 178 606 178 1008 c 2
 178 1450 l 1
 439 1450 l 1
 439 1009 l 2
 439 827 547 804 798 804 c 2
 1087 804 l 1
 1087 1450 l 1
 1371 1450 l 1
EndSplineSet
EndChar

StartChar: afii10037
Encoding: 477 1059 411
Width: 1285
Flags: W
HStem: -358 172<188 360.088>
VStem: 509 236<-24.6336 241>
LayerCount: 2
Fore
SplineSet
-6 1450 m 1
 510 344 l 1
 509 241 l 1
 508 -84 390 -186 188 -186 c 2
 181 -186 l 1
 181 -358 l 1
 188 -358 l 2
 513 -358 745 -190 745 200 c 2
 745 344 l 1
 1248 1450 l 1
 1015 1450 l 1
 629 493 l 1
 221 1450 l 1
 -6 1450 l 1
EndSplineSet
EndChar

StartChar: afii10062
Encoding: 478 1038 412
Width: 1290
Flags: W
HStem: -28 232<121 432.229> 1430 20G<24 326.094 965.503 1269> 1570 188<572.756 769.244>
VStem: 379 193<1766.13 1839> 770 193<1765.93 1839>
LayerCount: 2
Fore
SplineSet
973 1450 m 1
 1269 1450 l 1
 884 552 l 1
 732 194 614 -28 277 -28 c 2
 121 -28 l 1
 121 204 l 1
 158 204 l 2
 356 204 456 208 531 369 c 2
 576 466 l 1
 392 794 209 1123 24 1450 c 1
 316 1450 l 1
 693 703 l 1
 973 1450 l 1
379 1800 m 2
 379 1839 l 1
 572 1839 l 1
 572 1802 l 2
 572 1780 598 1758 671 1758 c 0
 744 1758 770 1780 770 1802 c 2
 770 1839 l 1
 963 1839 l 1
 963 1800 l 2
 963 1649 825 1570 671 1570 c 0
 517 1570 379 1650 379 1800 c 2
EndSplineSet
EndChar

StartChar: afii10043
Encoding: 479 1065 413
Width: 1924
Flags: W
HStem: 5 230<443 823 1094 1482> 1430 20G<172 443 823 1094 1482 1753>
VStem: 172 271<235 1450> 823 271<235 1450> 1482 271<235 1450> 1710 216<-307 5>
LayerCount: 2
Fore
SplineSet
172 5 m 1xf4
 172 1450 l 1
 443 1450 l 1
 443 235 l 1
 823 235 l 1
 823 1450 l 1
 1094 1450 l 1
 1094 235 l 1
 1482 235 l 1
 1482 1450 l 1
 1753 1450 l 1
 1753 191 l 1xf8
 1926 191 l 1
 1926 -307 l 1
 1710 -307 l 1
 1710 5 l 1
 172 5 l 1xf4
EndSplineSet
EndChar

StartChar: afii10047
Encoding: 480 1069 414
Width: 1416
Flags: W
HStem: 12 185<300.814 719.703> 1263 185<307.351 715.913>
LayerCount: 2
Fore
SplineSet
542 1448 m 0
 400 1448 243 1409 96 1320 c 1
 167 1143 l 1
 286 1226 410 1263 526 1263 c 0
 745 1263 942 1107 989 853 c 1
 993 836 l 1
 323 836 l 1
 323 663 l 1
 997 663 l 1
 995 647 l 1
 962 353 757 197 523 197 c 0
 409 197 283 235 168 308 c 1
 97 135 l 1
 254 49 409 12 549 12 c 0
 923 12 1244 297 1244 734 c 0
 1244 1178 910 1448 542 1448 c 0
EndSplineSet
EndChar

StartChar: afii10024
Encoding: 481 1046 415
Width: 1339
Flags: W
HStem: 5 21G<-6 322.447 779 1039 1346.45 1668> 1430 20G<31 360 779 1039 1312.76 1631>
VStem: 779 260<5 515 945 1450>
LayerCount: 2
Fore
SplineSet
359 1450 m 1
 361 1448 362 1446 364 1444 c 2
 779 945 l 1
 779 1450 l 1
 1039 1450 l 1
 1039 943 l 1
 1324 1450 l 1
 1631 1450 l 1
 1149 742 l 1
 1668 5 l 1
 1359 5 l 1
 1039 515 l 1
 1039 5 l 1
 779 5 l 1
 779 520 l 1
 304 5 l 1
 -6 5 l 1
 621 742 l 1
 31 1450 l 1
 359 1450 l 1
EndSplineSet
EndChar

StartChar: afii10040
Encoding: 482 1062 416
Width: 1540
Flags: W
LayerCount: 2
Fore
SplineSet
1107 1420 m 1
 1107 205 l 1
 383 205 l 1
 383 1420 l 1
 172 1420 l 1
 172 35 l 1
 1307 35 l 1
 1307 1420 l 1
 1107 1420 l 1
1324 89 m 1
 1324 -277 l 1
 1480 -277 l 1
 1480 89 l 1
 1324 89 l 1
EndSplineSet
EndChar

StartChar: afii10072
Encoding: 483 1078 417
Width: 1407
Flags: W
HStem: 5 21G<39 367.771 653 892 1079.08 1401> 1049 20G<59 382 653 892 1068 1381>
VStem: 653 239<5 339 738 1071>
LayerCount: 2
Fore
SplineSet
381 1069 m 1
 383 1067 384 1065 386 1063 c 2
 653 730 l 1
 653 1071 l 1
 892 1071 l 1
 892 738 l 1
 1066 1062 l 2
 1067 1063 1068 1065 1068 1066 c 0
 1185 1292 1070 1069 1070 1069 c 1
 1381 1069 l 1
 992 538 l 1
 1401 5 l 1
 1091 5 l 1
 892 339 l 1
 892 5 l 1
 653 5 l 1
 653 346 l 1
 350 5 l 1
 39 5 l 1
 507 538 l 1
 59 1069 l 1
 381 1069 l 1
EndSplineSet
EndChar

StartChar: afii10088
Encoding: 484 1094 418
Width: 1298
Flags: W
LayerCount: 2
Fore
SplineSet
910 206 m 1
 395 206 l 1
 395 1039 l 1
 192 1039 l 1
 192 35 l 1
 1082 35 l 1
 1082 -277 l 1
 1238 -277 l 1
 1238 89 l 1
 1107 89 l 1
 1107 1039 l 1
 910 1039 l 1
 910 206 l 1
EndSplineSet
EndChar

StartChar: afii10091
Encoding: 485 1097 419
Width: 1579
Flags: W
LayerCount: 2
Fore
SplineSet
1413 89 m 1
 1413 1039 l 1
 1216 1039 l 1
 1216 206 l 1
 870 206 l 1
 870 1039 l 1
 683 1039 l 1
 683 206 l 1
 335 206 l 1
 335 1039 l 1
 132 1039 l 1
 132 35 l 1
 1363 35 l 1
 1363 -277 l 1
 1519 -277 l 1
 1519 89 l 1
 1413 89 l 1
EndSplineSet
EndChar

StartChar: afii10107
Encoding: 486 1114 420
Width: 1743
Flags: W
HStem: 5 227<1119 1401.14> 465 229<415 856> 483 215<1119 1401.5> 1051 20G<152 415 856 1119>
VStem: 152 263<5 465 694 1071> 856 263<232 465 698 1071> 1438 254<265.792 445.747>
LayerCount: 2
Fore
SplineSet
1119 232 m 1xbe
 1282 232 l 2
 1382 232 1438 284 1438 363 c 0
 1438 435 1381 483 1282 483 c 2
 1119 483 l 1
 1119 232 l 1xbe
1311 698 m 2
 1530 698 1727 583 1692 357 c 1
 1691 125 1519 5 1304 5 c 2
 856 5 l 1
 856 465 l 1
 415 465 l 1
 415 5 l 1
 152 5 l 1
 152 1071 l 1
 415 1071 l 1
 415 694 l 1
 856 694 l 1xde
 856 1071 l 1
 1119 1071 l 1
 1119 698 l 1
 1311 698 l 2
EndSplineSet
EndChar

StartChar: afii10193
Encoding: 487 1119 421
Width: 1263
Flags: W
LayerCount: 2
Fore
SplineSet
152 1041 m 1
 152 35 l 1
 549 35 l 1
 549 -277 l 1
 698 -277 l 1
 698 35 l 1
 1071 35 l 1
 1071 1041 l 1
 868 1041 l 1
 868 206 l 1
 355 206 l 1
 355 1041 l 1
 152 1041 l 1
EndSplineSet
EndChar

StartChar: afii10093
Encoding: 488 1099 422
Width: 1635
Flags: W
HStem: 5 227<495 852.724> 473 228<495 863.433> 1051 20G<223 494 1235 1514.47>
VStem: 223 271<232 473 701 1071> 892 265<266.426 441.375> 1235 279<459.713 1071> 1260 279<5 616.287>
LayerCount: 2
Fore
SplineSet
495 232 m 1xf8
 729 232 l 2
 834 232 892 282 892 358 c 0
 892 427 832 473 729 473 c 2
 495 473 l 1
 495 232 l 1xf8
741 701 m 2
 927 701 1131 595 1157 359 c 1
 1157 358 l 2
 1157 125 976 5 751 5 c 2
 223 5 l 1
 223 1071 l 1
 494 1071 l 1
 494 701 l 1
 741 701 l 2
1539 5 m 1xfa
 1260 5 l 1xfa
 1235 1071 l 1
 1514 1071 l 1xfc
 1539 5 l 1xfa
EndSplineSet
EndChar

StartChar: afii10101
Encoding: 489 1108 423
Width: 1180
Flags: W
HStem: -18 221<494.913 814.47> 439 208<224 852> 878 221<494.578 819.1>
VStem: 74 283<350.209 728.599>
LayerCount: 2
Fore
SplineSet
852 439 m 1
 224 439 l 1
 224 647 l 1
 852 647 l 1
 852 439 l 1
EndSplineSet
Refer: 361 1089 N 1 0 0 1 0 0 2
EndChar

StartChar: afii10095
Encoding: 490 1101 424
Width: 1180
Flags: W
HStem: -18 221<324.53 644.087> 878 221<319.9 644.422>
VStem: 782 283<350.209 728.599>
LayerCount: 2
Fore
SplineSet
358 469 m 1
 926 469 l 1
 926 617 l 1
 358 617 l 1
 358 469 l 1
EndSplineSet
Refer: 361 1089 N -1 0 0 1 1139 0 2
EndChar

StartChar: afii10106
Encoding: 491 1113 425
Width: 1743
Flags: W
HStem: 5 227<1119 1401.14> 473 228<1119 1410.78> 842 229<415 856>
VStem: 152 263<5 842> 856 263<232 473 701 842> 1438 254<266.426 437.625>
LayerCount: 2
Fore
SplineSet
1119 232 m 1
 1282 232 l 2
 1383 232 1438 282 1438 358 c 0
 1438 427 1381 473 1282 473 c 2
 1119 473 l 1
 1119 232 l 1
1311 701 m 2
 1530 701 1727 584 1692 358 c 1
 1691 125 1519 5 1304 5 c 2
 856 5 l 1
 856 842 l 1
 415 842 l 1
 415 5 l 1
 152 5 l 1
 152 1071 l 1
 1119 1071 l 1
 1119 701 l 1
 1311 701 l 2
EndSplineSet
EndChar

